<svg xmlns="http://www.w3.org/2000/svg" xmlns:xlink="http://www.w3.org/1999/xlink" width="420" zoomAndPan="magnify" viewBox="0 0 315 89.999999" height="120" preserveAspectRatio="xMidYMid meet" version="1.0"><defs><g/><clipPath id="ea36157423"><path d="M 56 24 L 80.996094 24 L 80.996094 42 L 56 42 Z M 56 24 " clip-rule="nonzero"/></clipPath><clipPath id="3642dc4d8a"><path d="M 62 36 L 80.996094 36 L 80.996094 46 L 62 46 Z M 62 36 " clip-rule="nonzero"/></clipPath><clipPath id="a2b55aa3c5"><path d="M 56 43 L 80.996094 43 L 80.996094 61 L 56 61 Z M 56 43 " clip-rule="nonzero"/></clipPath><clipPath id="ae24966714"><path d="M 62 56 L 80.996094 56 L 80.996094 66 L 62 66 Z M 62 56 " clip-rule="nonzero"/></clipPath><clipPath id="9a6d50afb0"><path d="M 56 63 L 80.996094 63 L 80.996094 80 L 56 80 Z M 56 63 " clip-rule="nonzero"/></clipPath><clipPath id="0d453aa1c9"><path d="M 56 77 L 80.996094 77 L 80.996094 90 L 56 90 Z M 56 77 " clip-rule="nonzero"/></clipPath><clipPath id="2e18458df5"><path d="M 2.246094 14 L 27 14 L 27 31 L 2.246094 31 Z M 2.246094 14 " clip-rule="nonzero"/></clipPath><clipPath id="e21063c125"><path d="M 2.246094 29 L 17 29 L 17 37 L 2.246094 37 Z M 2.246094 29 " clip-rule="nonzero"/></clipPath><clipPath id="d650f0428b"><path d="M 2.246094 33 L 27 33 L 27 51 L 2.246094 51 Z M 2.246094 33 " clip-rule="nonzero"/></clipPath><clipPath id="de8e2d61d7"><path d="M 2.246094 48 L 17 48 L 17 56 L 2.246094 56 Z M 2.246094 48 " clip-rule="nonzero"/></clipPath><clipPath id="0a6e8550c2"><path d="M 2.246094 53 L 27 53 L 27 70 L 2.246094 70 Z M 2.246094 53 " clip-rule="nonzero"/></clipPath><clipPath id="b70096316e"><path d="M 2.246094 67 L 27 67 L 27 80 L 2.246094 80 Z M 2.246094 67 " clip-rule="nonzero"/></clipPath></defs><path fill="#8cd7bd" d="M 30.382812 6.832031 C 37.859375 10.058594 45.332031 13.285156 52.808594 16.511719 C 53.429688 16.777344 54.199219 16.476562 54.199219 15.710938 L 54.199219 10.574219 C 54.199219 10.277344 54.03125 9.898438 53.742188 9.773438 C 46.265625 6.546875 38.792969 3.324219 31.316406 0.0976562 C 30.695312 -0.171875 29.925781 0.128906 29.925781 0.898438 L 29.925781 6.03125 C 29.925781 7.230469 31.777344 7.230469 31.777344 6.03125 L 31.777344 0.898438 C 31.3125 1.164062 30.847656 1.433594 30.382812 1.699219 C 37.859375 4.925781 45.332031 8.148438 52.808594 11.375 C 52.65625 11.109375 52.503906 10.839844 52.351562 10.574219 L 52.351562 15.710938 C 52.816406 15.441406 53.277344 15.175781 53.742188 14.90625 C 46.265625 11.683594 38.792969 8.457031 31.316406 5.230469 C 30.234375 4.765625 29.289062 6.363281 30.382812 6.832031 " fill-opacity="1" fill-rule="nonzero"/><path fill="#8cd7bd" d="M 31.316406 21.039062 C 36.800781 18.667969 42.289062 16.304688 47.773438 13.9375 C 48.867188 13.464844 47.921875 11.867188 46.839844 12.332031 C 41.355469 14.699219 35.867188 17.066406 30.382812 19.433594 C 29.289062 19.90625 30.234375 21.503906 31.316406 21.039062 " fill-opacity="1" fill-rule="nonzero"/><path fill="#8cd7bd" d="M 52.808594 14.890625 C 48.734375 16.652344 44.65625 18.410156 40.582031 20.167969 C 39.488281 20.640625 40.433594 22.238281 41.511719 21.769531 C 45.589844 20.011719 49.667969 18.253906 53.742188 16.496094 C 54.835938 16.023438 53.890625 14.425781 52.808594 14.890625 " fill-opacity="1" fill-rule="nonzero"/><path fill="#8cd7bd" d="M 30.382812 26.171875 C 37.859375 29.398438 45.332031 32.621094 52.808594 35.847656 C 53.429688 36.117188 54.199219 35.816406 54.199219 35.046875 L 54.199219 29.910156 C 54.199219 29.617188 54.03125 29.234375 53.742188 29.109375 C 46.265625 25.886719 38.792969 22.660156 31.316406 19.433594 C 30.695312 19.167969 29.925781 19.46875 29.925781 20.234375 L 29.925781 25.371094 C 29.925781 26.566406 31.777344 26.566406 31.777344 25.371094 L 31.777344 20.234375 L 30.382812 21.039062 C 37.859375 24.261719 45.332031 27.488281 52.808594 30.710938 C 52.65625 30.445312 52.503906 30.179688 52.351562 29.910156 L 52.351562 35.046875 L 53.742188 34.246094 C 46.265625 31.019531 38.792969 27.792969 31.316406 24.570312 C 30.234375 24.101562 29.289062 25.699219 30.382812 26.171875 " fill-opacity="1" fill-rule="nonzero"/><path fill="#8cd7bd" d="M 31.316406 40.496094 C 36.800781 38.128906 42.289062 35.761719 47.773438 33.394531 C 48.867188 32.921875 47.921875 31.324219 46.839844 31.792969 C 41.355469 34.160156 35.867188 36.527344 30.382812 38.890625 C 29.289062 39.363281 30.234375 40.964844 31.316406 40.496094 " fill-opacity="1" fill-rule="nonzero"/><path fill="#8cd7bd" d="M 52.808594 34.351562 C 48.734375 36.109375 44.65625 37.867188 40.582031 39.625 C 39.488281 40.097656 40.433594 41.695312 41.511719 41.230469 C 45.589844 39.472656 49.667969 37.710938 53.742188 35.953125 C 54.835938 35.484375 53.890625 33.882812 52.808594 34.351562 " fill-opacity="1" fill-rule="nonzero"/><path fill="#8cd7bd" d="M 30.382812 45.628906 C 37.859375 48.855469 45.332031 52.082031 52.808594 55.304688 C 53.429688 55.574219 54.199219 55.273438 54.199219 54.503906 L 54.199219 49.371094 C 54.199219 49.074219 54.03125 48.695312 53.742188 48.570312 C 46.265625 45.34375 38.792969 42.117188 31.316406 38.890625 C 30.695312 38.625 29.925781 38.925781 29.925781 39.695312 L 29.925781 44.828125 C 29.925781 46.023438 31.777344 46.023438 31.777344 44.828125 L 31.777344 39.695312 L 30.382812 40.496094 C 37.859375 43.722656 45.332031 46.945312 52.808594 50.171875 C 52.65625 49.90625 52.503906 49.636719 52.351562 49.371094 L 52.351562 54.503906 C 52.816406 54.238281 53.277344 53.972656 53.742188 53.703125 C 46.265625 50.480469 38.792969 47.253906 31.316406 44.027344 C 30.234375 43.558594 29.289062 45.15625 30.382812 45.628906 " fill-opacity="1" fill-rule="nonzero"/><path fill="#8cd7bd" d="M 52.808594 54.03125 C 45.332031 57.253906 37.859375 60.480469 30.382812 63.703125 L 31.777344 64.507812 L 31.777344 59.371094 C 31.621094 59.640625 31.46875 59.90625 31.316406 60.171875 C 35.6875 58.289062 40.054688 56.402344 44.421875 54.515625 C 45.515625 54.046875 44.574219 52.449219 43.492188 52.914062 C 39.121094 54.800781 34.753906 56.683594 30.382812 58.570312 C 30.09375 58.695312 29.925781 59.074219 29.925781 59.371094 L 29.925781 64.507812 C 29.925781 65.273438 30.695312 65.574219 31.316406 65.308594 C 38.792969 62.082031 46.265625 58.855469 53.742188 55.632812 C 54.835938 55.160156 53.890625 53.5625 52.808594 54.03125 " fill-opacity="1" fill-rule="nonzero"/><g clip-path="url(#ea36157423)"><path fill="#ed52b1" d="M 79.515625 29.828125 C 72.039062 33.054688 64.5625 36.277344 57.089844 39.503906 C 57.550781 39.773438 58.015625 40.039062 58.480469 40.304688 L 58.480469 35.171875 C 58.328125 35.4375 58.175781 35.707031 58.019531 35.972656 C 65.5 32.746094 72.972656 29.519531 80.449219 26.296875 C 79.984375 26.027344 79.519531 25.761719 79.058594 25.492188 L 79.058594 30.628906 C 79.058594 31.828125 80.90625 31.828125 80.90625 30.628906 L 80.90625 25.492188 C 80.90625 24.726562 80.136719 24.425781 79.515625 24.695312 C 72.039062 27.917969 64.5625 31.144531 57.089844 34.367188 C 56.800781 34.496094 56.632812 34.875 56.632812 35.171875 L 56.632812 40.304688 C 56.632812 41.074219 57.402344 41.375 58.019531 41.105469 C 65.5 37.878906 72.972656 34.65625 80.449219 31.429688 C 81.539062 30.957031 80.597656 29.359375 79.515625 29.828125 " fill-opacity="1" fill-rule="nonzero"/></g><g clip-path="url(#3642dc4d8a)"><path fill="#ed52b1" d="M 80.449219 44.03125 C 74.960938 41.664062 69.476562 39.296875 63.988281 36.929688 C 62.90625 36.460938 61.964844 38.058594 63.058594 38.53125 C 68.542969 40.898438 74.027344 43.265625 79.515625 45.632812 C 80.597656 46.101562 81.539062 44.503906 80.449219 44.03125 " fill-opacity="1" fill-rule="nonzero"/></g><path fill="#ed52b1" d="M 57.089844 41.089844 C 61.164062 42.847656 65.242188 44.609375 69.316406 46.367188 C 70.398438 46.832031 71.34375 45.234375 70.25 44.765625 C 66.175781 43.003906 62.097656 41.246094 58.019531 39.488281 C 56.941406 39.023438 55.996094 40.621094 57.089844 41.089844 " fill-opacity="1" fill-rule="nonzero"/><g clip-path="url(#a2b55aa3c5)"><path fill="#ed52b1" d="M 79.515625 49.164062 C 72.039062 52.390625 64.5625 55.617188 57.089844 58.84375 C 57.550781 59.109375 58.015625 59.375 58.480469 59.644531 L 58.480469 54.507812 C 58.328125 54.777344 58.175781 55.042969 58.019531 55.308594 C 65.5 52.085938 72.972656 48.859375 80.449219 45.632812 C 79.984375 45.367188 79.519531 45.097656 79.058594 44.832031 L 79.058594 49.964844 C 79.058594 51.160156 80.90625 51.160156 80.90625 49.964844 L 80.90625 44.832031 C 80.90625 44.0625 80.136719 43.761719 79.515625 44.03125 C 72.039062 47.253906 64.5625 50.480469 57.089844 53.707031 C 56.800781 53.832031 56.632812 54.214844 56.632812 54.507812 L 56.632812 59.644531 C 56.632812 60.410156 57.402344 60.710938 58.019531 60.445312 C 65.5 57.21875 72.972656 53.992188 80.449219 50.769531 C 81.539062 50.296875 80.597656 48.695312 79.515625 49.164062 " fill-opacity="1" fill-rule="nonzero"/></g><g clip-path="url(#ae24966714)"><path fill="#ed52b1" d="M 80.449219 63.488281 C 74.960938 61.121094 69.476562 58.753906 63.988281 56.386719 C 62.90625 55.921875 61.964844 57.519531 63.058594 57.988281 C 68.542969 60.355469 74.027344 62.722656 79.515625 65.089844 C 80.597656 65.558594 81.539062 63.960938 80.449219 63.488281 " fill-opacity="1" fill-rule="nonzero"/></g><path fill="#ed52b1" d="M 57.089844 60.550781 C 61.164062 62.308594 65.242188 64.066406 69.316406 65.824219 C 70.398438 66.292969 71.34375 64.695312 70.25 64.222656 C 66.175781 62.464844 62.097656 60.707031 58.019531 58.949219 C 56.941406 58.480469 55.996094 60.078125 57.089844 60.550781 " fill-opacity="1" fill-rule="nonzero"/><g clip-path="url(#9a6d50afb0)"><path fill="#ed52b1" d="M 79.515625 68.621094 C 72.039062 71.847656 64.5625 75.074219 57.089844 78.300781 C 57.550781 78.566406 58.015625 78.835938 58.480469 79.101562 L 58.480469 73.964844 C 58.328125 74.234375 58.175781 74.5 58.019531 74.769531 C 65.5 71.542969 72.972656 68.316406 80.449219 65.089844 C 79.984375 64.824219 79.519531 64.558594 79.058594 64.289062 L 79.058594 69.425781 C 79.058594 70.621094 80.90625 70.621094 80.90625 69.425781 L 80.90625 64.289062 C 80.90625 63.519531 80.136719 63.222656 79.515625 63.488281 C 72.039062 66.714844 64.5625 69.941406 57.089844 73.164062 C 56.800781 73.289062 56.632812 73.671875 56.632812 73.964844 L 56.632812 79.101562 C 56.632812 79.871094 57.402344 80.171875 58.019531 79.902344 C 65.5 76.679688 72.972656 73.453125 80.449219 70.226562 C 81.539062 69.753906 80.597656 68.15625 79.515625 68.621094 " fill-opacity="1" fill-rule="nonzero"/></g><g clip-path="url(#0d453aa1c9)"><path fill="#ed52b1" d="M 57.089844 80.226562 C 64.5625 83.453125 72.039062 86.679688 79.515625 89.902344 C 80.136719 90.171875 80.90625 89.871094 80.90625 89.105469 L 80.90625 83.96875 C 80.90625 83.671875 80.734375 83.289062 80.449219 83.167969 L 67.339844 77.511719 C 66.257812 77.042969 65.316406 78.644531 66.40625 79.113281 C 70.777344 81 75.144531 82.882812 79.515625 84.769531 C 79.363281 84.503906 79.210938 84.234375 79.058594 83.96875 L 79.058594 89.105469 C 79.519531 88.835938 79.984375 88.570312 80.449219 88.300781 C 72.972656 85.074219 65.496094 81.851562 58.019531 78.625 C 56.941406 78.15625 55.996094 79.757812 57.089844 80.226562 " fill-opacity="1" fill-rule="nonzero"/></g><path fill="#ed52b1" d="M 36.335938 76.417969 L 36.335938 80.207031 C 36.335938 81.402344 38.183594 81.402344 38.183594 80.207031 L 38.183594 76.417969 C 38.183594 75.222656 36.335938 75.222656 36.335938 76.417969 " fill-opacity="1" fill-rule="nonzero"/><path fill="#ed52b1" d="M 39.078125 77.386719 L 35.304688 77.386719 C 34.113281 77.386719 34.113281 79.242188 35.304688 79.242188 L 39.078125 79.242188 C 40.269531 79.242188 40.269531 77.386719 39.078125 77.386719 " fill-opacity="1" fill-rule="nonzero"/><path fill="#ed52b1" d="M 10.261719 9.347656 L 10.261719 13.132812 C 10.261719 14.332031 12.109375 14.332031 12.109375 13.132812 L 12.109375 9.347656 C 12.109375 8.148438 10.261719 8.148438 10.261719 9.347656 " fill-opacity="1" fill-rule="nonzero"/><path fill="#ed52b1" d="M 13.003906 10.3125 L 9.230469 10.3125 C 8.039062 10.3125 8.039062 12.167969 9.230469 12.167969 L 13.003906 12.167969 C 14.195312 12.167969 14.195312 10.3125 13.003906 10.3125 " fill-opacity="1" fill-rule="nonzero"/><g clip-path="url(#2e18458df5)"><path fill="#f5a30d" d="M 25.222656 19.558594 C 17.746094 22.785156 10.269531 26.007812 2.796875 29.234375 C 3.257812 29.503906 3.722656 29.769531 4.1875 30.039062 L 4.1875 24.902344 C 4.03125 25.167969 3.878906 25.4375 3.726562 25.703125 C 11.203125 22.476562 18.679688 19.253906 26.152344 16.027344 C 25.6875 15.761719 25.226562 15.492188 24.761719 15.226562 L 24.761719 20.359375 C 24.761719 21.558594 26.609375 21.558594 26.609375 20.359375 L 26.609375 15.226562 C 26.609375 14.457031 25.839844 14.15625 25.21875 14.425781 C 17.746094 17.648438 10.269531 20.875 2.792969 24.101562 C 2.503906 24.222656 2.335938 24.605469 2.335938 24.902344 C 2.335938 26.613281 2.335938 28.324219 2.335938 30.039062 C 2.335938 30.804688 3.105469 31.105469 3.726562 30.835938 C 11.203125 27.613281 18.675781 24.386719 26.152344 21.160156 C 27.246094 20.691406 26.300781 19.089844 25.21875 19.558594 " fill-opacity="1" fill-rule="nonzero"/></g><path fill="#f5a30d" d="M 26.152344 33.761719 C 20.667969 31.394531 15.183594 29.027344 9.695312 26.660156 C 8.613281 26.195312 7.671875 27.792969 8.761719 28.261719 C 14.25 30.628906 19.734375 32.996094 25.222656 35.363281 C 26.304688 35.832031 27.246094 34.234375 26.152344 33.761719 " fill-opacity="1" fill-rule="nonzero"/><g clip-path="url(#e21063c125)"><path fill="#f5a30d" d="M 2.796875 30.820312 C 6.871094 32.578125 10.945312 34.339844 15.023438 36.097656 C 16.105469 36.566406 17.046875 34.964844 15.957031 34.496094 C 11.878906 32.738281 7.804688 30.976562 3.726562 29.21875 C 2.644531 28.75 1.703125 30.351562 2.796875 30.820312 " fill-opacity="1" fill-rule="nonzero"/></g><g clip-path="url(#d650f0428b)"><path fill="#f5a30d" d="M 25.222656 38.894531 C 17.746094 42.121094 10.269531 45.347656 2.796875 48.574219 C 3.257812 48.839844 3.722656 49.105469 4.1875 49.371094 L 4.1875 44.238281 C 4.03125 44.507812 3.878906 44.773438 3.726562 45.039062 C 11.203125 41.816406 18.679688 38.589844 26.152344 35.363281 C 25.6875 35.097656 25.226562 34.828125 24.761719 34.5625 L 24.761719 39.699219 C 24.761719 40.894531 26.609375 40.894531 26.609375 39.699219 L 26.609375 34.5625 C 26.609375 33.792969 25.839844 33.492188 25.21875 33.761719 C 17.746094 36.988281 10.269531 40.210938 2.792969 43.4375 C 2.503906 43.5625 2.335938 43.945312 2.335938 44.238281 C 2.335938 45.949219 2.335938 47.660156 2.335938 49.371094 C 2.335938 50.140625 3.105469 50.441406 3.726562 50.175781 C 11.203125 46.949219 18.675781 43.726562 26.152344 40.496094 C 27.246094 40.027344 26.300781 38.429688 25.21875 38.894531 " fill-opacity="1" fill-rule="nonzero"/></g><path fill="#f5a30d" d="M 26.152344 53.21875 C 20.667969 50.855469 15.183594 48.484375 9.695312 46.121094 C 8.613281 45.652344 7.671875 47.25 8.761719 47.722656 C 14.25 50.089844 19.734375 52.457031 25.222656 54.820312 C 26.304688 55.289062 27.246094 53.691406 26.152344 53.21875 " fill-opacity="1" fill-rule="nonzero"/><g clip-path="url(#de8e2d61d7)"><path fill="#f5a30d" d="M 2.796875 50.28125 C 6.871094 52.039062 10.945312 53.796875 15.023438 55.558594 C 16.105469 56.023438 17.046875 54.425781 15.957031 53.953125 C 11.878906 52.195312 7.804688 50.4375 3.726562 48.679688 C 2.644531 48.210938 1.703125 49.808594 2.796875 50.28125 " fill-opacity="1" fill-rule="nonzero"/></g><g clip-path="url(#0a6e8550c2)"><path fill="#f5a30d" d="M 25.222656 58.355469 C 17.746094 61.578125 10.269531 64.804688 2.796875 68.03125 C 3.257812 68.296875 3.722656 68.566406 4.1875 68.832031 L 4.1875 63.695312 C 4.03125 63.964844 3.878906 64.230469 3.726562 64.5 C 11.203125 61.273438 18.679688 58.046875 26.152344 54.820312 C 25.6875 54.554688 25.226562 54.289062 24.761719 54.023438 L 24.761719 59.15625 C 24.761719 60.351562 26.609375 60.351562 26.609375 59.15625 L 26.609375 54.023438 C 26.609375 53.253906 25.839844 52.953125 25.21875 53.21875 C 17.746094 56.445312 10.269531 59.671875 2.792969 62.898438 C 2.503906 63.023438 2.335938 63.402344 2.335938 63.695312 C 2.335938 65.410156 2.335938 67.121094 2.335938 68.832031 C 2.335938 69.601562 3.105469 69.902344 3.726562 69.632812 C 11.203125 66.40625 18.675781 63.183594 26.152344 59.957031 C 27.246094 59.484375 26.300781 57.886719 25.21875 58.355469 " fill-opacity="1" fill-rule="nonzero"/></g><g clip-path="url(#b70096316e)"><path fill="#f5a30d" d="M 2.796875 69.960938 C 10.269531 73.183594 17.746094 76.410156 25.222656 79.632812 C 25.839844 79.902344 26.613281 79.601562 26.613281 78.835938 L 26.613281 73.699219 C 26.613281 73.402344 26.441406 73.023438 26.152344 72.898438 C 21.785156 71.011719 17.414062 69.128906 13.046875 67.242188 C 11.964844 66.777344 11.019531 68.375 12.113281 68.84375 C 16.484375 70.730469 20.851562 72.613281 25.222656 74.5 C 25.066406 74.234375 24.914062 73.964844 24.761719 73.699219 L 24.761719 78.835938 C 25.226562 78.566406 25.6875 78.300781 26.152344 78.03125 C 18.679688 74.808594 11.203125 71.582031 3.730469 68.355469 C 2.644531 67.886719 1.703125 69.484375 2.792969 69.960938 " fill-opacity="1" fill-rule="nonzero"/></g><path fill="#f5a30d" d="M 63.65625 16.4375 L 63.65625 20.222656 C 63.65625 21.421875 65.503906 21.421875 65.503906 20.222656 L 65.503906 16.4375 C 65.503906 15.242188 63.65625 15.242188 63.65625 16.4375 " fill-opacity="1" fill-rule="nonzero"/><path fill="#f5a30d" d="M 66.398438 17.402344 L 62.625 17.402344 C 61.433594 17.402344 61.433594 19.257812 62.625 19.257812 L 66.398438 19.257812 C 67.589844 19.257812 67.589844 17.402344 66.398438 17.402344 " fill-opacity="1" fill-rule="nonzero"/><path fill="#f5a30d" d="M 44.417969 66.9375 L 44.417969 70.726562 C 44.417969 71.921875 46.269531 71.921875 46.269531 70.726562 L 46.269531 66.9375 C 46.269531 65.742188 44.417969 65.742188 44.417969 66.9375 " fill-opacity="1" fill-rule="nonzero"/><path fill="#f5a30d" d="M 47.160156 67.90625 L 43.390625 67.90625 C 42.199219 67.90625 42.199219 69.761719 43.390625 69.761719 L 47.160156 69.761719 C 48.355469 69.761719 48.355469 67.90625 47.160156 67.90625 " fill-opacity="1" fill-rule="nonzero"/><g fill="#ec6171" fill-opacity="1"><g transform="translate(86.366671, 71.582975)"><g><path d="M 1.75 -25.421875 C 1.75 -25.046875 1.75 -24.671875 1.75 -24.296875 C 1.75 -23.929688 1.773438 -23.5625 1.828125 -23.1875 C 1.828125 -22.90625 1.828125 -22.632812 1.828125 -22.375 C 1.828125 -22.125 1.847656 -21.859375 1.890625 -21.578125 C 1.941406 -21.390625 1.96875 -21.1875 1.96875 -20.96875 C 1.96875 -20.757812 1.988281 -20.539062 2.03125 -20.3125 C 2.070312 -20.175781 2.128906 -20.046875 2.203125 -19.921875 C 2.273438 -19.804688 2.332031 -19.679688 2.375 -19.546875 C 2.375 -19.210938 2.398438 -18.953125 2.453125 -18.765625 C 2.492188 -18.671875 2.503906 -18.566406 2.484375 -18.453125 C 2.460938 -18.335938 2.472656 -18.234375 2.515625 -18.140625 L 2.734375 -17.4375 C 2.828125 -17.019531 2.96875 -16.597656 3.15625 -16.171875 C 3.34375 -15.753906 3.503906 -15.3125 3.640625 -14.84375 C 3.785156 -14.519531 3.972656 -14.171875 4.203125 -13.796875 C 4.429688 -13.421875 4.640625 -13.046875 4.828125 -12.671875 L 4.90625 -12.390625 C 5 -12.304688 5.078125 -12.21875 5.140625 -12.125 C 5.210938 -12.03125 5.273438 -11.9375 5.328125 -11.84375 C 5.460938 -11.601562 5.578125 -11.363281 5.671875 -11.125 C 5.765625 -10.894531 5.882812 -10.664062 6.03125 -10.4375 L 6.578125 -9.671875 C 7.003906 -9.148438 7.460938 -8.609375 7.953125 -8.046875 C 8.441406 -7.492188 8.921875 -7.003906 9.390625 -6.578125 C 9.671875 -6.347656 9.9375 -6.09375 10.1875 -5.8125 C 10.445312 -5.53125 10.71875 -5.273438 11 -5.046875 C 11.132812 -4.953125 11.269531 -4.84375 11.40625 -4.71875 C 11.550781 -4.601562 11.671875 -4.5 11.765625 -4.40625 C 11.910156 -4.3125 12.050781 -4.238281 12.1875 -4.1875 C 12.320312 -4.144531 12.460938 -4.082031 12.609375 -4 C 12.703125 -3.945312 12.945312 -3.753906 13.34375 -3.421875 C 13.738281 -3.097656 14.144531 -2.816406 14.5625 -2.578125 C 14.988281 -2.347656 15.269531 -2.28125 15.40625 -2.375 C 15.269531 -2.238281 15.316406 -2.125 15.546875 -2.03125 C 15.828125 -1.894531 16.117188 -1.78125 16.421875 -1.6875 C 16.722656 -1.59375 17.039062 -1.5 17.375 -1.40625 C 17.75 -1.3125 18.109375 -1.179688 18.453125 -1.015625 C 18.804688 -0.847656 19.144531 -0.695312 19.46875 -0.5625 C 19.894531 -0.375 20.269531 -0.253906 20.59375 -0.203125 C 20.6875 -0.160156 20.789062 -0.160156 20.90625 -0.203125 C 21.019531 -0.253906 21.101562 -0.253906 21.15625 -0.203125 C 21.289062 -0.160156 21.414062 -0.101562 21.53125 -0.03125 C 21.65625 0.03125 21.785156 0.0625 21.921875 0.0625 C 21.972656 0.113281 22.019531 0.125 22.0625 0.09375 C 22.113281 0.0703125 22.160156 0.0625 22.203125 0.0625 C 22.390625 0.113281 22.585938 0.160156 22.796875 0.203125 C 23.003906 0.253906 23.203125 0.300781 23.390625 0.34375 C 23.535156 0.34375 23.675781 0.332031 23.8125 0.3125 C 23.957031 0.289062 24.097656 0.300781 24.234375 0.34375 C 24.378906 0.4375 24.632812 0.484375 25 0.484375 C 25.375 0.484375 25.75 0.390625 26.125 0.203125 C 26.269531 0.203125 26.390625 0.15625 26.484375 0.0625 L 26.6875 -0.0625 C 26.738281 -0.15625 26.785156 -0.238281 26.828125 -0.3125 C 26.867188 -0.382812 26.890625 -0.441406 26.890625 -0.484375 C 26.984375 -0.671875 27.019531 -0.90625 27 -1.1875 C 26.976562 -1.46875 26.96875 -1.703125 26.96875 -1.890625 C 27.007812 -2.171875 27.03125 -2.453125 27.03125 -2.734375 C 27.03125 -3.015625 27.03125 -3.296875 27.03125 -3.578125 C 27.082031 -3.898438 27.109375 -4.203125 27.109375 -4.484375 C 27.109375 -4.765625 27.109375 -5.066406 27.109375 -5.390625 C 27.109375 -5.671875 27.109375 -5.953125 27.109375 -6.234375 C 27.109375 -6.515625 27.082031 -6.796875 27.03125 -7.078125 L 27.03125 -7.359375 C 27.03125 -7.453125 27.03125 -7.53125 27.03125 -7.59375 C 27.03125 -7.664062 27.03125 -7.726562 27.03125 -7.78125 C 27.03125 -7.875 27.019531 -7.976562 27 -8.09375 C 26.976562 -8.207031 26.921875 -8.359375 26.828125 -8.546875 C 26.785156 -8.640625 26.738281 -8.707031 26.6875 -8.75 C 26.644531 -8.800781 26.578125 -8.847656 26.484375 -8.890625 C 26.242188 -9.128906 26.054688 -9.269531 25.921875 -9.3125 C 25.640625 -9.40625 25.3125 -9.5 24.9375 -9.59375 C 24.84375 -9.644531 24.722656 -9.671875 24.578125 -9.671875 C 24.441406 -9.671875 24.304688 -9.691406 24.171875 -9.734375 C 23.890625 -9.734375 23.703125 -9.757812 23.609375 -9.8125 C 22.953125 -9.945312 22.296875 -10.140625 21.640625 -10.390625 C 20.984375 -10.648438 20.351562 -10.945312 19.75 -11.28125 C 19.332031 -11.507812 18.890625 -11.75 18.421875 -12 C 17.953125 -12.257812 17.53125 -12.53125 17.15625 -12.8125 C 17.019531 -12.957031 16.90625 -13.109375 16.8125 -13.265625 C 16.71875 -13.429688 16.601562 -13.5625 16.46875 -13.65625 C 16.132812 -13.988281 15.828125 -14.289062 15.546875 -14.5625 C 15.265625 -14.84375 15.007812 -15.148438 14.78125 -15.484375 C 14.632812 -15.710938 14.46875 -15.921875 14.28125 -16.109375 C 14.101562 -16.296875 13.96875 -16.484375 13.875 -16.671875 L 13.375 -17.515625 C 13.375 -17.554688 13.375 -17.585938 13.375 -17.609375 C 13.375 -17.640625 13.375 -17.675781 13.375 -17.71875 C 13.332031 -17.8125 13.273438 -17.90625 13.203125 -18 C 13.128906 -18.09375 13.09375 -18.1875 13.09375 -18.28125 C 13.050781 -18.375 13.039062 -18.453125 13.0625 -18.515625 C 13.082031 -18.585938 13.09375 -18.648438 13.09375 -18.703125 C 13.09375 -18.835938 13.164062 -18.976562 13.3125 -19.125 C 13.40625 -19.3125 13.546875 -19.425781 13.734375 -19.46875 C 13.867188 -19.5625 14.015625 -19.609375 14.171875 -19.609375 C 14.335938 -19.609375 14.492188 -19.609375 14.640625 -19.609375 C 15.296875 -19.609375 15.960938 -19.597656 16.640625 -19.578125 C 17.316406 -19.554688 18.003906 -19.546875 18.703125 -19.546875 C 19.359375 -19.546875 20.023438 -19.566406 20.703125 -19.609375 C 21.378906 -19.660156 22.019531 -19.660156 22.625 -19.609375 C 22.851562 -19.566406 23.0625 -19.546875 23.25 -19.546875 C 23.4375 -19.546875 23.625 -19.546875 23.8125 -19.546875 C 24.144531 -19.546875 24.445312 -19.578125 24.71875 -19.640625 C 25 -19.710938 25.28125 -19.84375 25.5625 -20.03125 C 25.9375 -20.3125 26.144531 -20.71875 26.1875 -21.25 C 26.238281 -21.789062 26.265625 -22.25 26.265625 -22.625 C 26.265625 -22.71875 26.238281 -22.773438 26.1875 -22.796875 C 26.144531 -22.816406 26.125 -22.851562 26.125 -22.90625 C 26.125 -22.90625 26.132812 -22.914062 26.15625 -22.9375 C 26.1875 -22.957031 26.203125 -22.992188 26.203125 -23.046875 L 26.203125 -25.640625 C 26.203125 -25.867188 26.203125 -26.125 26.203125 -26.40625 C 26.203125 -26.6875 26.203125 -26.941406 26.203125 -27.171875 C 26.203125 -27.316406 26.203125 -27.46875 26.203125 -27.625 C 26.203125 -27.789062 26.175781 -27.945312 26.125 -28.09375 C 26.03125 -28.601562 25.773438 -29 25.359375 -29.28125 C 25.304688 -29.28125 25.257812 -29.300781 25.21875 -29.34375 C 25.03125 -29.4375 24.769531 -29.484375 24.4375 -29.484375 C 24.113281 -29.484375 23.835938 -29.484375 23.609375 -29.484375 L 23.46875 -29.484375 C 23.1875 -29.484375 22.90625 -29.503906 22.625 -29.546875 C 22.34375 -29.597656 22.0625 -29.625 21.78125 -29.625 C 21.457031 -29.582031 21.144531 -29.5625 20.84375 -29.5625 C 20.539062 -29.5625 20.203125 -29.5625 19.828125 -29.5625 C 19.171875 -29.507812 18.503906 -29.484375 17.828125 -29.484375 C 17.148438 -29.484375 16.484375 -29.484375 15.828125 -29.484375 C 15.785156 -29.484375 15.75 -29.503906 15.71875 -29.546875 C 15.695312 -29.597656 15.664062 -29.601562 15.625 -29.5625 L 15.40625 -29.5625 C 15.40625 -29.5625 15.382812 -29.5625 15.34375 -29.5625 C 15.195312 -29.5625 15.039062 -29.570312 14.875 -29.59375 C 14.71875 -29.613281 14.566406 -29.625 14.421875 -29.625 C 14.285156 -29.625 14.160156 -29.613281 14.046875 -29.59375 C 13.929688 -29.570312 13.800781 -29.582031 13.65625 -29.625 C 13.519531 -29.71875 13.40625 -29.835938 13.3125 -29.984375 C 13.257812 -30.078125 13.234375 -30.15625 13.234375 -30.21875 C 13.234375 -30.289062 13.234375 -30.351562 13.234375 -30.40625 C 13.234375 -30.445312 13.207031 -30.488281 13.15625 -30.53125 C 13.113281 -30.582031 13.09375 -30.632812 13.09375 -30.6875 L 13.375 -31.171875 C 13.46875 -31.304688 13.523438 -31.441406 13.546875 -31.578125 C 13.578125 -31.722656 13.613281 -31.867188 13.65625 -32.015625 C 14.6875 -33.835938 16.085938 -35.390625 17.859375 -36.671875 C 19.640625 -37.953125 21.53125 -38.828125 23.53125 -39.296875 L 24.515625 -39.5 C 24.609375 -39.5 24.6875 -39.488281 24.75 -39.46875 C 24.820312 -39.445312 24.882812 -39.457031 24.9375 -39.5 L 25.21875 -39.5 C 26.007812 -39.59375 26.507812 -39.921875 26.71875 -40.484375 C 26.925781 -41.046875 27.054688 -41.65625 27.109375 -42.3125 C 27.148438 -42.632812 27.171875 -42.96875 27.171875 -43.3125 C 27.171875 -43.664062 27.171875 -44.007812 27.171875 -44.34375 C 27.171875 -45.550781 27.101562 -46.738281 26.96875 -47.90625 C 26.914062 -48 26.890625 -48.113281 26.890625 -48.25 C 26.890625 -48.394531 26.847656 -48.515625 26.765625 -48.609375 C 26.578125 -48.984375 26.296875 -49.226562 25.921875 -49.34375 C 25.546875 -49.457031 25.171875 -49.492188 24.796875 -49.453125 C 24.609375 -49.410156 24.441406 -49.398438 24.296875 -49.421875 C 24.160156 -49.441406 24 -49.429688 23.8125 -49.390625 C 23.71875 -49.390625 23.613281 -49.363281 23.5 -49.3125 C 23.382812 -49.269531 23.28125 -49.25 23.1875 -49.25 C 23 -49.195312 22.820312 -49.171875 22.65625 -49.171875 C 22.5 -49.171875 22.347656 -49.171875 22.203125 -49.171875 L 20.796875 -48.828125 C 20.617188 -48.828125 20.484375 -48.800781 20.390625 -48.75 C 20.335938 -48.707031 20.273438 -48.660156 20.203125 -48.609375 C 20.140625 -48.566406 20.0625 -48.546875 19.96875 -48.546875 C 19.914062 -48.492188 19.851562 -48.46875 19.78125 -48.46875 C 19.71875 -48.46875 19.640625 -48.445312 19.546875 -48.40625 C 19.492188 -48.40625 19.441406 -48.414062 19.390625 -48.4375 C 19.347656 -48.457031 19.304688 -48.445312 19.265625 -48.40625 C 19.078125 -48.40625 18.957031 -48.378906 18.90625 -48.328125 C 18.863281 -48.328125 18.816406 -48.289062 18.765625 -48.21875 C 18.722656 -48.15625 18.65625 -48.125 18.5625 -48.125 C 18.425781 -48.070312 18.273438 -48.019531 18.109375 -47.96875 C 17.941406 -47.925781 17.789062 -47.882812 17.65625 -47.84375 C 17.507812 -47.789062 17.351562 -47.738281 17.1875 -47.6875 C 17.03125 -47.644531 16.859375 -47.578125 16.671875 -47.484375 C 16.617188 -47.484375 16.582031 -47.460938 16.5625 -47.421875 C 16.539062 -47.378906 16.484375 -47.359375 16.390625 -47.359375 C 16.347656 -47.304688 16.28125 -47.269531 16.1875 -47.25 C 16.09375 -47.226562 16 -47.171875 15.90625 -47.078125 C 15.71875 -47.023438 15.53125 -46.90625 15.34375 -46.71875 C 15.25 -46.71875 15.203125 -46.71875 15.203125 -46.71875 C 15.148438 -46.71875 15.125 -46.691406 15.125 -46.640625 C 15.125 -46.597656 15.101562 -46.554688 15.0625 -46.515625 C 14.96875 -46.460938 14.859375 -46.410156 14.734375 -46.359375 C 14.617188 -46.316406 14.515625 -46.273438 14.421875 -46.234375 C 14.378906 -46.179688 14.300781 -46.144531 14.1875 -46.125 C 14.070312 -46.101562 13.96875 -46.066406 13.875 -46.015625 L 11.703125 -44.546875 C 11.648438 -44.503906 11.597656 -44.457031 11.546875 -44.40625 C 11.503906 -44.363281 11.460938 -44.316406 11.421875 -44.265625 C 11.140625 -44.078125 10.925781 -43.914062 10.78125 -43.78125 C 10.039062 -43.175781 9.304688 -42.472656 8.578125 -41.671875 C 7.859375 -40.878906 7.191406 -40.085938 6.578125 -39.296875 C 6.304688 -38.972656 6.039062 -38.597656 5.78125 -38.171875 C 5.519531 -37.753906 5.273438 -37.359375 5.046875 -36.984375 C 4.523438 -36.003906 4.039062 -34.976562 3.59375 -33.90625 C 3.15625 -32.832031 2.820312 -31.734375 2.59375 -30.609375 C 2.539062 -30.472656 2.441406 -30.097656 2.296875 -29.484375 C 2.160156 -28.878906 2.046875 -28.304688 1.953125 -27.765625 C 1.867188 -27.234375 1.875 -26.941406 1.96875 -26.890625 C 1.820312 -26.429688 1.75 -25.941406 1.75 -25.421875 Z M 1.75 -25.421875 "/></g></g></g><g fill="#ec6171" fill-opacity="1"><g transform="translate(117.043359, 71.582975)"><g><path d="M 32.5 -24.515625 C 32.5 -25.304688 32.519531 -26.097656 32.5625 -26.890625 C 32.613281 -27.691406 32.640625 -28.460938 32.640625 -29.203125 C 32.640625 -30.003906 32.628906 -30.800781 32.609375 -31.59375 C 32.585938 -32.382812 32.578125 -33.15625 32.578125 -33.90625 L 32.578125 -38.59375 C 32.578125 -39.382812 32.585938 -40.175781 32.609375 -40.96875 C 32.628906 -41.769531 32.640625 -42.566406 32.640625 -43.359375 C 32.640625 -44.148438 32.628906 -44.929688 32.609375 -45.703125 C 32.585938 -46.472656 32.578125 -47.253906 32.578125 -48.046875 C 32.578125 -48.097656 32.5625 -48.132812 32.53125 -48.15625 C 32.507812 -48.175781 32.5 -48.210938 32.5 -48.265625 C 32.457031 -48.359375 32.445312 -48.425781 32.46875 -48.46875 C 32.488281 -48.519531 32.476562 -48.566406 32.4375 -48.609375 C 32.4375 -48.796875 32.390625 -48.9375 32.296875 -49.03125 L 31.9375 -49.03125 C 31.65625 -49.03125 31.128906 -49.03125 30.359375 -49.03125 C 29.585938 -49.03125 28.75 -49.019531 27.84375 -49 C 26.9375 -48.976562 26.128906 -48.96875 25.421875 -48.96875 C 24.722656 -48.96875 24.328125 -48.96875 24.234375 -48.96875 L 24.09375 -48.96875 C 23.8125 -48.96875 23.625 -48.847656 23.53125 -48.609375 L 23.53125 -48.046875 C 23.53125 -47.160156 23.550781 -46.285156 23.59375 -45.421875 C 23.644531 -44.554688 23.671875 -43.660156 23.671875 -42.734375 C 23.671875 -41.835938 23.660156 -40.957031 23.640625 -40.09375 C 23.617188 -39.238281 23.609375 -38.34375 23.609375 -37.40625 C 23.609375 -36.519531 23.582031 -35.644531 23.53125 -34.78125 C 23.488281 -33.914062 23.46875 -33.015625 23.46875 -32.078125 C 23.46875 -31.191406 23.488281 -30.316406 23.53125 -29.453125 C 23.582031 -28.585938 23.609375 -27.691406 23.609375 -26.765625 C 23.609375 -25.867188 23.582031 -24.988281 23.53125 -24.125 C 23.488281 -23.257812 23.46875 -22.363281 23.46875 -21.4375 C 23.46875 -20.550781 23.5 -19.675781 23.5625 -18.8125 C 23.632812 -17.945312 23.671875 -17.046875 23.671875 -16.109375 C 23.671875 -15.222656 23.644531 -14.347656 23.59375 -13.484375 C 23.550781 -12.617188 23.53125 -11.71875 23.53125 -10.78125 C 23.53125 -10.738281 23.519531 -10.671875 23.5 -10.578125 C 23.476562 -10.484375 23.488281 -10.390625 23.53125 -10.296875 L 23.53125 -10.234375 C 23.53125 -10.179688 23.539062 -10.128906 23.5625 -10.078125 C 23.59375 -10.035156 23.582031 -9.96875 23.53125 -9.875 C 23.53125 -9.832031 23.484375 -9.765625 23.390625 -9.671875 C 23.390625 -9.523438 23.34375 -9.429688 23.25 -9.390625 C 23.15625 -9.335938 22.992188 -9.3125 22.765625 -9.3125 C 22.484375 -9.3125 22.296875 -9.335938 22.203125 -9.390625 C 22.066406 -9.390625 21.914062 -9.390625 21.75 -9.390625 C 21.582031 -9.390625 21.429688 -9.410156 21.296875 -9.453125 C 21.148438 -9.503906 21.019531 -9.578125 20.90625 -9.671875 C 20.789062 -9.765625 20.664062 -9.832031 20.53125 -9.875 C 20.34375 -9.96875 20.128906 -10.035156 19.890625 -10.078125 C 19.660156 -10.128906 19.425781 -10.179688 19.1875 -10.234375 C 18.957031 -10.367188 18.703125 -10.492188 18.421875 -10.609375 C 18.140625 -10.722656 17.882812 -10.851562 17.65625 -11 C 17.46875 -11.132812 17.289062 -11.285156 17.125 -11.453125 C 16.957031 -11.617188 16.78125 -11.769531 16.59375 -11.90625 L 16.1875 -12.328125 C 16.132812 -12.367188 16.015625 -12.4375 15.828125 -12.53125 C 15.828125 -12.625 15.828125 -12.671875 15.828125 -12.671875 C 15.828125 -12.671875 15.757812 -12.742188 15.625 -12.890625 L 15.265625 -13.234375 C 15.222656 -13.328125 15.164062 -13.441406 15.09375 -13.578125 C 15.019531 -13.722656 14.9375 -13.84375 14.84375 -13.9375 C 14.75 -14.082031 14.664062 -14.222656 14.59375 -14.359375 C 14.53125 -14.492188 14.453125 -14.632812 14.359375 -14.78125 C 14.316406 -14.914062 14.25 -15.050781 14.15625 -15.1875 C 14.0625 -15.332031 13.988281 -15.476562 13.9375 -15.625 C 13.84375 -15.8125 13.738281 -15.960938 13.625 -16.078125 C 13.507812 -16.191406 13.425781 -16.34375 13.375 -16.53125 C 13.1875 -17 13.046875 -17.515625 12.953125 -18.078125 C 12.910156 -18.304688 12.890625 -18.546875 12.890625 -18.796875 C 12.890625 -19.054688 12.863281 -19.304688 12.8125 -19.546875 C 12.675781 -20.472656 12.609375 -21.359375 12.609375 -22.203125 L 12.609375 -27.390625 C 12.609375 -28.273438 12.617188 -29.148438 12.640625 -30.015625 C 12.660156 -30.878906 12.671875 -31.734375 12.671875 -32.578125 C 12.671875 -33.460938 12.644531 -34.335938 12.59375 -35.203125 C 12.550781 -36.066406 12.53125 -36.914062 12.53125 -37.75 C 12.53125 -38.644531 12.539062 -39.519531 12.5625 -40.375 C 12.59375 -41.238281 12.609375 -42.09375 12.609375 -42.9375 C 12.609375 -43.820312 12.582031 -44.695312 12.53125 -45.5625 C 12.488281 -46.425781 12.46875 -47.28125 12.46875 -48.125 L 12.46875 -48.546875 C 12.414062 -48.679688 12.320312 -48.773438 12.1875 -48.828125 C 12.144531 -48.828125 12.097656 -48.859375 12.046875 -48.921875 C 12.003906 -48.992188 11.957031 -49.03125 11.90625 -49.03125 C 11.300781 -49.03125 10.671875 -49.019531 10.015625 -49 C 9.359375 -48.976562 8.707031 -48.96875 8.0625 -48.96875 C 7.445312 -48.96875 6.820312 -48.953125 6.1875 -48.921875 C 5.5625 -48.898438 4.921875 -48.890625 4.265625 -48.890625 C 4.222656 -48.890625 4.203125 -48.898438 4.203125 -48.921875 C 4.203125 -48.953125 4.175781 -48.96875 4.125 -48.96875 C 3.945312 -48.96875 3.8125 -48.828125 3.71875 -48.546875 C 3.625 -48.359375 3.578125 -48.21875 3.578125 -48.125 C 3.578125 -47.375 3.5625 -46.613281 3.53125 -45.84375 C 3.507812 -45.070312 3.5 -44.289062 3.5 -43.5 C 3.5 -42.75 3.519531 -42 3.5625 -41.25 C 3.613281 -40.507812 3.640625 -39.742188 3.640625 -38.953125 C 3.640625 -38.203125 3.628906 -37.441406 3.609375 -36.671875 C 3.585938 -35.898438 3.578125 -35.117188 3.578125 -34.328125 L 3.578125 -29.765625 C 3.578125 -29.023438 3.578125 -28.269531 3.578125 -27.5 C 3.578125 -26.726562 3.578125 -25.96875 3.578125 -25.21875 C 3.578125 -24.050781 3.585938 -22.882812 3.609375 -21.71875 C 3.628906 -20.550781 3.710938 -19.382812 3.859375 -18.21875 L 4.0625 -17.234375 C 4.101562 -16.992188 4.132812 -16.757812 4.15625 -16.53125 C 4.1875 -16.300781 4.222656 -16.066406 4.265625 -15.828125 C 4.359375 -15.453125 4.472656 -15.078125 4.609375 -14.703125 C 4.753906 -14.335938 4.898438 -13.96875 5.046875 -13.59375 C 5.140625 -13.40625 5.21875 -13.21875 5.28125 -13.03125 C 5.351562 -12.84375 5.4375 -12.65625 5.53125 -12.46875 C 5.582031 -12.28125 5.628906 -12.101562 5.671875 -11.9375 C 5.722656 -11.78125 5.769531 -11.628906 5.8125 -11.484375 C 5.863281 -11.390625 5.945312 -11.285156 6.0625 -11.171875 C 6.175781 -11.054688 6.253906 -10.953125 6.296875 -10.859375 C 6.390625 -10.671875 6.457031 -10.492188 6.5 -10.328125 C 6.550781 -10.171875 6.625 -10 6.71875 -9.8125 C 6.769531 -9.71875 6.828125 -9.632812 6.890625 -9.5625 C 6.960938 -9.488281 7.023438 -9.40625 7.078125 -9.3125 C 7.171875 -9.125 7.296875 -8.957031 7.453125 -8.8125 C 7.617188 -8.675781 7.75 -8.515625 7.84375 -8.328125 C 7.9375 -8.148438 8.039062 -7.96875 8.15625 -7.78125 C 8.269531 -7.59375 8.398438 -7.425781 8.546875 -7.28125 C 8.640625 -7.144531 8.734375 -7.03125 8.828125 -6.9375 C 8.921875 -6.84375 9.015625 -6.75 9.109375 -6.65625 C 9.203125 -6.5625 9.304688 -6.476562 9.421875 -6.40625 C 9.535156 -6.332031 9.617188 -6.253906 9.671875 -6.171875 L 9.875 -5.953125 C 9.925781 -5.953125 9.953125 -5.925781 9.953125 -5.875 C 9.953125 -5.832031 9.972656 -5.789062 10.015625 -5.75 C 10.160156 -5.601562 10.3125 -5.484375 10.46875 -5.390625 C 10.632812 -5.296875 10.785156 -5.179688 10.921875 -5.046875 C 11.066406 -4.953125 11.207031 -4.820312 11.34375 -4.65625 C 11.488281 -4.488281 11.65625 -4.359375 11.84375 -4.265625 C 12.070312 -4.085938 12.289062 -3.925781 12.5 -3.78125 C 12.707031 -3.644531 12.90625 -3.503906 13.09375 -3.359375 C 13.375 -3.171875 13.65625 -2.992188 13.9375 -2.828125 C 14.21875 -2.671875 14.5 -2.519531 14.78125 -2.375 C 15.007812 -2.28125 15.226562 -2.195312 15.4375 -2.125 C 15.65625 -2.0625 15.859375 -1.984375 16.046875 -1.890625 C 16.140625 -1.847656 16.242188 -1.789062 16.359375 -1.71875 C 16.472656 -1.644531 16.597656 -1.585938 16.734375 -1.546875 C 16.878906 -1.492188 17.03125 -1.441406 17.1875 -1.390625 C 17.351562 -1.347656 17.53125 -1.28125 17.71875 -1.1875 C 17.957031 -1.144531 18.164062 -1.085938 18.34375 -1.015625 C 18.53125 -0.941406 18.71875 -0.882812 18.90625 -0.84375 L 19.828125 -0.625 C 19.960938 -0.582031 20.097656 -0.5625 20.234375 -0.5625 C 20.378906 -0.5625 20.519531 -0.535156 20.65625 -0.484375 C 20.75 -0.441406 20.863281 -0.394531 21 -0.34375 C 21.144531 -0.300781 21.265625 -0.28125 21.359375 -0.28125 C 21.597656 -0.226562 21.8125 -0.203125 22 -0.203125 C 22.1875 -0.203125 22.375 -0.203125 22.5625 -0.203125 C 22.695312 -0.160156 22.953125 -0.140625 23.328125 -0.140625 C 24.023438 -0.0859375 24.441406 -0.0507812 24.578125 -0.03125 C 24.722656 -0.0078125 24.804688 -0.0078125 24.828125 -0.03125 C 24.847656 -0.0507812 25.023438 -0.0625 25.359375 -0.0625 L 25.78125 -0.0625 C 25.875 -0.113281 26.0625 -0.140625 26.34375 -0.140625 C 27.226562 -0.140625 28.085938 -0.113281 28.921875 -0.0625 C 29.765625 -0.0195312 30.609375 0 31.453125 0 L 31.65625 -0.140625 C 31.75 -0.0859375 31.832031 -0.0703125 31.90625 -0.09375 C 31.976562 -0.125 32.035156 -0.140625 32.078125 -0.140625 C 32.359375 -0.140625 32.5 -0.28125 32.5 -0.5625 C 32.5 -0.65625 32.519531 -0.734375 32.5625 -0.796875 C 32.613281 -0.867188 32.640625 -0.953125 32.640625 -1.046875 C 32.640625 -1.835938 32.628906 -2.617188 32.609375 -3.390625 C 32.585938 -4.160156 32.578125 -4.945312 32.578125 -5.75 L 32.578125 -10.4375 C 32.578125 -11.226562 32.5625 -12.019531 32.53125 -12.8125 C 32.507812 -13.613281 32.5 -14.382812 32.5 -15.125 L 32.5 -19.828125 C 32.5 -20.617188 32.5 -21.410156 32.5 -22.203125 C 32.5 -22.992188 32.5 -23.765625 32.5 -24.515625 Z M 32.5 -24.515625 "/></g></g></g><g fill="#ec6171" fill-opacity="1"><g transform="translate(154.2336, 71.582975)"><g><path d="M 1.75 -25.421875 C 1.75 -25.046875 1.75 -24.671875 1.75 -24.296875 C 1.75 -23.929688 1.773438 -23.5625 1.828125 -23.1875 C 1.828125 -22.90625 1.828125 -22.632812 1.828125 -22.375 C 1.828125 -22.125 1.847656 -21.859375 1.890625 -21.578125 C 1.941406 -21.390625 1.96875 -21.1875 1.96875 -20.96875 C 1.96875 -20.757812 1.988281 -20.539062 2.03125 -20.3125 C 2.070312 -20.175781 2.128906 -20.046875 2.203125 -19.921875 C 2.273438 -19.804688 2.332031 -19.679688 2.375 -19.546875 C 2.375 -19.210938 2.398438 -18.953125 2.453125 -18.765625 C 2.492188 -18.671875 2.503906 -18.566406 2.484375 -18.453125 C 2.460938 -18.335938 2.472656 -18.234375 2.515625 -18.140625 L 2.734375 -17.4375 C 2.828125 -17.019531 2.96875 -16.597656 3.15625 -16.171875 C 3.34375 -15.753906 3.503906 -15.3125 3.640625 -14.84375 C 3.785156 -14.519531 3.972656 -14.171875 4.203125 -13.796875 C 4.429688 -13.421875 4.640625 -13.046875 4.828125 -12.671875 L 4.90625 -12.390625 C 5 -12.304688 5.078125 -12.21875 5.140625 -12.125 C 5.210938 -12.03125 5.273438 -11.9375 5.328125 -11.84375 C 5.460938 -11.601562 5.578125 -11.363281 5.671875 -11.125 C 5.765625 -10.894531 5.882812 -10.664062 6.03125 -10.4375 L 6.578125 -9.671875 C 7.003906 -9.148438 7.460938 -8.609375 7.953125 -8.046875 C 8.441406 -7.492188 8.921875 -7.003906 9.390625 -6.578125 C 9.671875 -6.347656 9.9375 -6.09375 10.1875 -5.8125 C 10.445312 -5.53125 10.71875 -5.273438 11 -5.046875 C 11.132812 -4.953125 11.269531 -4.84375 11.40625 -4.71875 C 11.550781 -4.601562 11.671875 -4.5 11.765625 -4.40625 C 11.910156 -4.3125 12.050781 -4.238281 12.1875 -4.1875 C 12.320312 -4.144531 12.460938 -4.082031 12.609375 -4 C 12.703125 -3.945312 12.945312 -3.753906 13.34375 -3.421875 C 13.738281 -3.097656 14.144531 -2.816406 14.5625 -2.578125 C 14.988281 -2.347656 15.269531 -2.28125 15.40625 -2.375 C 15.269531 -2.238281 15.316406 -2.125 15.546875 -2.03125 C 15.828125 -1.894531 16.117188 -1.78125 16.421875 -1.6875 C 16.722656 -1.59375 17.039062 -1.5 17.375 -1.40625 C 17.75 -1.3125 18.109375 -1.179688 18.453125 -1.015625 C 18.804688 -0.847656 19.144531 -0.695312 19.46875 -0.5625 C 19.894531 -0.375 20.269531 -0.253906 20.59375 -0.203125 C 20.6875 -0.160156 20.789062 -0.160156 20.90625 -0.203125 C 21.019531 -0.253906 21.101562 -0.253906 21.15625 -0.203125 C 21.289062 -0.160156 21.414062 -0.101562 21.53125 -0.03125 C 21.65625 0.03125 21.785156 0.0625 21.921875 0.0625 C 21.972656 0.113281 22.019531 0.125 22.0625 0.09375 C 22.113281 0.0703125 22.160156 0.0625 22.203125 0.0625 C 22.390625 0.113281 22.585938 0.160156 22.796875 0.203125 C 23.003906 0.253906 23.203125 0.300781 23.390625 0.34375 C 23.535156 0.34375 23.675781 0.332031 23.8125 0.3125 C 23.957031 0.289062 24.097656 0.300781 24.234375 0.34375 C 24.378906 0.4375 24.632812 0.484375 25 0.484375 C 25.375 0.484375 25.75 0.390625 26.125 0.203125 C 26.269531 0.203125 26.390625 0.15625 26.484375 0.0625 L 26.6875 -0.0625 C 26.738281 -0.15625 26.785156 -0.238281 26.828125 -0.3125 C 26.867188 -0.382812 26.890625 -0.441406 26.890625 -0.484375 C 26.984375 -0.671875 27.019531 -0.90625 27 -1.1875 C 26.976562 -1.46875 26.96875 -1.703125 26.96875 -1.890625 C 27.007812 -2.171875 27.03125 -2.453125 27.03125 -2.734375 C 27.03125 -3.015625 27.03125 -3.296875 27.03125 -3.578125 C 27.082031 -3.898438 27.109375 -4.203125 27.109375 -4.484375 C 27.109375 -4.765625 27.109375 -5.066406 27.109375 -5.390625 C 27.109375 -5.671875 27.109375 -5.953125 27.109375 -6.234375 C 27.109375 -6.515625 27.082031 -6.796875 27.03125 -7.078125 L 27.03125 -7.359375 C 27.03125 -7.453125 27.03125 -7.53125 27.03125 -7.59375 C 27.03125 -7.664062 27.03125 -7.726562 27.03125 -7.78125 C 27.03125 -7.875 27.019531 -7.976562 27 -8.09375 C 26.976562 -8.207031 26.921875 -8.359375 26.828125 -8.546875 C 26.785156 -8.640625 26.738281 -8.707031 26.6875 -8.75 C 26.644531 -8.800781 26.578125 -8.847656 26.484375 -8.890625 C 26.242188 -9.128906 26.054688 -9.269531 25.921875 -9.3125 C 25.640625 -9.40625 25.3125 -9.5 24.9375 -9.59375 C 24.84375 -9.644531 24.722656 -9.671875 24.578125 -9.671875 C 24.441406 -9.671875 24.304688 -9.691406 24.171875 -9.734375 C 23.890625 -9.734375 23.703125 -9.757812 23.609375 -9.8125 C 22.953125 -9.945312 22.296875 -10.140625 21.640625 -10.390625 C 20.984375 -10.648438 20.351562 -10.945312 19.75 -11.28125 C 19.332031 -11.507812 18.890625 -11.75 18.421875 -12 C 17.953125 -12.257812 17.53125 -12.53125 17.15625 -12.8125 C 17.019531 -12.957031 16.90625 -13.109375 16.8125 -13.265625 C 16.71875 -13.429688 16.601562 -13.5625 16.46875 -13.65625 C 16.132812 -13.988281 15.828125 -14.289062 15.546875 -14.5625 C 15.265625 -14.84375 15.007812 -15.148438 14.78125 -15.484375 C 14.632812 -15.710938 14.46875 -15.921875 14.28125 -16.109375 C 14.101562 -16.296875 13.96875 -16.484375 13.875 -16.671875 L 13.375 -17.515625 C 13.375 -17.554688 13.375 -17.585938 13.375 -17.609375 C 13.375 -17.640625 13.375 -17.675781 13.375 -17.71875 C 13.332031 -17.8125 13.273438 -17.90625 13.203125 -18 C 13.128906 -18.09375 13.09375 -18.1875 13.09375 -18.28125 C 13.050781 -18.375 13.039062 -18.453125 13.0625 -18.515625 C 13.082031 -18.585938 13.09375 -18.648438 13.09375 -18.703125 C 13.09375 -18.835938 13.164062 -18.976562 13.3125 -19.125 C 13.40625 -19.3125 13.546875 -19.425781 13.734375 -19.46875 C 13.867188 -19.5625 14.015625 -19.609375 14.171875 -19.609375 C 14.335938 -19.609375 14.492188 -19.609375 14.640625 -19.609375 C 15.296875 -19.609375 15.960938 -19.597656 16.640625 -19.578125 C 17.316406 -19.554688 18.003906 -19.546875 18.703125 -19.546875 C 19.359375 -19.546875 20.023438 -19.566406 20.703125 -19.609375 C 21.378906 -19.660156 22.019531 -19.660156 22.625 -19.609375 C 22.851562 -19.566406 23.0625 -19.546875 23.25 -19.546875 C 23.4375 -19.546875 23.625 -19.546875 23.8125 -19.546875 C 24.144531 -19.546875 24.445312 -19.578125 24.71875 -19.640625 C 25 -19.710938 25.28125 -19.84375 25.5625 -20.03125 C 25.9375 -20.3125 26.144531 -20.71875 26.1875 -21.25 C 26.238281 -21.789062 26.265625 -22.25 26.265625 -22.625 C 26.265625 -22.71875 26.238281 -22.773438 26.1875 -22.796875 C 26.144531 -22.816406 26.125 -22.851562 26.125 -22.90625 C 26.125 -22.90625 26.132812 -22.914062 26.15625 -22.9375 C 26.1875 -22.957031 26.203125 -22.992188 26.203125 -23.046875 L 26.203125 -25.640625 C 26.203125 -25.867188 26.203125 -26.125 26.203125 -26.40625 C 26.203125 -26.6875 26.203125 -26.941406 26.203125 -27.171875 C 26.203125 -27.316406 26.203125 -27.46875 26.203125 -27.625 C 26.203125 -27.789062 26.175781 -27.945312 26.125 -28.09375 C 26.03125 -28.601562 25.773438 -29 25.359375 -29.28125 C 25.304688 -29.28125 25.257812 -29.300781 25.21875 -29.34375 C 25.03125 -29.4375 24.769531 -29.484375 24.4375 -29.484375 C 24.113281 -29.484375 23.835938 -29.484375 23.609375 -29.484375 L 23.46875 -29.484375 C 23.1875 -29.484375 22.90625 -29.503906 22.625 -29.546875 C 22.34375 -29.597656 22.0625 -29.625 21.78125 -29.625 C 21.457031 -29.582031 21.144531 -29.5625 20.84375 -29.5625 C 20.539062 -29.5625 20.203125 -29.5625 19.828125 -29.5625 C 19.171875 -29.507812 18.503906 -29.484375 17.828125 -29.484375 C 17.148438 -29.484375 16.484375 -29.484375 15.828125 -29.484375 C 15.785156 -29.484375 15.75 -29.503906 15.71875 -29.546875 C 15.695312 -29.597656 15.664062 -29.601562 15.625 -29.5625 L 15.40625 -29.5625 C 15.40625 -29.5625 15.382812 -29.5625 15.34375 -29.5625 C 15.195312 -29.5625 15.039062 -29.570312 14.875 -29.59375 C 14.71875 -29.613281 14.566406 -29.625 14.421875 -29.625 C 14.285156 -29.625 14.160156 -29.613281 14.046875 -29.59375 C 13.929688 -29.570312 13.800781 -29.582031 13.65625 -29.625 C 13.519531 -29.71875 13.40625 -29.835938 13.3125 -29.984375 C 13.257812 -30.078125 13.234375 -30.15625 13.234375 -30.21875 C 13.234375 -30.289062 13.234375 -30.351562 13.234375 -30.40625 C 13.234375 -30.445312 13.207031 -30.488281 13.15625 -30.53125 C 13.113281 -30.582031 13.09375 -30.632812 13.09375 -30.6875 L 13.375 -31.171875 C 13.46875 -31.304688 13.523438 -31.441406 13.546875 -31.578125 C 13.578125 -31.722656 13.613281 -31.867188 13.65625 -32.015625 C 14.6875 -33.835938 16.085938 -35.390625 17.859375 -36.671875 C 19.640625 -37.953125 21.53125 -38.828125 23.53125 -39.296875 L 24.515625 -39.5 C 24.609375 -39.5 24.6875 -39.488281 24.75 -39.46875 C 24.820312 -39.445312 24.882812 -39.457031 24.9375 -39.5 L 25.21875 -39.5 C 26.007812 -39.59375 26.507812 -39.921875 26.71875 -40.484375 C 26.925781 -41.046875 27.054688 -41.65625 27.109375 -42.3125 C 27.148438 -42.632812 27.171875 -42.96875 27.171875 -43.3125 C 27.171875 -43.664062 27.171875 -44.007812 27.171875 -44.34375 C 27.171875 -45.550781 27.101562 -46.738281 26.96875 -47.90625 C 26.914062 -48 26.890625 -48.113281 26.890625 -48.25 C 26.890625 -48.394531 26.847656 -48.515625 26.765625 -48.609375 C 26.578125 -48.984375 26.296875 -49.226562 25.921875 -49.34375 C 25.546875 -49.457031 25.171875 -49.492188 24.796875 -49.453125 C 24.609375 -49.410156 24.441406 -49.398438 24.296875 -49.421875 C 24.160156 -49.441406 24 -49.429688 23.8125 -49.390625 C 23.71875 -49.390625 23.613281 -49.363281 23.5 -49.3125 C 23.382812 -49.269531 23.28125 -49.25 23.1875 -49.25 C 23 -49.195312 22.820312 -49.171875 22.65625 -49.171875 C 22.5 -49.171875 22.347656 -49.171875 22.203125 -49.171875 L 20.796875 -48.828125 C 20.617188 -48.828125 20.484375 -48.800781 20.390625 -48.75 C 20.335938 -48.707031 20.273438 -48.660156 20.203125 -48.609375 C 20.140625 -48.566406 20.0625 -48.546875 19.96875 -48.546875 C 19.914062 -48.492188 19.851562 -48.46875 19.78125 -48.46875 C 19.71875 -48.46875 19.640625 -48.445312 19.546875 -48.40625 C 19.492188 -48.40625 19.441406 -48.414062 19.390625 -48.4375 C 19.347656 -48.457031 19.304688 -48.445312 19.265625 -48.40625 C 19.078125 -48.40625 18.957031 -48.378906 18.90625 -48.328125 C 18.863281 -48.328125 18.816406 -48.289062 18.765625 -48.21875 C 18.722656 -48.15625 18.65625 -48.125 18.5625 -48.125 C 18.425781 -48.070312 18.273438 -48.019531 18.109375 -47.96875 C 17.941406 -47.925781 17.789062 -47.882812 17.65625 -47.84375 C 17.507812 -47.789062 17.351562 -47.738281 17.1875 -47.6875 C 17.03125 -47.644531 16.859375 -47.578125 16.671875 -47.484375 C 16.617188 -47.484375 16.582031 -47.460938 16.5625 -47.421875 C 16.539062 -47.378906 16.484375 -47.359375 16.390625 -47.359375 C 16.347656 -47.304688 16.28125 -47.269531 16.1875 -47.25 C 16.09375 -47.226562 16 -47.171875 15.90625 -47.078125 C 15.71875 -47.023438 15.53125 -46.90625 15.34375 -46.71875 C 15.25 -46.71875 15.203125 -46.71875 15.203125 -46.71875 C 15.148438 -46.71875 15.125 -46.691406 15.125 -46.640625 C 15.125 -46.597656 15.101562 -46.554688 15.0625 -46.515625 C 14.96875 -46.460938 14.859375 -46.410156 14.734375 -46.359375 C 14.617188 -46.316406 14.515625 -46.273438 14.421875 -46.234375 C 14.378906 -46.179688 14.300781 -46.144531 14.1875 -46.125 C 14.070312 -46.101562 13.96875 -46.066406 13.875 -46.015625 L 11.703125 -44.546875 C 11.648438 -44.503906 11.597656 -44.457031 11.546875 -44.40625 C 11.503906 -44.363281 11.460938 -44.316406 11.421875 -44.265625 C 11.140625 -44.078125 10.925781 -43.914062 10.78125 -43.78125 C 10.039062 -43.175781 9.304688 -42.472656 8.578125 -41.671875 C 7.859375 -40.878906 7.191406 -40.085938 6.578125 -39.296875 C 6.304688 -38.972656 6.039062 -38.597656 5.78125 -38.171875 C 5.519531 -37.753906 5.273438 -37.359375 5.046875 -36.984375 C 4.523438 -36.003906 4.039062 -34.976562 3.59375 -33.90625 C 3.15625 -32.832031 2.820312 -31.734375 2.59375 -30.609375 C 2.539062 -30.472656 2.441406 -30.097656 2.296875 -29.484375 C 2.160156 -28.878906 2.046875 -28.304688 1.953125 -27.765625 C 1.867188 -27.234375 1.875 -26.941406 1.96875 -26.890625 C 1.820312 -26.429688 1.75 -25.941406 1.75 -25.421875 Z M 1.75 -25.421875 "/></g></g></g><g fill="#ec6171" fill-opacity="1"><g transform="translate(184.910288, 71.582975)"><g><path d="M 12.671875 -0.0625 L 12.671875 0.0625 C 12.765625 0.0625 12.878906 0.0625 13.015625 0.0625 C 13.160156 0.0625 13.28125 0.0390625 13.375 0 C 13.5625 0 13.703125 -0.113281 13.796875 -0.34375 C 13.847656 -0.394531 13.847656 -0.453125 13.796875 -0.515625 C 13.753906 -0.585938 13.734375 -0.648438 13.734375 -0.703125 L 13.734375 -6.09375 C 13.734375 -6.882812 13.753906 -7.6875 13.796875 -8.5 C 13.847656 -9.320312 13.875 -10.109375 13.875 -10.859375 L 13.875 -15.6875 C 13.875 -16.476562 13.875 -17.28125 13.875 -18.09375 C 13.875 -18.914062 13.875 -19.703125 13.875 -20.453125 C 13.875 -21.242188 13.859375 -22.046875 13.828125 -22.859375 C 13.804688 -23.679688 13.796875 -24.488281 13.796875 -25.28125 C 13.796875 -26.082031 13.804688 -26.890625 13.828125 -27.703125 C 13.859375 -28.515625 13.875 -29.296875 13.875 -30.046875 C 13.875 -30.835938 13.859375 -31.640625 13.828125 -32.453125 C 13.804688 -33.273438 13.796875 -34.085938 13.796875 -34.890625 L 13.796875 -35.15625 C 13.796875 -35.4375 13.804688 -35.707031 13.828125 -35.96875 C 13.859375 -36.226562 13.875 -36.472656 13.875 -36.703125 C 13.914062 -36.796875 13.910156 -36.890625 13.859375 -36.984375 C 13.816406 -37.078125 13.820312 -37.144531 13.875 -37.1875 C 13.914062 -37.332031 14.097656 -37.40625 14.421875 -37.40625 L 14.421875 -37.46875 C 14.660156 -37.46875 14.800781 -37.445312 14.84375 -37.40625 C 14.894531 -37.40625 14.921875 -37.390625 14.921875 -37.359375 C 14.921875 -37.335938 14.941406 -37.328125 14.984375 -37.328125 C 15.265625 -37.148438 15.476562 -37.035156 15.625 -36.984375 C 15.851562 -36.796875 16.070312 -36.628906 16.28125 -36.484375 C 16.488281 -36.347656 16.6875 -36.1875 16.875 -36 C 17.113281 -35.8125 17.300781 -35.632812 17.4375 -35.46875 C 17.582031 -35.3125 17.722656 -35.164062 17.859375 -35.03125 L 18.078125 -34.8125 C 18.171875 -34.769531 18.25 -34.734375 18.3125 -34.703125 C 18.382812 -34.679688 18.445312 -34.625 18.5 -34.53125 C 18.726562 -34.300781 18.945312 -34.019531 19.15625 -33.6875 C 19.363281 -33.363281 19.5625 -33.085938 19.75 -32.859375 L 19.890625 -32.71875 C 19.941406 -32.664062 19.976562 -32.640625 20 -32.640625 C 20.019531 -32.640625 20.03125 -32.640625 20.03125 -32.640625 C 20.125 -32.546875 20.171875 -32.476562 20.171875 -32.4375 L 20.796875 -31.375 C 20.890625 -31.238281 20.972656 -31.097656 21.046875 -30.953125 C 21.117188 -30.816406 21.175781 -30.679688 21.21875 -30.546875 C 21.269531 -30.492188 21.296875 -30.421875 21.296875 -30.328125 C 21.578125 -29.765625 21.859375 -29.203125 22.140625 -28.640625 C 22.421875 -28.085938 22.648438 -27.503906 22.828125 -26.890625 C 22.878906 -26.804688 22.890625 -26.691406 22.859375 -26.546875 C 22.835938 -26.410156 22.851562 -26.25 22.90625 -26.0625 C 22.945312 -26.007812 22.988281 -25.972656 23.03125 -25.953125 C 23.082031 -25.929688 23.109375 -25.875 23.109375 -25.78125 C 23.203125 -25.59375 23.296875 -25.378906 23.390625 -25.140625 C 23.484375 -24.910156 23.554688 -24.679688 23.609375 -24.453125 C 23.703125 -23.984375 23.796875 -23.515625 23.890625 -23.046875 C 23.984375 -22.578125 24.050781 -22.109375 24.09375 -21.640625 L 24.09375 -21.578125 C 24.1875 -20.921875 24.3125 -20.265625 24.46875 -19.609375 C 24.632812 -18.953125 24.742188 -18.300781 24.796875 -17.65625 C 24.835938 -17.601562 24.847656 -17.53125 24.828125 -17.4375 C 24.804688 -17.34375 24.796875 -17.25 24.796875 -17.15625 C 25.023438 -15.195312 25.175781 -13.234375 25.25 -11.265625 C 25.320312 -9.304688 25.378906 -7.347656 25.421875 -5.390625 C 25.421875 -5.253906 25.375 -5.09375 25.28125 -4.90625 L 25.359375 -4.90625 C 25.359375 -4.90625 25.367188 -4.890625 25.390625 -4.859375 C 25.410156 -4.835938 25.421875 -4.828125 25.421875 -4.828125 L 25.359375 -4.765625 C 25.359375 -4.710938 25.359375 -4.675781 25.359375 -4.65625 C 25.359375 -4.632812 25.359375 -4.578125 25.359375 -4.484375 C 25.359375 -4.335938 25.378906 -4.179688 25.421875 -4.015625 C 25.472656 -3.859375 25.5 -3.6875 25.5 -3.5 L 25.5 -2.65625 C 25.5 -2.613281 25.472656 -2.554688 25.421875 -2.484375 C 25.378906 -2.410156 25.359375 -2.328125 25.359375 -2.234375 C 25.359375 -1.960938 25.378906 -1.695312 25.421875 -1.4375 C 25.472656 -1.175781 25.519531 -0.90625 25.5625 -0.625 C 25.5625 -0.582031 25.535156 -0.535156 25.484375 -0.484375 C 25.441406 -0.441406 25.421875 -0.394531 25.421875 -0.34375 C 25.472656 -0.15625 25.640625 -0.0625 25.921875 -0.0625 C 26.015625 -0.0625 26.09375 -0.0507812 26.15625 -0.03125 C 26.226562 -0.0078125 26.289062 0 26.34375 0 C 27.082031 0 27.8125 -0.0078125 28.53125 -0.03125 C 29.257812 -0.0507812 29.976562 -0.0625 30.6875 -0.0625 C 31.195312 -0.0625 31.695312 -0.0507812 32.1875 -0.03125 C 32.675781 -0.0078125 33.15625 0 33.625 0 L 34.109375 0.0625 C 34.390625 -0.0195312 34.578125 -0.203125 34.671875 -0.484375 C 34.671875 -0.535156 34.660156 -0.609375 34.640625 -0.703125 C 34.617188 -0.796875 34.609375 -0.863281 34.609375 -0.90625 C 34.609375 -1.789062 34.617188 -2.664062 34.640625 -3.53125 C 34.660156 -4.394531 34.671875 -5.273438 34.671875 -6.171875 C 34.671875 -7.054688 34.644531 -7.941406 34.59375 -8.828125 C 34.550781 -9.710938 34.53125 -10.597656 34.53125 -11.484375 C 34.53125 -12.367188 34.539062 -13.242188 34.5625 -14.109375 C 34.59375 -14.972656 34.609375 -15.847656 34.609375 -16.734375 C 34.609375 -18.835938 34.617188 -20.941406 34.640625 -23.046875 C 34.660156 -25.148438 34.671875 -27.25 34.671875 -29.34375 C 34.671875 -30.144531 34.660156 -30.726562 34.640625 -31.09375 C 34.617188 -31.46875 34.59375 -31.851562 34.5625 -32.25 C 34.539062 -32.65625 34.53125 -33.253906 34.53125 -34.046875 C 34.53125 -34.835938 34.539062 -35.421875 34.5625 -35.796875 C 34.59375 -36.171875 34.609375 -36.554688 34.609375 -36.953125 C 34.609375 -37.347656 34.609375 -37.921875 34.609375 -38.671875 L 34.609375 -43.28125 C 34.609375 -44.082031 34.617188 -44.664062 34.640625 -45.03125 C 34.660156 -45.40625 34.671875 -45.789062 34.671875 -46.1875 C 34.671875 -46.59375 34.671875 -47.164062 34.671875 -47.90625 C 34.671875 -48 34.644531 -48.082031 34.59375 -48.15625 C 34.550781 -48.226562 34.53125 -48.285156 34.53125 -48.328125 C 34.53125 -48.515625 34.507812 -48.65625 34.46875 -48.75 C 34.46875 -48.75 34.421875 -48.796875 34.328125 -48.890625 C 34.273438 -48.941406 34.210938 -48.988281 34.140625 -49.03125 C 34.078125 -49.082031 34 -49.109375 33.90625 -49.109375 L 29.84375 -49.109375 C 29.226562 -49.109375 28.601562 -49.09375 27.96875 -49.0625 C 27.34375 -49.039062 26.726562 -49.03125 26.125 -49.03125 C 26.082031 -49.03125 26.035156 -49.039062 25.984375 -49.0625 C 25.941406 -49.09375 25.875 -49.109375 25.78125 -49.109375 C 25.59375 -49.015625 25.5 -48.875 25.5 -48.6875 C 25.445312 -48.632812 25.429688 -48.570312 25.453125 -48.5 C 25.484375 -48.4375 25.5 -48.378906 25.5 -48.328125 L 25.5 -48.125 C 25.5 -48.125 25.507812 -48.125 25.53125 -48.125 C 25.550781 -48.125 25.5625 -48.125 25.5625 -48.125 L 25.5625 -48.046875 C 25.5625 -48.003906 25.550781 -47.96875 25.53125 -47.9375 C 25.507812 -47.914062 25.5 -47.882812 25.5 -47.84375 C 25.5 -47.5625 25.484375 -47.289062 25.453125 -47.03125 C 25.429688 -46.78125 25.421875 -46.515625 25.421875 -46.234375 C 25.421875 -45.765625 25.421875 -45.285156 25.421875 -44.796875 C 25.421875 -44.304688 25.398438 -43.800781 25.359375 -43.28125 C 25.359375 -43.238281 25.367188 -43.179688 25.390625 -43.109375 C 25.410156 -43.046875 25.421875 -42.988281 25.421875 -42.9375 C 25.328125 -42.613281 25.164062 -42.453125 24.9375 -42.453125 C 24.75 -42.453125 24.609375 -42.5 24.515625 -42.59375 C 24.472656 -42.632812 24.4375 -42.675781 24.40625 -42.71875 C 24.382812 -42.769531 24.328125 -42.820312 24.234375 -42.875 C 23.910156 -43.289062 23.5625 -43.640625 23.1875 -43.921875 L 22.96875 -44.125 C 22.875 -44.21875 22.78125 -44.300781 22.6875 -44.375 C 22.601562 -44.445312 22.515625 -44.503906 22.421875 -44.546875 L 21.15625 -45.453125 C 20.96875 -45.597656 20.742188 -45.765625 20.484375 -45.953125 C 20.234375 -46.140625 19.988281 -46.253906 19.75 -46.296875 C 19.5625 -46.296875 19.445312 -46.320312 19.40625 -46.375 L 19.1875 -46.578125 C 19.144531 -46.671875 19.085938 -46.726562 19.015625 -46.75 C 18.941406 -46.78125 18.859375 -46.816406 18.765625 -46.859375 C 17.648438 -47.328125 16.484375 -47.703125 15.265625 -47.984375 C 14.523438 -48.210938 13.816406 -48.382812 13.140625 -48.5 C 12.460938 -48.625 11.75 -48.707031 11 -48.75 C 10.945312 -48.75 10.882812 -48.769531 10.8125 -48.8125 C 10.75 -48.863281 10.671875 -48.914062 10.578125 -48.96875 C 9.972656 -49.007812 9.316406 -49.019531 8.609375 -49 C 7.910156 -48.976562 7.234375 -48.96875 6.578125 -48.96875 C 6.441406 -48.96875 6.289062 -48.988281 6.125 -49.03125 C 5.96875 -49.082031 5.816406 -49.109375 5.671875 -49.109375 L 5.25 -49.109375 C 5.207031 -49.109375 5.171875 -49.09375 5.140625 -49.0625 C 5.117188 -49.039062 5.0625 -49.03125 4.96875 -49.03125 C 4.832031 -48.9375 4.71875 -48.820312 4.625 -48.6875 C 4.625 -48.632812 4.632812 -48.570312 4.65625 -48.5 C 4.675781 -48.4375 4.6875 -48.359375 4.6875 -48.265625 C 4.6875 -48.265625 4.660156 -48.25 4.609375 -48.21875 C 4.566406 -48.195312 4.546875 -48.164062 4.546875 -48.125 C 4.546875 -48.070312 4.554688 -48.035156 4.578125 -48.015625 C 4.609375 -47.992188 4.625 -47.957031 4.625 -47.90625 C 4.625 -47.90625 4.625 -47.835938 4.625 -47.703125 L 4.625 -42.515625 C 4.625 -41.671875 4.625 -40.816406 4.625 -39.953125 C 4.625 -39.097656 4.625 -38.25 4.625 -37.40625 C 4.625 -36.519531 4.609375 -35.65625 4.578125 -34.8125 C 4.554688 -33.96875 4.546875 -33.101562 4.546875 -32.21875 L 4.546875 -27.109375 C 4.546875 -26.222656 4.566406 -25.359375 4.609375 -24.515625 C 4.660156 -23.671875 4.6875 -22.804688 4.6875 -21.921875 L 4.6875 -16.8125 C 4.6875 -15.925781 4.6875 -15.0625 4.6875 -14.21875 C 4.6875 -13.375 4.6875 -12.507812 4.6875 -11.625 C 4.6875 -10.78125 4.675781 -9.925781 4.65625 -9.0625 C 4.632812 -8.207031 4.625 -7.359375 4.625 -6.515625 C 4.625 -5.628906 4.609375 -4.765625 4.578125 -3.921875 C 4.554688 -3.078125 4.546875 -2.210938 4.546875 -1.328125 L 4.625 -1.046875 C 4.625 -1.046875 4.625 -1.035156 4.625 -1.015625 C 4.625 -0.992188 4.625 -0.957031 4.625 -0.90625 L 4.546875 -0.84375 C 4.546875 -0.84375 4.566406 -0.84375 4.609375 -0.84375 C 4.660156 -0.84375 4.6875 -0.816406 4.6875 -0.765625 C 4.6875 -0.765625 4.675781 -0.753906 4.65625 -0.734375 C 4.632812 -0.710938 4.625 -0.675781 4.625 -0.625 L 4.546875 -0.5625 C 4.597656 -0.507812 4.625 -0.4375 4.625 -0.34375 C 4.664062 -0.207031 4.804688 -0.140625 5.046875 -0.140625 C 5.140625 -0.0859375 5.234375 -0.0390625 5.328125 0 C 5.421875 0.0390625 5.488281 0.0625 5.53125 0.0625 C 6.28125 0.0625 7.003906 0.0507812 7.703125 0.03125 C 8.398438 0.0078125 9.125 0 9.875 0 C 10.382812 0 10.863281 -0.0078125 11.3125 -0.03125 C 11.757812 -0.0507812 12.210938 -0.0625 12.671875 -0.0625 Z M 12.671875 -0.0625 "/></g></g></g><g fill="#ec6171" fill-opacity="1"><g transform="translate(224.131629, 71.582975)"><g><path d="M 21.015625 -19.890625 C 21.015625 -22.648438 21 -25.40625 20.96875 -28.15625 C 20.945312 -30.914062 20.9375 -33.648438 20.9375 -36.359375 C 20.9375 -36.867188 20.984375 -37.378906 21.078125 -37.890625 C 21.171875 -38.410156 21.453125 -38.765625 21.921875 -38.953125 C 22.160156 -39.046875 22.382812 -39.09375 22.59375 -39.09375 C 22.800781 -39.09375 23.019531 -39.09375 23.25 -39.09375 C 24.375 -39 25.546875 -39 26.765625 -39.09375 C 26.992188 -39.132812 27.222656 -39.175781 27.453125 -39.21875 C 27.691406 -39.269531 27.90625 -39.390625 28.09375 -39.578125 C 28.28125 -39.765625 28.382812 -39.960938 28.40625 -40.171875 C 28.425781 -40.378906 28.460938 -40.601562 28.515625 -40.84375 C 28.609375 -41.863281 28.640625 -42.875 28.609375 -43.875 C 28.585938 -44.882812 28.53125 -45.90625 28.4375 -46.9375 C 28.394531 -47.21875 28.347656 -47.492188 28.296875 -47.765625 C 28.253906 -48.046875 28.113281 -48.28125 27.875 -48.46875 C 27.6875 -48.65625 27.453125 -48.757812 27.171875 -48.78125 C 26.898438 -48.8125 26.644531 -48.828125 26.40625 -48.828125 C 23 -48.960938 19.601562 -49.03125 16.21875 -49.03125 C 12.832031 -49.03125 9.4375 -48.984375 6.03125 -48.890625 C 5.75 -48.890625 5.476562 -48.863281 5.21875 -48.8125 C 4.957031 -48.769531 4.710938 -48.679688 4.484375 -48.546875 C 4.066406 -48.304688 3.8125 -47.941406 3.71875 -47.453125 C 3.625 -46.960938 3.578125 -46.460938 3.578125 -45.953125 C 3.523438 -45.296875 3.5 -44.617188 3.5 -43.921875 C 3.5 -43.222656 3.5 -42.546875 3.5 -41.890625 C 3.5 -41.554688 3.519531 -41.203125 3.5625 -40.828125 C 3.613281 -40.460938 3.734375 -40.140625 3.921875 -39.859375 C 4.242188 -39.484375 4.660156 -39.25 5.171875 -39.15625 C 5.691406 -39.0625 6.1875 -39.015625 6.65625 -39.015625 L 9.109375 -39.015625 C 9.804688 -39.109375 10.34375 -38.992188 10.71875 -38.671875 C 10.90625 -38.484375 11.019531 -38.234375 11.0625 -37.921875 C 11.113281 -37.617188 11.140625 -37.332031 11.140625 -37.0625 L 11.140625 -22.421875 C 11.140625 -20.453125 11.140625 -18.5 11.140625 -16.5625 C 11.140625 -14.625 11.140625 -12.675781 11.140625 -10.71875 L 11.140625 -4.90625 C 11.140625 -4.476562 11.148438 -4.039062 11.171875 -3.59375 C 11.191406 -3.15625 11.179688 -2.726562 11.140625 -2.3125 C 11.085938 -1.988281 11.082031 -1.671875 11.125 -1.359375 C 11.175781 -1.054688 11.367188 -0.789062 11.703125 -0.5625 C 11.984375 -0.375 12.285156 -0.253906 12.609375 -0.203125 C 12.929688 -0.160156 13.257812 -0.140625 13.59375 -0.140625 C 14.425781 -0.0859375 15.265625 -0.0507812 16.109375 -0.03125 C 16.953125 -0.0078125 17.816406 -0.0195312 18.703125 -0.0625 C 18.984375 -0.0625 19.273438 -0.0976562 19.578125 -0.171875 C 19.878906 -0.242188 20.125 -0.375 20.3125 -0.5625 C 20.59375 -0.789062 20.753906 -1.09375 20.796875 -1.46875 C 20.847656 -1.84375 20.875 -2.191406 20.875 -2.515625 C 20.914062 -5.410156 20.945312 -8.316406 20.96875 -11.234375 C 21 -14.160156 21.015625 -17.046875 21.015625 -19.890625 Z M 21.015625 -19.890625 "/></g></g></g><g fill="#ec6171" fill-opacity="1"><g transform="translate(256.20909, 71.582975)"><g><path d="M 26.890625 0.484375 C 27.078125 0.484375 27.253906 0.503906 27.421875 0.546875 C 27.585938 0.597656 27.765625 0.601562 27.953125 0.5625 C 28.046875 0.5625 28.160156 0.570312 28.296875 0.59375 C 28.441406 0.613281 28.5625 0.601562 28.65625 0.5625 C 28.75 0.5625 28.851562 0.535156 28.96875 0.484375 C 29.082031 0.441406 29.1875 0.421875 29.28125 0.421875 L 30.328125 0.203125 C 30.566406 0.160156 30.800781 0.140625 31.03125 0.140625 C 31.257812 0.140625 31.492188 0.113281 31.734375 0.0625 C 32.054688 -0.0195312 32.378906 -0.109375 32.703125 -0.203125 C 33.035156 -0.296875 33.363281 -0.390625 33.6875 -0.484375 C 34.113281 -0.578125 34.523438 -0.691406 34.921875 -0.828125 C 35.316406 -0.972656 35.703125 -1.117188 36.078125 -1.265625 C 36.210938 -1.359375 36.363281 -1.40625 36.53125 -1.40625 C 36.695312 -1.40625 36.847656 -1.425781 36.984375 -1.46875 C 37.171875 -1.5625 37.359375 -1.65625 37.546875 -1.75 C 37.734375 -1.84375 37.921875 -1.914062 38.109375 -1.96875 C 38.242188 -2.050781 38.359375 -2.148438 38.453125 -2.265625 C 38.546875 -2.390625 38.664062 -2.5 38.8125 -2.59375 C 39 -2.59375 39.132812 -2.613281 39.21875 -2.65625 C 39.40625 -2.75 39.566406 -2.863281 39.703125 -3 C 39.847656 -3.144531 40.015625 -3.265625 40.203125 -3.359375 C 40.441406 -3.503906 40.6875 -3.644531 40.9375 -3.78125 C 41.195312 -3.925781 41.441406 -4.085938 41.671875 -4.265625 L 42.734375 -5.109375 C 42.828125 -5.203125 42.929688 -5.285156 43.046875 -5.359375 C 43.160156 -5.429688 43.265625 -5.488281 43.359375 -5.53125 C 43.398438 -5.582031 43.441406 -5.65625 43.484375 -5.75 C 43.535156 -5.84375 43.585938 -5.910156 43.640625 -5.953125 C 43.734375 -6.046875 43.847656 -6.113281 43.984375 -6.15625 C 44.128906 -6.207031 44.222656 -6.28125 44.265625 -6.375 C 44.453125 -6.507812 44.613281 -6.671875 44.75 -6.859375 C 44.894531 -7.046875 45.0625 -7.234375 45.25 -7.421875 C 45.34375 -7.515625 45.4375 -7.582031 45.53125 -7.625 C 45.625 -7.675781 45.691406 -7.726562 45.734375 -7.78125 C 45.921875 -8.0625 46.085938 -8.269531 46.234375 -8.40625 C 46.328125 -8.539062 46.421875 -8.691406 46.515625 -8.859375 C 46.609375 -9.023438 46.703125 -9.175781 46.796875 -9.3125 C 46.890625 -9.5 47.003906 -9.648438 47.140625 -9.765625 C 47.285156 -9.890625 47.425781 -10.046875 47.5625 -10.234375 C 47.695312 -10.460938 47.820312 -10.691406 47.9375 -10.921875 C 48.0625 -11.160156 48.191406 -11.375 48.328125 -11.5625 C 48.472656 -11.789062 48.613281 -12.019531 48.75 -12.25 C 48.894531 -12.488281 49.035156 -12.703125 49.171875 -12.890625 C 49.359375 -13.210938 49.507812 -13.523438 49.625 -13.828125 C 49.738281 -14.140625 49.867188 -14.429688 50.015625 -14.703125 L 50.4375 -15.625 C 50.476562 -15.757812 50.507812 -15.882812 50.53125 -16 C 50.5625 -16.125 50.597656 -16.253906 50.640625 -16.390625 C 50.734375 -16.617188 50.828125 -16.847656 50.921875 -17.078125 C 51.015625 -17.316406 51.085938 -17.554688 51.140625 -17.796875 C 51.234375 -18.023438 51.300781 -18.28125 51.34375 -18.5625 C 51.394531 -18.84375 51.441406 -19.125 51.484375 -19.40625 C 51.523438 -19.59375 51.566406 -19.753906 51.609375 -19.890625 C 51.660156 -20.035156 51.710938 -20.175781 51.765625 -20.3125 L 51.765625 -21.078125 C 51.859375 -21.359375 51.90625 -21.570312 51.90625 -21.71875 L 51.90625 -22.203125 C 51.945312 -22.296875 51.976562 -22.390625 52 -22.484375 C 52.03125 -22.578125 52.046875 -22.671875 52.046875 -22.765625 C 52.085938 -22.898438 52.109375 -23.050781 52.109375 -23.21875 C 52.109375 -23.382812 52.109375 -23.535156 52.109375 -23.671875 C 52.109375 -23.859375 52.082031 -24.019531 52.03125 -24.15625 C 51.988281 -24.300781 51.96875 -24.445312 51.96875 -24.59375 C 51.96875 -24.726562 52.003906 -24.851562 52.078125 -24.96875 C 52.148438 -25.082031 52.160156 -25.1875 52.109375 -25.28125 C 52.109375 -25.46875 52.097656 -25.644531 52.078125 -25.8125 C 52.054688 -25.976562 52.046875 -26.128906 52.046875 -26.265625 L 52.046875 -26.34375 C 52.046875 -26.4375 52.03125 -26.550781 52 -26.6875 C 51.976562 -26.820312 51.96875 -26.9375 51.96875 -27.03125 C 51.96875 -27.125 51.921875 -27.265625 51.828125 -27.453125 C 51.828125 -27.640625 51.816406 -27.816406 51.796875 -27.984375 C 51.773438 -28.148438 51.765625 -28.300781 51.765625 -28.4375 C 51.710938 -28.625 51.6875 -28.796875 51.6875 -28.953125 C 51.6875 -29.117188 51.664062 -29.296875 51.625 -29.484375 C 51.570312 -29.722656 51.535156 -29.96875 51.515625 -30.21875 C 51.492188 -30.476562 51.4375 -30.722656 51.34375 -30.953125 C 51.300781 -31.191406 51.234375 -31.4375 51.140625 -31.6875 C 51.046875 -31.945312 50.953125 -32.21875 50.859375 -32.5 C 50.765625 -32.738281 50.671875 -32.992188 50.578125 -33.265625 C 50.484375 -33.546875 50.390625 -33.804688 50.296875 -34.046875 C 50.242188 -34.273438 50.171875 -34.484375 50.078125 -34.671875 C 49.984375 -34.859375 49.890625 -35.046875 49.796875 -35.234375 C 49.753906 -35.421875 49.675781 -35.59375 49.5625 -35.75 C 49.445312 -35.914062 49.34375 -36.09375 49.25 -36.28125 C 49.195312 -36.46875 49.125 -36.644531 49.03125 -36.8125 C 48.9375 -36.976562 48.84375 -37.128906 48.75 -37.265625 L 48.125 -38.109375 C 48.03125 -38.335938 47.910156 -38.519531 47.765625 -38.65625 C 47.628906 -38.800781 47.492188 -38.96875 47.359375 -39.15625 L 46.71875 -40 C 46.625 -40.09375 46.550781 -40.207031 46.5 -40.34375 C 46.457031 -40.488281 46.390625 -40.609375 46.296875 -40.703125 C 46.109375 -40.984375 45.96875 -41.164062 45.875 -41.25 C 45.78125 -41.34375 45.675781 -41.4375 45.5625 -41.53125 C 45.445312 -41.625 45.34375 -41.695312 45.25 -41.75 C 45.207031 -41.84375 45.171875 -41.921875 45.140625 -41.984375 C 45.117188 -42.054688 45.0625 -42.117188 44.96875 -42.171875 L 44.484375 -42.59375 C 44.296875 -42.726562 44.035156 -42.957031 43.703125 -43.28125 C 43.566406 -43.375 43.359375 -43.5625 43.078125 -43.84375 L 42.3125 -44.484375 C 42.125 -44.671875 41.9375 -44.84375 41.75 -45 C 41.5625 -45.164062 41.375 -45.316406 41.1875 -45.453125 C 41 -45.546875 40.8125 -45.640625 40.625 -45.734375 C 40.4375 -45.828125 40.273438 -45.921875 40.140625 -46.015625 C 39.898438 -46.203125 39.640625 -46.351562 39.359375 -46.46875 C 39.085938 -46.59375 38.832031 -46.722656 38.59375 -46.859375 C 38.40625 -46.953125 38.207031 -47.078125 38 -47.234375 C 37.789062 -47.398438 37.566406 -47.53125 37.328125 -47.625 L 36.21875 -48.046875 C 36.070312 -48.097656 35.925781 -48.15625 35.78125 -48.21875 C 35.644531 -48.289062 35.484375 -48.351562 35.296875 -48.40625 C 34.691406 -48.6875 34.015625 -48.894531 33.265625 -49.03125 C 33.128906 -49.082031 32.988281 -49.109375 32.84375 -49.109375 C 32.707031 -49.109375 32.59375 -49.128906 32.5 -49.171875 C 32.21875 -49.265625 31.945312 -49.320312 31.6875 -49.34375 C 31.4375 -49.375 31.171875 -49.410156 30.890625 -49.453125 C 30.753906 -49.453125 30.613281 -49.484375 30.46875 -49.546875 C 30.332031 -49.617188 30.191406 -49.65625 30.046875 -49.65625 C 29.910156 -49.707031 29.769531 -49.71875 29.625 -49.6875 C 29.488281 -49.664062 29.375 -49.679688 29.28125 -49.734375 L 28.796875 -49.734375 C 28.609375 -49.734375 28.429688 -49.742188 28.265625 -49.765625 C 28.097656 -49.785156 27.921875 -49.796875 27.734375 -49.796875 C 27.640625 -49.847656 27.519531 -49.859375 27.375 -49.828125 C 27.238281 -49.804688 27.125 -49.796875 27.03125 -49.796875 L 26.890625 -49.796875 C 26.753906 -49.796875 26.613281 -49.796875 26.46875 -49.796875 C 26.332031 -49.796875 26.195312 -49.796875 26.0625 -49.796875 C 26.007812 -49.796875 25.972656 -49.769531 25.953125 -49.71875 C 25.929688 -49.675781 25.894531 -49.65625 25.84375 -49.65625 L 25 -49.65625 C 24.90625 -49.613281 24.8125 -49.601562 24.71875 -49.625 C 24.632812 -49.644531 24.546875 -49.632812 24.453125 -49.59375 C 24.359375 -49.59375 24.238281 -49.601562 24.09375 -49.625 C 23.957031 -49.644531 23.84375 -49.632812 23.75 -49.59375 C 23.5625 -49.59375 23.394531 -49.566406 23.25 -49.515625 C 23.113281 -49.472656 22.972656 -49.429688 22.828125 -49.390625 C 22.691406 -49.390625 22.550781 -49.363281 22.40625 -49.3125 C 22.269531 -49.269531 22.15625 -49.222656 22.0625 -49.171875 C 21.082031 -49.035156 20.101562 -48.828125 19.125 -48.546875 C 18.9375 -48.492188 18.757812 -48.441406 18.59375 -48.390625 C 18.4375 -48.347656 18.265625 -48.28125 18.078125 -48.1875 C 17.929688 -48.144531 17.785156 -48.078125 17.640625 -47.984375 C 17.503906 -47.890625 17.367188 -47.796875 17.234375 -47.703125 C 16.898438 -47.609375 16.582031 -47.503906 16.28125 -47.390625 C 15.976562 -47.273438 15.6875 -47.144531 15.40625 -47 L 13.9375 -46.15625 C 13.707031 -46.019531 13.472656 -45.859375 13.234375 -45.671875 C 13.003906 -45.484375 12.769531 -45.296875 12.53125 -45.109375 C 12.351562 -44.972656 12.171875 -44.832031 11.984375 -44.6875 C 11.796875 -44.550781 11.609375 -44.410156 11.421875 -44.265625 L 10.859375 -44.0625 C 10.765625 -44.007812 10.679688 -43.9375 10.609375 -43.84375 C 10.535156 -43.75 10.453125 -43.65625 10.359375 -43.5625 C 10.179688 -43.425781 10.019531 -43.273438 9.875 -43.109375 C 9.738281 -42.953125 9.597656 -42.800781 9.453125 -42.65625 C 9.265625 -42.519531 9.078125 -42.367188 8.890625 -42.203125 C 8.703125 -42.035156 8.515625 -41.859375 8.328125 -41.671875 C 8.328125 -41.671875 8.335938 -41.660156 8.359375 -41.640625 C 8.390625 -41.617188 8.40625 -41.582031 8.40625 -41.53125 C 8.3125 -41.4375 8.21875 -41.320312 8.125 -41.1875 C 8.03125 -41.050781 7.9375 -40.9375 7.84375 -40.84375 C 7.707031 -40.65625 7.546875 -40.5 7.359375 -40.375 C 7.171875 -40.257812 7.003906 -40.109375 6.859375 -39.921875 C 6.671875 -39.640625 6.484375 -39.359375 6.296875 -39.078125 C 6.117188 -38.804688 5.9375 -38.53125 5.75 -38.25 C 5.5625 -37.914062 5.394531 -37.585938 5.25 -37.265625 C 5.113281 -36.941406 4.953125 -36.613281 4.765625 -36.28125 C 4.671875 -36.09375 4.5625 -35.925781 4.4375 -35.78125 C 4.320312 -35.644531 4.21875 -35.484375 4.125 -35.296875 C 4.039062 -35.117188 3.960938 -34.898438 3.890625 -34.640625 C 3.816406 -34.378906 3.734375 -34.132812 3.640625 -33.90625 C 3.597656 -33.71875 3.503906 -33.515625 3.359375 -33.296875 C 3.222656 -33.085938 3.109375 -32.867188 3.015625 -32.640625 C 2.960938 -32.410156 2.925781 -32.175781 2.90625 -31.9375 C 2.882812 -31.707031 2.828125 -31.472656 2.734375 -31.234375 C 2.679688 -31.046875 2.609375 -30.859375 2.515625 -30.671875 C 2.421875 -30.492188 2.351562 -30.285156 2.3125 -30.046875 C 2.257812 -29.910156 2.234375 -29.769531 2.234375 -29.625 C 2.234375 -29.488281 2.210938 -29.375 2.171875 -29.28125 C 2.171875 -29.1875 2.144531 -29.09375 2.09375 -29 C 2.050781 -28.90625 2.03125 -28.8125 2.03125 -28.71875 C 1.988281 -28.53125 1.976562 -28.34375 2 -28.15625 C 2.019531 -27.96875 2.007812 -27.78125 1.96875 -27.59375 C 1.96875 -27.40625 1.929688 -27.21875 1.859375 -27.03125 C 1.785156 -26.851562 1.75 -26.644531 1.75 -26.40625 L 1.75 -25.5 C 1.75 -25.445312 1.75 -25.382812 1.75 -25.3125 C 1.75 -25.25 1.75 -25.171875 1.75 -25.078125 L 1.75 -24.9375 C 1.75 -24.84375 1.757812 -24.738281 1.78125 -24.625 C 1.8125 -24.507812 1.828125 -24.40625 1.828125 -24.3125 L 1.828125 -24.171875 C 1.828125 -24.117188 1.835938 -24.066406 1.859375 -24.015625 C 1.878906 -23.972656 1.890625 -23.929688 1.890625 -23.890625 C 1.890625 -23.835938 1.863281 -23.753906 1.8125 -23.640625 C 1.769531 -23.523438 1.75 -23.421875 1.75 -23.328125 C 1.800781 -23.234375 1.8125 -23.125 1.78125 -23 C 1.757812 -22.882812 1.75 -22.757812 1.75 -22.625 L 1.96875 -21.78125 C 1.96875 -21.738281 1.976562 -21.679688 2 -21.609375 C 2.019531 -21.535156 2.03125 -21.453125 2.03125 -21.359375 C 2.070312 -21.316406 2.070312 -21.25 2.03125 -21.15625 C 1.988281 -21.0625 1.988281 -20.96875 2.03125 -20.875 C 2.03125 -20.726562 2.050781 -20.585938 2.09375 -20.453125 C 2.144531 -20.316406 2.191406 -20.203125 2.234375 -20.109375 C 2.285156 -19.921875 2.3125 -19.71875 2.3125 -19.5 C 2.3125 -19.289062 2.332031 -19.09375 2.375 -18.90625 C 2.46875 -18.539062 2.570312 -18.171875 2.6875 -17.796875 C 2.8125 -17.421875 2.941406 -17.046875 3.078125 -16.671875 L 3.71875 -15.125 C 3.8125 -14.9375 3.878906 -14.757812 3.921875 -14.59375 C 3.972656 -14.4375 4.019531 -14.289062 4.0625 -14.15625 C 4.25 -13.820312 4.410156 -13.488281 4.546875 -13.15625 C 4.691406 -12.832031 4.859375 -12.507812 5.046875 -12.1875 L 5.8125 -10.78125 C 5.90625 -10.59375 6.019531 -10.414062 6.15625 -10.25 C 6.300781 -10.09375 6.441406 -9.921875 6.578125 -9.734375 L 7.359375 -8.6875 C 7.453125 -8.539062 7.578125 -8.421875 7.734375 -8.328125 C 7.898438 -8.242188 8.03125 -8.128906 8.125 -7.984375 C 8.257812 -7.847656 8.375 -7.707031 8.46875 -7.5625 C 8.5625 -7.425781 8.65625 -7.285156 8.75 -7.140625 C 8.84375 -7.097656 8.925781 -7.0625 9 -7.03125 C 9.070312 -7.007812 9.128906 -6.976562 9.171875 -6.9375 C 9.222656 -6.882812 9.222656 -6.832031 9.171875 -6.78125 C 9.128906 -6.738281 9.128906 -6.71875 9.171875 -6.71875 C 9.222656 -6.675781 9.257812 -6.664062 9.28125 -6.6875 C 9.300781 -6.707031 9.335938 -6.695312 9.390625 -6.65625 C 9.484375 -6.601562 9.578125 -6.519531 9.671875 -6.40625 C 9.765625 -6.289062 9.859375 -6.1875 9.953125 -6.09375 C 10.222656 -5.8125 10.429688 -5.625 10.578125 -5.53125 L 11.625 -4.765625 C 11.957031 -4.523438 12.285156 -4.300781 12.609375 -4.09375 C 12.929688 -3.882812 13.257812 -3.664062 13.59375 -3.4375 C 13.96875 -3.25 14.328125 -3.046875 14.671875 -2.828125 C 15.023438 -2.617188 15.363281 -2.421875 15.6875 -2.234375 C 16.0625 -2.003906 16.503906 -1.796875 17.015625 -1.609375 C 17.296875 -1.472656 17.578125 -1.34375 17.859375 -1.21875 C 18.140625 -1.101562 18.421875 -1 18.703125 -0.90625 C 18.835938 -0.863281 18.972656 -0.816406 19.109375 -0.765625 C 19.253906 -0.722656 19.398438 -0.675781 19.546875 -0.625 C 19.773438 -0.53125 20.03125 -0.445312 20.3125 -0.375 C 20.59375 -0.3125 20.847656 -0.234375 21.078125 -0.140625 L 22.625 0.0625 C 22.8125 0.113281 22.972656 0.148438 23.109375 0.171875 C 23.253906 0.191406 23.421875 0.226562 23.609375 0.28125 C 23.742188 0.28125 23.878906 0.300781 24.015625 0.34375 C 24.160156 0.394531 24.304688 0.421875 24.453125 0.421875 C 24.628906 0.460938 24.800781 0.492188 24.96875 0.515625 C 25.132812 0.546875 25.3125 0.5625 25.5 0.5625 C 25.726562 0.5625 25.945312 0.535156 26.15625 0.484375 C 26.375 0.441406 26.578125 0.421875 26.765625 0.421875 C 26.804688 0.421875 26.835938 0.429688 26.859375 0.453125 C 26.878906 0.472656 26.890625 0.484375 26.890625 0.484375 Z M 27.8125 -9.171875 C 27.019531 -9.171875 26.285156 -9.226562 25.609375 -9.34375 C 24.929688 -9.46875 24.265625 -9.578125 23.609375 -9.671875 C 22.859375 -9.859375 22.164062 -10.066406 21.53125 -10.296875 C 20.90625 -10.523438 20.265625 -10.804688 19.609375 -11.140625 C 18.398438 -11.796875 17.28125 -12.613281 16.25 -13.59375 C 15.78125 -14.101562 15.3125 -14.625 14.84375 -15.15625 C 14.382812 -15.695312 13.96875 -16.269531 13.59375 -16.875 C 13.257812 -17.488281 12.972656 -18.109375 12.734375 -18.734375 C 12.503906 -19.367188 12.300781 -20.007812 12.125 -20.65625 C 11.9375 -21.3125 11.769531 -21.96875 11.625 -22.625 C 11.488281 -23.28125 11.421875 -23.957031 11.421875 -24.65625 C 11.421875 -25.3125 11.5 -25.976562 11.65625 -26.65625 C 11.820312 -27.332031 12 -28 12.1875 -28.65625 C 12.320312 -29.257812 12.484375 -29.835938 12.671875 -30.390625 C 12.859375 -30.953125 13.09375 -31.492188 13.375 -32.015625 C 13.75 -32.660156 14.171875 -33.285156 14.640625 -33.890625 C 15.109375 -34.503906 15.597656 -35.066406 16.109375 -35.578125 C 16.578125 -36.046875 17.054688 -36.46875 17.546875 -36.84375 C 18.035156 -37.21875 18.5625 -37.566406 19.125 -37.890625 C 19.6875 -38.222656 20.242188 -38.523438 20.796875 -38.796875 C 21.359375 -39.078125 21.945312 -39.3125 22.5625 -39.5 C 24.050781 -39.925781 25.519531 -40.140625 26.96875 -40.140625 C 27.476562 -40.140625 27.988281 -40.101562 28.5 -40.03125 C 29.019531 -39.957031 29.535156 -39.875 30.046875 -39.78125 C 31.117188 -39.59375 32.191406 -39.242188 33.265625 -38.734375 C 33.828125 -38.503906 34.390625 -38.222656 34.953125 -37.890625 C 35.515625 -37.566406 36.03125 -37.21875 36.5 -36.84375 C 36.820312 -36.613281 37.125 -36.34375 37.40625 -36.03125 C 37.6875 -35.726562 37.96875 -35.414062 38.25 -35.09375 C 39.320312 -33.925781 40.207031 -32.617188 40.90625 -31.171875 C 41.414062 -30.097656 41.8125 -29.070312 42.09375 -28.09375 C 42.1875 -27.476562 42.269531 -26.867188 42.34375 -26.265625 C 42.414062 -25.660156 42.425781 -25.054688 42.375 -24.453125 C 42.332031 -22.390625 41.914062 -20.472656 41.125 -18.703125 C 40.789062 -17.816406 40.34375 -16.972656 39.78125 -16.171875 C 39.226562 -15.378906 38.597656 -14.613281 37.890625 -13.875 C 37.148438 -13.164062 36.40625 -12.507812 35.65625 -11.90625 C 34.90625 -11.300781 34.132812 -10.8125 33.34375 -10.4375 C 32.457031 -10.019531 31.546875 -9.71875 30.609375 -9.53125 C 29.671875 -9.34375 28.738281 -9.222656 27.8125 -9.171875 Z M 27.8125 -9.171875 "/></g></g></g></svg>