<svg xmlns="http://www.w3.org/2000/svg" xmlns:xlink="http://www.w3.org/1999/xlink" width="500" zoomAndPan="magnify" viewBox="0 0 375 374.999991" height="500" preserveAspectRatio="xMidYMid meet" version="1.0"><defs><g/><clipPath id="98cef2aaf4"><path d="M 144 14.800781 L 195 14.800781 L 195 49 L 144 49 Z M 144 14.800781 " clip-rule="nonzero"/></clipPath><clipPath id="6698f81dbe"><path d="M 198 64 L 248.625 64 L 248.625 99 L 198 99 Z M 198 64 " clip-rule="nonzero"/></clipPath><clipPath id="df7899f68b"><path d="M 211 89 L 248.625 89 L 248.625 108 L 211 108 Z M 211 89 " clip-rule="nonzero"/></clipPath><clipPath id="099602162b"><path d="M 198 103 L 248.625 103 L 248.625 138 L 198 138 Z M 198 103 " clip-rule="nonzero"/></clipPath><clipPath id="15b6c0060e"><path d="M 211 128 L 248.625 128 L 248.625 147 L 211 147 Z M 211 128 " clip-rule="nonzero"/></clipPath><clipPath id="0980b891b8"><path d="M 198 143 L 248.625 143 L 248.625 177 L 198 177 Z M 198 143 " clip-rule="nonzero"/></clipPath><clipPath id="0130596724"><path d="M 198 171 L 248.625 171 L 248.625 197.050781 L 198 197.050781 Z M 198 171 " clip-rule="nonzero"/></clipPath><clipPath id="1806ccadaa"><path d="M 88.125 43 L 138 43 L 138 78 L 88.125 78 Z M 88.125 43 " clip-rule="nonzero"/></clipPath><clipPath id="8192aea579"><path d="M 88.125 73 L 118 73 L 118 89 L 88.125 89 Z M 88.125 73 " clip-rule="nonzero"/></clipPath><clipPath id="ede89d35d9"><path d="M 88.125 82 L 138 82 L 138 117 L 88.125 117 Z M 88.125 82 " clip-rule="nonzero"/></clipPath><clipPath id="2e3d862c15"><path d="M 88.125 113 L 118 113 L 118 128 L 88.125 128 Z M 88.125 113 " clip-rule="nonzero"/></clipPath><clipPath id="79e5935699"><path d="M 88.125 122 L 138 122 L 138 157 L 88.125 157 Z M 88.125 122 " clip-rule="nonzero"/></clipPath><clipPath id="d42e8554aa"><path d="M 88.125 150 L 138 150 L 138 177 L 88.125 177 Z M 88.125 150 " clip-rule="nonzero"/></clipPath></defs><g clip-path="url(#98cef2aaf4)"><path fill="#8cd7bd" d="M 145.472656 28.640625 C 160.703125 35.171875 175.9375 41.703125 191.175781 48.234375 C 192.4375 48.777344 194.007812 48.167969 194.007812 46.613281 L 194.007812 36.214844 C 194.007812 35.617188 193.660156 34.84375 193.078125 34.59375 C 177.839844 28.0625 162.609375 21.53125 147.375 14.996094 C 146.109375 14.453125 144.542969 15.0625 144.542969 16.621094 L 144.542969 27.015625 C 144.542969 29.441406 148.308594 29.441406 148.308594 27.015625 L 148.308594 16.621094 C 147.363281 17.160156 146.417969 17.703125 145.472656 18.242188 C 160.703125 24.773438 175.9375 31.304688 191.175781 37.835938 C 190.863281 37.296875 190.554688 36.753906 190.242188 36.214844 L 190.242188 46.613281 C 191.1875 46.070312 192.132812 45.53125 193.078125 44.988281 C 177.839844 38.457031 162.609375 31.925781 147.375 25.394531 C 145.167969 24.449219 143.246094 27.683594 145.472656 28.640625 " fill-opacity="1" fill-rule="nonzero"/></g><path fill="#8cd7bd" d="M 147.375 57.402344 C 158.554688 52.605469 169.730469 47.816406 180.910156 43.019531 C 183.136719 42.066406 181.214844 38.832031 179.011719 39.773438 C 167.832031 44.570312 156.652344 49.363281 145.472656 54.15625 C 143.246094 55.109375 145.167969 58.347656 147.375 57.402344 " fill-opacity="1" fill-rule="nonzero"/><path fill="#8cd7bd" d="M 191.175781 44.957031 C 182.867188 48.519531 174.558594 52.082031 166.253906 55.644531 C 164.027344 56.597656 165.949219 59.835938 168.152344 58.886719 C 176.460938 55.324219 184.769531 51.765625 193.078125 48.203125 C 195.304688 47.25 193.378906 44.011719 191.175781 44.957031 " fill-opacity="1" fill-rule="nonzero"/><path fill="#8cd7bd" d="M 145.472656 67.796875 C 160.703125 74.328125 175.9375 80.863281 191.175781 87.394531 C 192.4375 87.933594 194.007812 87.328125 194.007812 85.769531 L 194.007812 75.371094 C 194.007812 74.773438 193.660156 74.003906 193.078125 73.75 C 177.839844 67.21875 162.609375 60.6875 147.375 54.15625 C 146.109375 53.613281 144.542969 54.222656 144.542969 55.777344 L 144.542969 66.175781 C 144.542969 68.597656 148.308594 68.597656 148.308594 66.175781 L 148.308594 55.777344 L 145.472656 57.402344 C 160.703125 63.933594 175.9375 70.464844 191.175781 76.996094 C 190.863281 76.453125 190.554688 75.917969 190.242188 75.371094 L 190.242188 85.769531 L 193.078125 84.148438 C 177.839844 77.613281 162.609375 71.082031 147.375 64.554688 C 145.167969 63.605469 143.246094 66.84375 145.472656 67.796875 " fill-opacity="1" fill-rule="nonzero"/><path fill="#8cd7bd" d="M 147.375 96.804688 C 158.554688 92.007812 169.730469 87.21875 180.910156 82.425781 C 183.136719 81.472656 181.214844 78.230469 179.011719 79.179688 C 167.832031 83.972656 156.652344 88.765625 145.472656 93.558594 C 143.246094 94.511719 145.167969 97.753906 147.375 96.804688 " fill-opacity="1" fill-rule="nonzero"/><path fill="#8cd7bd" d="M 191.175781 84.359375 C 182.867188 87.925781 174.558594 91.484375 166.253906 95.046875 C 164.027344 96 165.949219 99.238281 168.152344 98.289062 C 176.460938 94.730469 184.769531 91.167969 193.078125 87.605469 C 195.304688 86.652344 193.378906 83.414062 191.175781 84.359375 " fill-opacity="1" fill-rule="nonzero"/><path fill="#8cd7bd" d="M 145.472656 107.199219 C 160.703125 113.734375 175.9375 120.265625 191.175781 126.796875 C 192.4375 127.335938 194.007812 126.734375 194.007812 125.171875 L 194.007812 114.777344 C 194.007812 114.175781 193.660156 113.40625 193.078125 113.152344 C 177.839844 106.621094 162.609375 100.089844 147.375 93.558594 C 146.109375 93.015625 144.542969 93.625 144.542969 95.179688 L 144.542969 105.582031 C 144.542969 108 148.308594 108 148.308594 105.582031 L 148.308594 95.179688 L 145.472656 96.804688 C 160.703125 103.335938 175.9375 109.867188 191.175781 116.398438 C 190.863281 115.859375 190.554688 115.320312 190.242188 114.777344 L 190.242188 125.171875 C 191.1875 124.632812 192.132812 124.09375 193.078125 123.554688 C 177.839844 117.019531 162.609375 110.488281 147.375 103.957031 C 145.167969 103.011719 143.246094 106.246094 145.472656 107.199219 " fill-opacity="1" fill-rule="nonzero"/><path fill="#8cd7bd" d="M 191.175781 124.210938 C 175.9375 130.738281 160.703125 137.269531 145.472656 143.804688 L 148.308594 145.425781 L 148.308594 135.03125 C 147.996094 135.574219 147.683594 136.109375 147.375 136.652344 C 156.277344 132.835938 165.179688 129.019531 174.085938 125.199219 C 176.3125 124.246094 174.390625 121.007812 172.183594 121.957031 C 163.277344 125.773438 154.375 129.589844 145.472656 133.40625 C 144.882812 133.660156 144.542969 134.429688 144.542969 135.03125 L 144.542969 145.425781 C 144.542969 146.984375 146.109375 147.589844 147.375 147.050781 C 162.609375 140.519531 177.839844 133.984375 193.078125 127.453125 C 195.304688 126.5 193.378906 123.265625 191.175781 124.210938 " fill-opacity="1" fill-rule="nonzero"/><g clip-path="url(#6698f81dbe)"><path fill="#ed52b1" d="M 245.601562 75.203125 C 230.363281 81.734375 215.128906 88.265625 199.898438 94.796875 C 200.839844 95.339844 201.785156 95.878906 202.730469 96.417969 L 202.730469 86.023438 C 202.421875 86.5625 202.109375 87.105469 201.796875 87.644531 C 217.03125 81.113281 232.265625 74.582031 247.5 68.050781 C 246.558594 67.507812 245.609375 66.96875 244.664062 66.425781 L 244.664062 76.824219 C 244.664062 79.25 248.433594 79.25 248.433594 76.824219 L 248.433594 66.425781 C 248.433594 64.871094 246.863281 64.265625 245.601562 64.804688 C 230.363281 71.339844 215.128906 77.867188 199.898438 84.398438 C 199.308594 84.652344 198.960938 85.425781 198.960938 86.023438 L 198.960938 96.417969 C 198.960938 97.976562 200.535156 98.585938 201.796875 98.042969 C 217.03125 91.507812 232.265625 84.976562 247.5 78.445312 C 249.726562 77.492188 247.804688 74.253906 245.601562 75.203125 " fill-opacity="1" fill-rule="nonzero"/></g><g clip-path="url(#df7899f68b)"><path fill="#ed52b1" d="M 247.5 103.960938 C 236.320312 99.167969 225.140625 94.378906 213.957031 89.582031 C 211.753906 88.636719 209.832031 91.875 212.058594 92.828125 C 223.238281 97.621094 234.417969 102.417969 245.601562 107.207031 C 247.804688 108.15625 249.726562 104.917969 247.5 103.960938 " fill-opacity="1" fill-rule="nonzero"/></g><path fill="#ed52b1" d="M 199.898438 98.011719 C 208.203125 101.570312 216.507812 105.132812 224.816406 108.691406 C 227.019531 109.640625 228.941406 106.402344 226.714844 105.449219 C 218.410156 101.886719 210.105469 98.328125 201.796875 94.765625 C 199.59375 93.820312 197.671875 97.058594 199.898438 98.011719 " fill-opacity="1" fill-rule="nonzero"/><g clip-path="url(#099602162b)"><path fill="#ed52b1" d="M 245.601562 114.359375 C 230.363281 120.890625 215.128906 127.425781 199.898438 133.957031 C 200.839844 134.496094 201.785156 135.035156 202.730469 135.578125 L 202.730469 125.179688 C 202.421875 125.722656 202.109375 126.261719 201.796875 126.804688 C 217.03125 120.273438 232.265625 113.738281 247.5 107.207031 C 246.558594 106.667969 245.609375 106.125 244.664062 105.585938 L 244.664062 115.984375 C 244.664062 118.402344 248.433594 118.402344 248.433594 115.984375 L 248.433594 105.585938 C 248.433594 104.027344 246.863281 103.417969 245.601562 103.960938 C 230.363281 110.492188 215.128906 117.023438 199.898438 123.558594 C 199.308594 123.808594 198.960938 124.582031 198.960938 125.179688 L 198.960938 135.578125 C 198.960938 137.136719 200.535156 137.742188 201.796875 137.199219 C 217.03125 130.667969 232.265625 124.136719 247.5 117.605469 C 249.726562 116.648438 247.804688 113.414062 245.601562 114.359375 " fill-opacity="1" fill-rule="nonzero"/></g><g clip-path="url(#15b6c0060e)"><path fill="#ed52b1" d="M 247.5 143.367188 C 236.320312 138.570312 225.140625 133.78125 213.957031 128.988281 C 211.753906 128.039062 209.832031 131.277344 212.058594 132.230469 C 223.238281 137.023438 234.417969 141.820312 245.601562 146.609375 C 247.804688 147.558594 249.726562 144.320312 247.5 143.367188 " fill-opacity="1" fill-rule="nonzero"/></g><path fill="#ed52b1" d="M 199.898438 137.414062 C 208.203125 140.972656 216.507812 144.535156 224.816406 148.097656 C 227.019531 149.046875 228.941406 145.804688 226.714844 144.851562 C 218.410156 141.292969 210.105469 137.730469 201.796875 134.171875 C 199.59375 133.222656 197.671875 136.460938 199.898438 137.414062 " fill-opacity="1" fill-rule="nonzero"/><g clip-path="url(#0980b891b8)"><path fill="#ed52b1" d="M 245.601562 153.761719 C 230.363281 160.292969 215.128906 166.828125 199.898438 173.359375 C 200.839844 173.898438 201.785156 174.441406 202.730469 174.984375 L 202.730469 164.582031 C 202.421875 165.125 202.109375 165.664062 201.796875 166.207031 C 217.03125 159.675781 232.265625 153.144531 247.5 146.609375 C 246.558594 146.070312 245.609375 145.53125 244.664062 144.988281 L 244.664062 155.386719 C 244.664062 157.808594 248.433594 157.808594 248.433594 155.386719 L 248.433594 144.988281 C 248.433594 143.429688 246.863281 142.824219 245.601562 143.367188 C 230.363281 149.898438 215.128906 156.429688 199.898438 162.960938 C 199.308594 163.214844 198.960938 163.984375 198.960938 164.582031 L 198.960938 174.984375 C 198.960938 176.539062 200.535156 177.148438 201.796875 176.605469 C 217.03125 170.074219 232.265625 163.542969 247.5 157.011719 C 249.726562 156.054688 247.804688 152.820312 245.601562 153.761719 " fill-opacity="1" fill-rule="nonzero"/></g><g clip-path="url(#0130596724)"><path fill="#ed52b1" d="M 199.898438 177.265625 C 215.128906 183.792969 230.363281 190.324219 245.601562 196.855469 C 246.863281 197.398438 248.433594 196.792969 248.433594 195.234375 L 248.433594 184.835938 C 248.433594 184.238281 248.085938 183.464844 247.5 183.21875 L 220.789062 171.761719 C 218.582031 170.8125 216.660156 174.054688 218.886719 175.007812 C 227.789062 178.828125 236.691406 182.640625 245.601562 186.460938 C 245.289062 185.917969 244.976562 185.378906 244.664062 184.835938 L 244.664062 195.234375 C 245.609375 194.691406 246.558594 194.152344 247.5 193.613281 C 232.265625 187.082031 217.03125 180.546875 201.796875 174.015625 C 199.59375 173.070312 197.671875 176.308594 199.898438 177.265625 " fill-opacity="1" fill-rule="nonzero"/></g><path fill="#ed52b1" d="M 157.605469 169.550781 L 157.605469 177.21875 C 157.605469 179.644531 161.371094 179.644531 161.371094 177.21875 L 161.371094 169.550781 C 161.371094 167.128906 157.605469 167.128906 157.605469 169.550781 " fill-opacity="1" fill-rule="nonzero"/><path fill="#ed52b1" d="M 163.191406 171.507812 L 155.5 171.507812 C 153.070312 171.507812 153.070312 175.265625 155.5 175.265625 L 163.191406 175.265625 C 165.621094 175.265625 165.621094 171.507812 163.191406 171.507812 " fill-opacity="1" fill-rule="nonzero"/><path fill="#ed52b1" d="M 104.464844 33.726562 L 104.464844 41.398438 C 104.464844 43.820312 108.230469 43.820312 108.230469 41.398438 L 108.230469 33.726562 C 108.230469 31.304688 104.464844 31.304688 104.464844 33.726562 " fill-opacity="1" fill-rule="nonzero"/><path fill="#ed52b1" d="M 110.050781 35.683594 L 102.363281 35.683594 C 99.933594 35.683594 99.933594 39.441406 102.363281 39.441406 L 110.050781 39.441406 C 112.480469 39.441406 112.480469 35.683594 110.050781 35.683594 " fill-opacity="1" fill-rule="nonzero"/><g clip-path="url(#1806ccadaa)"><path fill="#f5a30d" d="M 134.953125 54.40625 C 119.714844 60.9375 104.480469 67.472656 89.25 74.003906 C 90.195312 74.542969 91.136719 75.085938 92.082031 75.625 L 92.082031 65.226562 C 91.769531 65.769531 91.460938 66.308594 91.152344 66.851562 C 106.382812 60.320312 121.617188 53.785156 136.847656 47.253906 C 135.902344 46.714844 134.960938 46.171875 134.015625 45.632812 L 134.015625 56.03125 C 134.015625 58.453125 137.785156 58.453125 137.785156 56.03125 L 137.785156 45.632812 C 137.785156 44.074219 136.210938 43.46875 134.949219 44.011719 C 119.714844 50.542969 104.480469 57.074219 89.246094 63.609375 C 88.660156 63.855469 88.3125 64.628906 88.3125 65.226562 C 88.3125 68.691406 88.3125 72.15625 88.3125 75.625 C 88.3125 77.183594 89.882812 77.789062 91.148438 77.246094 C 106.382812 70.714844 121.617188 64.183594 136.847656 57.652344 C 139.074219 56.699219 137.152344 53.460938 134.949219 54.40625 " fill-opacity="1" fill-rule="nonzero"/></g><path fill="#f5a30d" d="M 136.851562 83.167969 C 125.671875 78.375 114.492188 73.582031 103.3125 68.785156 C 101.105469 67.84375 99.183594 71.078125 101.410156 72.035156 C 112.589844 76.824219 123.769531 81.621094 134.953125 86.414062 C 137.15625 87.359375 139.078125 84.125 136.851562 83.167969 " fill-opacity="1" fill-rule="nonzero"/><g clip-path="url(#8192aea579)"><path fill="#f5a30d" d="M 89.25 77.214844 C 97.554688 80.777344 105.859375 84.339844 114.167969 87.902344 C 116.375 88.847656 118.296875 85.609375 116.070312 84.652344 C 107.765625 81.09375 99.457031 77.53125 91.152344 73.96875 C 88.941406 73.023438 87.023438 76.261719 89.25 77.214844 " fill-opacity="1" fill-rule="nonzero"/></g><g clip-path="url(#ede89d35d9)"><path fill="#f5a30d" d="M 134.953125 93.566406 C 119.714844 100.097656 104.480469 106.628906 89.25 113.160156 C 90.195312 113.699219 91.136719 114.242188 92.082031 114.78125 L 92.082031 104.386719 C 91.769531 104.925781 91.460938 105.46875 91.152344 106.007812 C 106.382812 99.476562 121.617188 92.945312 136.847656 86.414062 C 135.902344 85.871094 134.960938 85.332031 134.015625 84.789062 L 134.015625 95.1875 C 134.015625 97.613281 137.785156 97.613281 137.785156 95.1875 L 137.785156 84.789062 C 137.785156 83.234375 136.210938 82.625 134.949219 83.167969 C 119.714844 89.703125 104.480469 96.230469 89.246094 102.761719 C 88.660156 103.015625 88.3125 103.789062 88.3125 104.386719 C 88.3125 107.851562 88.3125 111.316406 88.3125 114.78125 C 88.3125 116.335938 89.882812 116.945312 91.148438 116.40625 C 106.382812 109.871094 121.617188 103.34375 136.847656 96.808594 C 139.074219 95.855469 137.152344 92.617188 134.949219 93.566406 " fill-opacity="1" fill-rule="nonzero"/></g><path fill="#f5a30d" d="M 136.851562 122.570312 C 125.671875 117.78125 114.492188 112.984375 103.3125 108.191406 C 101.105469 107.246094 99.183594 110.480469 101.410156 111.4375 C 112.589844 116.230469 123.769531 121.023438 134.953125 125.816406 C 137.15625 126.761719 139.078125 123.527344 136.851562 122.570312 " fill-opacity="1" fill-rule="nonzero"/><g clip-path="url(#2e3d862c15)"><path fill="#f5a30d" d="M 89.25 116.617188 C 97.554688 120.183594 105.859375 123.742188 114.167969 127.304688 C 116.375 128.25 118.296875 125.011719 116.070312 124.058594 C 107.765625 120.496094 99.457031 116.933594 91.152344 113.375 C 88.941406 112.429688 87.023438 115.664062 89.25 116.617188 " fill-opacity="1" fill-rule="nonzero"/></g><g clip-path="url(#79e5935699)"><path fill="#f5a30d" d="M 134.953125 132.96875 C 119.714844 139.5 104.480469 146.03125 89.25 152.5625 C 90.195312 153.105469 91.136719 153.644531 92.082031 154.1875 L 92.082031 143.789062 C 91.769531 144.328125 91.460938 144.871094 91.152344 145.410156 C 106.382812 138.878906 121.617188 132.347656 136.847656 125.816406 C 135.902344 125.277344 134.960938 124.738281 134.015625 124.195312 L 134.015625 134.589844 C 134.015625 137.015625 137.785156 137.015625 137.785156 134.589844 L 137.785156 124.195312 C 137.785156 122.640625 136.210938 122.03125 134.949219 122.570312 C 119.714844 129.105469 104.480469 135.636719 89.246094 142.167969 C 88.660156 142.421875 88.3125 143.191406 88.3125 143.789062 C 88.3125 147.257812 88.3125 150.71875 88.3125 154.1875 C 88.3125 155.742188 89.882812 156.351562 91.148438 155.808594 C 106.382812 149.273438 121.617188 142.746094 136.847656 136.214844 C 139.074219 135.261719 137.152344 132.019531 134.949219 132.96875 " fill-opacity="1" fill-rule="nonzero"/></g><g clip-path="url(#d42e8554aa)"><path fill="#f5a30d" d="M 89.25 156.46875 C 104.480469 163 119.714844 169.53125 134.953125 176.0625 C 136.214844 176.605469 137.785156 175.996094 137.785156 174.441406 L 137.785156 164.042969 C 137.785156 163.445312 137.441406 162.671875 136.851562 162.417969 C 127.949219 158.605469 119.042969 154.785156 110.140625 150.964844 C 107.933594 150.023438 106.011719 153.257812 108.238281 154.214844 C 117.144531 158.027344 126.042969 161.847656 134.953125 165.664062 C 134.640625 165.125 134.328125 164.582031 134.015625 164.042969 L 134.015625 174.441406 C 134.964844 173.898438 135.90625 173.359375 136.851562 172.816406 C 121.617188 166.285156 106.382812 159.753906 91.152344 153.222656 C 88.941406 152.273438 87.023438 155.511719 89.25 156.46875 " fill-opacity="1" fill-rule="nonzero"/></g><path fill="#f5a30d" d="M 213.28125 48.085938 L 213.28125 55.757812 C 213.28125 58.179688 217.046875 58.179688 217.046875 55.757812 L 217.046875 48.085938 C 217.046875 45.664062 213.28125 45.664062 213.28125 48.085938 " fill-opacity="1" fill-rule="nonzero"/><path fill="#f5a30d" d="M 218.863281 50.042969 L 211.175781 50.042969 C 208.746094 50.042969 208.746094 53.800781 211.175781 53.800781 L 218.863281 53.800781 C 221.292969 53.800781 221.292969 50.042969 218.863281 50.042969 " fill-opacity="1" fill-rule="nonzero"/><path fill="#f5a30d" d="M 174.078125 150.351562 L 174.078125 158.019531 C 174.078125 160.445312 177.84375 160.445312 177.84375 158.019531 L 177.84375 150.351562 C 177.84375 147.925781 174.078125 147.925781 174.078125 150.351562 " fill-opacity="1" fill-rule="nonzero"/><path fill="#f5a30d" d="M 179.664062 152.308594 L 171.976562 152.308594 C 169.546875 152.308594 169.546875 156.066406 171.976562 156.066406 L 179.664062 156.066406 C 182.09375 156.066406 182.09375 152.308594 179.664062 152.308594 " fill-opacity="1" fill-rule="nonzero"/><g fill="#f5baaa" fill-opacity="1"><g transform="translate(1.796189, 288.739871)"><g><path d="M 2.90625 -42.21875 C 2.90625 -41.59375 2.90625 -40.96875 2.90625 -40.34375 C 2.90625 -39.726562 2.945312 -39.113281 3.03125 -38.5 C 3.03125 -38.03125 3.03125 -37.582031 3.03125 -37.15625 C 3.03125 -36.726562 3.066406 -36.28125 3.140625 -35.8125 C 3.210938 -35.507812 3.25 -35.179688 3.25 -34.828125 C 3.25 -34.484375 3.289062 -34.113281 3.375 -33.71875 C 3.445312 -33.488281 3.539062 -33.273438 3.65625 -33.078125 C 3.78125 -32.890625 3.878906 -32.679688 3.953125 -32.453125 C 3.953125 -31.898438 3.992188 -31.472656 4.078125 -31.171875 C 4.148438 -31.015625 4.164062 -30.835938 4.125 -30.640625 C 4.09375 -30.453125 4.113281 -30.28125 4.1875 -30.125 L 4.53125 -28.953125 C 4.6875 -28.253906 4.921875 -27.554688 5.234375 -26.859375 C 5.546875 -26.160156 5.816406 -25.425781 6.046875 -24.65625 C 6.273438 -24.113281 6.582031 -23.53125 6.96875 -22.90625 C 7.363281 -22.289062 7.71875 -21.671875 8.03125 -21.046875 L 8.140625 -20.578125 C 8.296875 -20.429688 8.429688 -20.28125 8.546875 -20.125 C 8.660156 -19.96875 8.757812 -19.8125 8.84375 -19.65625 C 9.070312 -19.269531 9.265625 -18.878906 9.421875 -18.484375 C 9.578125 -18.097656 9.769531 -17.710938 10 -17.328125 L 10.9375 -16.046875 C 11.632812 -15.191406 12.390625 -14.300781 13.203125 -13.375 C 14.015625 -12.445312 14.804688 -11.632812 15.578125 -10.9375 C 16.046875 -10.539062 16.492188 -10.109375 16.921875 -9.640625 C 17.347656 -9.179688 17.796875 -8.757812 18.265625 -8.375 C 18.492188 -8.21875 18.722656 -8.039062 18.953125 -7.84375 C 19.191406 -7.65625 19.382812 -7.484375 19.53125 -7.328125 C 19.769531 -7.171875 20.003906 -7.050781 20.234375 -6.96875 C 20.460938 -6.894531 20.695312 -6.78125 20.9375 -6.625 C 21.09375 -6.550781 21.5 -6.242188 22.15625 -5.703125 C 22.8125 -5.160156 23.488281 -4.691406 24.1875 -4.296875 C 24.882812 -3.910156 25.347656 -3.796875 25.578125 -3.953125 C 25.347656 -3.722656 25.425781 -3.53125 25.8125 -3.375 C 26.28125 -3.144531 26.765625 -2.953125 27.265625 -2.796875 C 27.773438 -2.640625 28.300781 -2.484375 28.84375 -2.328125 C 29.457031 -2.171875 30.054688 -1.957031 30.640625 -1.6875 C 31.222656 -1.414062 31.785156 -1.164062 32.328125 -0.9375 C 33.023438 -0.625 33.644531 -0.425781 34.1875 -0.34375 C 34.34375 -0.269531 34.515625 -0.269531 34.703125 -0.34375 C 34.898438 -0.425781 35.039062 -0.425781 35.125 -0.34375 C 35.351562 -0.269531 35.5625 -0.175781 35.75 -0.0625 C 35.945312 0.0507812 36.164062 0.109375 36.40625 0.109375 C 36.476562 0.191406 36.550781 0.210938 36.625 0.171875 C 36.707031 0.128906 36.785156 0.109375 36.859375 0.109375 C 37.171875 0.191406 37.5 0.269531 37.84375 0.34375 C 38.195312 0.425781 38.53125 0.503906 38.84375 0.578125 C 39.070312 0.578125 39.300781 0.554688 39.53125 0.515625 C 39.769531 0.484375 40.003906 0.503906 40.234375 0.578125 C 40.472656 0.734375 40.898438 0.8125 41.515625 0.8125 C 42.140625 0.8125 42.757812 0.65625 43.375 0.34375 C 43.613281 0.34375 43.804688 0.265625 43.953125 0.109375 L 44.3125 -0.109375 C 44.382812 -0.265625 44.457031 -0.398438 44.53125 -0.515625 C 44.613281 -0.640625 44.65625 -0.738281 44.65625 -0.8125 C 44.8125 -1.125 44.867188 -1.507812 44.828125 -1.96875 C 44.796875 -2.4375 44.78125 -2.828125 44.78125 -3.140625 C 44.851562 -3.609375 44.890625 -4.070312 44.890625 -4.53125 C 44.890625 -5 44.890625 -5.46875 44.890625 -5.9375 C 44.960938 -6.476562 45 -6.976562 45 -7.4375 C 45 -7.90625 45 -8.410156 45 -8.953125 C 45 -9.421875 45 -9.882812 45 -10.34375 C 45 -10.8125 44.960938 -11.28125 44.890625 -11.75 L 44.890625 -12.21875 C 44.890625 -12.363281 44.890625 -12.492188 44.890625 -12.609375 C 44.890625 -12.734375 44.890625 -12.832031 44.890625 -12.90625 C 44.890625 -13.0625 44.867188 -13.234375 44.828125 -13.421875 C 44.796875 -13.617188 44.703125 -13.875 44.546875 -14.1875 C 44.460938 -14.34375 44.378906 -14.457031 44.296875 -14.53125 C 44.222656 -14.613281 44.109375 -14.691406 43.953125 -14.765625 C 43.566406 -15.148438 43.257812 -15.382812 43.03125 -15.46875 C 42.5625 -15.625 42.019531 -15.78125 41.40625 -15.9375 C 41.25 -16.007812 41.050781 -16.046875 40.8125 -16.046875 C 40.582031 -16.046875 40.351562 -16.085938 40.125 -16.171875 C 39.65625 -16.171875 39.34375 -16.207031 39.1875 -16.28125 C 38.101562 -16.507812 37.019531 -16.835938 35.9375 -17.265625 C 34.851562 -17.691406 33.804688 -18.175781 32.796875 -18.71875 C 32.097656 -19.113281 31.359375 -19.519531 30.578125 -19.9375 C 29.804688 -20.363281 29.113281 -20.8125 28.5 -21.28125 C 28.257812 -21.507812 28.0625 -21.757812 27.90625 -22.03125 C 27.75 -22.300781 27.554688 -22.515625 27.328125 -22.671875 C 26.785156 -23.210938 26.28125 -23.71875 25.8125 -24.1875 C 25.351562 -24.65625 24.925781 -25.160156 24.53125 -25.703125 C 24.300781 -26.085938 24.03125 -26.4375 23.71875 -26.75 C 23.414062 -27.0625 23.1875 -27.367188 23.03125 -27.671875 L 22.21875 -29.078125 C 22.21875 -29.148438 22.21875 -29.207031 22.21875 -29.25 C 22.21875 -29.289062 22.21875 -29.347656 22.21875 -29.421875 C 22.132812 -29.578125 22.035156 -29.734375 21.921875 -29.890625 C 21.804688 -30.046875 21.75 -30.203125 21.75 -30.359375 C 21.664062 -30.515625 21.644531 -30.648438 21.6875 -30.765625 C 21.726562 -30.878906 21.75 -30.972656 21.75 -31.046875 C 21.75 -31.285156 21.863281 -31.519531 22.09375 -31.75 C 22.25 -32.0625 22.484375 -32.253906 22.796875 -32.328125 C 23.023438 -32.484375 23.273438 -32.5625 23.546875 -32.5625 C 23.816406 -32.5625 24.070312 -32.5625 24.3125 -32.5625 C 25.394531 -32.5625 26.5 -32.539062 27.625 -32.5 C 28.75 -32.46875 29.890625 -32.453125 31.046875 -32.453125 C 32.128906 -32.453125 33.234375 -32.488281 34.359375 -32.5625 C 35.484375 -32.632812 36.550781 -32.632812 37.5625 -32.5625 C 37.945312 -32.488281 38.296875 -32.453125 38.609375 -32.453125 C 38.921875 -32.453125 39.234375 -32.453125 39.546875 -32.453125 C 40.085938 -32.453125 40.585938 -32.507812 41.046875 -32.625 C 41.515625 -32.738281 41.984375 -32.953125 42.453125 -33.265625 C 43.066406 -33.722656 43.410156 -34.398438 43.484375 -35.296875 C 43.566406 -36.191406 43.609375 -36.945312 43.609375 -37.5625 C 43.609375 -37.71875 43.566406 -37.8125 43.484375 -37.84375 C 43.410156 -37.882812 43.375 -37.945312 43.375 -38.03125 C 43.375 -38.03125 43.394531 -38.046875 43.4375 -38.078125 C 43.476562 -38.117188 43.5 -38.179688 43.5 -38.265625 L 43.5 -42.5625 C 43.5 -42.945312 43.5 -43.375 43.5 -43.84375 C 43.5 -44.3125 43.5 -44.738281 43.5 -45.125 C 43.5 -45.351562 43.5 -45.601562 43.5 -45.875 C 43.5 -46.144531 43.457031 -46.398438 43.375 -46.640625 C 43.21875 -47.492188 42.789062 -48.148438 42.09375 -48.609375 C 42.019531 -48.609375 41.941406 -48.648438 41.859375 -48.734375 C 41.554688 -48.890625 41.132812 -48.96875 40.59375 -48.96875 C 40.050781 -48.96875 39.582031 -48.96875 39.1875 -48.96875 L 38.953125 -48.96875 C 38.492188 -48.96875 38.03125 -49.003906 37.5625 -49.078125 C 37.09375 -49.148438 36.628906 -49.1875 36.171875 -49.1875 C 35.628906 -49.113281 35.101562 -49.078125 34.59375 -49.078125 C 34.09375 -49.078125 33.53125 -49.078125 32.90625 -49.078125 C 31.820312 -49.003906 30.71875 -48.96875 29.59375 -48.96875 C 28.46875 -48.96875 27.363281 -48.96875 26.28125 -48.96875 C 26.207031 -48.96875 26.148438 -49.003906 26.109375 -49.078125 C 26.066406 -49.148438 26.007812 -49.148438 25.9375 -49.078125 L 25.578125 -49.078125 C 25.578125 -49.078125 25.539062 -49.078125 25.46875 -49.078125 C 25.238281 -49.078125 24.988281 -49.09375 24.71875 -49.125 C 24.445312 -49.164062 24.191406 -49.1875 23.953125 -49.1875 C 23.722656 -49.1875 23.507812 -49.164062 23.3125 -49.125 C 23.125 -49.09375 22.910156 -49.113281 22.671875 -49.1875 C 22.441406 -49.34375 22.25 -49.539062 22.09375 -49.78125 C 22.019531 -49.925781 21.984375 -50.054688 21.984375 -50.171875 C 21.984375 -50.296875 21.984375 -50.394531 21.984375 -50.46875 C 21.984375 -50.550781 21.941406 -50.628906 21.859375 -50.703125 C 21.785156 -50.785156 21.75 -50.863281 21.75 -50.9375 L 22.21875 -51.75 C 22.363281 -51.976562 22.457031 -52.207031 22.5 -52.4375 C 22.539062 -52.675781 22.597656 -52.910156 22.671875 -53.140625 C 24.378906 -56.171875 26.707031 -58.75 29.65625 -60.875 C 32.601562 -63.007812 35.742188 -64.46875 39.078125 -65.25 L 40.703125 -65.59375 C 40.859375 -65.59375 40.992188 -65.570312 41.109375 -65.53125 C 41.222656 -65.488281 41.320312 -65.507812 41.40625 -65.59375 L 41.859375 -65.59375 C 43.179688 -65.75 44.015625 -66.289062 44.359375 -67.21875 C 44.710938 -68.144531 44.925781 -69.15625 45 -70.25 C 45.082031 -70.789062 45.125 -71.347656 45.125 -71.921875 C 45.125 -72.503906 45.125 -73.066406 45.125 -73.609375 C 45.125 -75.628906 45.007812 -77.609375 44.78125 -79.546875 C 44.695312 -79.703125 44.65625 -79.894531 44.65625 -80.125 C 44.65625 -80.363281 44.578125 -80.554688 44.421875 -80.703125 C 44.109375 -81.328125 43.640625 -81.734375 43.015625 -81.921875 C 42.398438 -82.117188 41.785156 -82.179688 41.171875 -82.109375 C 40.859375 -82.023438 40.582031 -82.003906 40.34375 -82.046875 C 40.113281 -82.085938 39.847656 -82.066406 39.546875 -81.984375 C 39.390625 -81.984375 39.210938 -81.941406 39.015625 -81.859375 C 38.828125 -81.785156 38.65625 -81.75 38.5 -81.75 C 38.1875 -81.675781 37.894531 -81.640625 37.625 -81.640625 C 37.351562 -81.640625 37.097656 -81.640625 36.859375 -81.640625 L 34.546875 -81.0625 C 34.234375 -81.0625 34 -81.019531 33.84375 -80.9375 C 33.757812 -80.863281 33.660156 -80.785156 33.546875 -80.703125 C 33.429688 -80.628906 33.296875 -80.59375 33.140625 -80.59375 C 33.066406 -80.519531 32.96875 -80.484375 32.84375 -80.484375 C 32.726562 -80.484375 32.597656 -80.441406 32.453125 -80.359375 C 32.367188 -80.359375 32.285156 -80.378906 32.203125 -80.421875 C 32.128906 -80.460938 32.054688 -80.441406 31.984375 -80.359375 C 31.671875 -80.359375 31.476562 -80.320312 31.40625 -80.25 C 31.320312 -80.25 31.238281 -80.1875 31.15625 -80.0625 C 31.082031 -79.945312 30.96875 -79.890625 30.8125 -79.890625 C 30.582031 -79.816406 30.332031 -79.738281 30.0625 -79.65625 C 29.789062 -79.582031 29.539062 -79.507812 29.3125 -79.4375 C 29.070312 -79.351562 28.816406 -79.269531 28.546875 -79.1875 C 28.273438 -79.113281 27.984375 -79 27.671875 -78.84375 C 27.597656 -78.84375 27.539062 -78.800781 27.5 -78.71875 C 27.46875 -78.644531 27.375 -78.609375 27.21875 -78.609375 C 27.132812 -78.535156 27.015625 -78.476562 26.859375 -78.4375 C 26.703125 -78.40625 26.550781 -78.3125 26.40625 -78.15625 C 26.09375 -78.070312 25.78125 -77.875 25.46875 -77.5625 C 25.3125 -77.5625 25.234375 -77.5625 25.234375 -77.5625 C 25.160156 -77.5625 25.125 -77.523438 25.125 -77.453125 C 25.125 -77.378906 25.082031 -77.300781 25 -77.21875 C 24.84375 -77.144531 24.664062 -77.066406 24.46875 -76.984375 C 24.28125 -76.910156 24.109375 -76.832031 23.953125 -76.75 C 23.878906 -76.675781 23.742188 -76.617188 23.546875 -76.578125 C 23.359375 -76.535156 23.1875 -76.476562 23.03125 -76.40625 L 19.421875 -73.96875 C 19.347656 -73.882812 19.269531 -73.800781 19.1875 -73.71875 C 19.113281 -73.644531 19.035156 -73.570312 18.953125 -73.5 C 18.492188 -73.1875 18.144531 -72.914062 17.90625 -72.6875 C 16.664062 -71.675781 15.441406 -70.507812 14.234375 -69.1875 C 13.035156 -67.875 11.9375 -66.5625 10.9375 -65.25 C 10.46875 -64.695312 10.019531 -64.070312 9.59375 -63.375 C 9.164062 -62.675781 8.757812 -62.019531 8.375 -61.40625 C 7.519531 -59.78125 6.722656 -58.070312 5.984375 -56.28125 C 5.253906 -54.5 4.691406 -52.679688 4.296875 -50.828125 C 4.222656 -50.585938 4.066406 -49.960938 3.828125 -48.953125 C 3.597656 -47.953125 3.40625 -47.003906 3.25 -46.109375 C 3.101562 -45.222656 3.101562 -44.738281 3.25 -44.65625 C 3.019531 -43.882812 2.90625 -43.070312 2.90625 -42.21875 Z M 2.90625 -42.21875 "/></g></g></g><g fill="#f5baaa" fill-opacity="1"><g transform="translate(52.723529, 288.739871)"><g><path d="M 53.96875 -40.703125 C 53.96875 -42.023438 54.003906 -43.34375 54.078125 -44.65625 C 54.148438 -45.976562 54.1875 -47.257812 54.1875 -48.5 C 54.1875 -49.8125 54.164062 -51.125 54.125 -52.4375 C 54.09375 -53.757812 54.078125 -55.039062 54.078125 -56.28125 L 54.078125 -64.078125 C 54.078125 -65.398438 54.09375 -66.71875 54.125 -68.03125 C 54.164062 -69.351562 54.1875 -70.671875 54.1875 -71.984375 C 54.1875 -73.304688 54.164062 -74.601562 54.125 -75.875 C 54.09375 -77.15625 54.078125 -78.457031 54.078125 -79.78125 C 54.078125 -79.851562 54.054688 -79.910156 54.015625 -79.953125 C 53.984375 -79.992188 53.96875 -80.050781 53.96875 -80.125 C 53.882812 -80.28125 53.863281 -80.394531 53.90625 -80.46875 C 53.945312 -80.550781 53.925781 -80.628906 53.84375 -80.703125 C 53.84375 -81.015625 53.765625 -81.25 53.609375 -81.40625 L 53.03125 -81.40625 C 52.5625 -81.40625 51.6875 -81.40625 50.40625 -81.40625 C 49.132812 -81.40625 47.738281 -81.382812 46.21875 -81.34375 C 44.707031 -81.3125 43.367188 -81.296875 42.203125 -81.296875 C 41.046875 -81.296875 40.390625 -81.296875 40.234375 -81.296875 L 40 -81.296875 C 39.539062 -81.296875 39.234375 -81.097656 39.078125 -80.703125 L 39.078125 -79.78125 C 39.078125 -78.300781 39.113281 -76.84375 39.1875 -75.40625 C 39.269531 -73.976562 39.3125 -72.488281 39.3125 -70.9375 C 39.3125 -69.46875 39.289062 -68.015625 39.25 -66.578125 C 39.207031 -65.140625 39.1875 -63.648438 39.1875 -62.109375 C 39.1875 -60.628906 39.144531 -59.171875 39.0625 -57.734375 C 38.988281 -56.304688 38.953125 -54.816406 38.953125 -53.265625 C 38.953125 -51.785156 38.988281 -50.328125 39.0625 -48.890625 C 39.144531 -47.460938 39.1875 -45.972656 39.1875 -44.421875 C 39.1875 -42.953125 39.144531 -41.5 39.0625 -40.0625 C 38.988281 -38.625 38.953125 -37.132812 38.953125 -35.59375 C 38.953125 -34.113281 39.007812 -32.65625 39.125 -31.21875 C 39.25 -29.789062 39.3125 -28.300781 39.3125 -26.75 C 39.3125 -25.269531 39.269531 -23.8125 39.1875 -22.375 C 39.113281 -20.945312 39.078125 -19.457031 39.078125 -17.90625 C 39.078125 -17.832031 39.054688 -17.71875 39.015625 -17.5625 C 38.972656 -17.40625 38.992188 -17.25 39.078125 -17.09375 L 39.078125 -16.984375 C 39.078125 -16.898438 39.09375 -16.816406 39.125 -16.734375 C 39.164062 -16.660156 39.148438 -16.546875 39.078125 -16.390625 C 39.078125 -16.316406 39 -16.203125 38.84375 -16.046875 C 38.84375 -15.816406 38.765625 -15.660156 38.609375 -15.578125 C 38.453125 -15.503906 38.179688 -15.46875 37.796875 -15.46875 C 37.328125 -15.46875 37.015625 -15.503906 36.859375 -15.578125 C 36.628906 -15.578125 36.378906 -15.578125 36.109375 -15.578125 C 35.835938 -15.578125 35.585938 -15.617188 35.359375 -15.703125 C 35.117188 -15.773438 34.898438 -15.890625 34.703125 -16.046875 C 34.515625 -16.203125 34.304688 -16.316406 34.078125 -16.390625 C 33.765625 -16.546875 33.414062 -16.660156 33.03125 -16.734375 C 32.644531 -16.816406 32.253906 -16.898438 31.859375 -16.984375 C 31.472656 -17.210938 31.046875 -17.421875 30.578125 -17.609375 C 30.117188 -17.804688 29.695312 -18.023438 29.3125 -18.265625 C 29 -18.492188 28.707031 -18.742188 28.4375 -19.015625 C 28.164062 -19.285156 27.875 -19.535156 27.5625 -19.765625 L 26.859375 -20.46875 C 26.785156 -20.539062 26.59375 -20.65625 26.28125 -20.8125 C 26.28125 -20.96875 26.28125 -21.046875 26.28125 -21.046875 C 26.28125 -21.046875 26.164062 -21.164062 25.9375 -21.40625 L 25.359375 -21.984375 C 25.273438 -22.140625 25.175781 -22.332031 25.0625 -22.5625 C 24.945312 -22.789062 24.8125 -22.984375 24.65625 -23.140625 C 24.5 -23.367188 24.363281 -23.597656 24.25 -23.828125 C 24.132812 -24.066406 24 -24.300781 23.84375 -24.53125 C 23.757812 -24.769531 23.640625 -25.003906 23.484375 -25.234375 C 23.335938 -25.460938 23.222656 -25.695312 23.140625 -25.9375 C 22.984375 -26.25 22.804688 -26.5 22.609375 -26.6875 C 22.421875 -26.882812 22.289062 -27.140625 22.21875 -27.453125 C 21.90625 -28.222656 21.671875 -29.070312 21.515625 -30 C 21.441406 -30.394531 21.40625 -30.800781 21.40625 -31.21875 C 21.40625 -31.644531 21.363281 -32.054688 21.28125 -32.453125 C 21.050781 -33.992188 20.9375 -35.460938 20.9375 -36.859375 L 20.9375 -45.46875 C 20.9375 -46.945312 20.953125 -48.398438 20.984375 -49.828125 C 21.023438 -51.265625 21.046875 -52.679688 21.046875 -54.078125 C 21.046875 -55.546875 21.003906 -57 20.921875 -58.4375 C 20.847656 -59.875 20.8125 -61.289062 20.8125 -62.6875 C 20.8125 -64.15625 20.832031 -65.609375 20.875 -67.046875 C 20.914062 -68.484375 20.9375 -69.898438 20.9375 -71.296875 C 20.9375 -72.765625 20.894531 -74.210938 20.8125 -75.640625 C 20.738281 -77.078125 20.703125 -78.492188 20.703125 -79.890625 L 20.703125 -80.59375 C 20.617188 -80.820312 20.460938 -80.976562 20.234375 -81.0625 C 20.160156 -81.0625 20.082031 -81.117188 20 -81.234375 C 19.925781 -81.347656 19.847656 -81.40625 19.765625 -81.40625 C 18.765625 -81.40625 17.71875 -81.382812 16.625 -81.34375 C 15.539062 -81.3125 14.457031 -81.296875 13.375 -81.296875 C 12.363281 -81.296875 11.332031 -81.273438 10.28125 -81.234375 C 9.238281 -81.191406 8.175781 -81.171875 7.09375 -81.171875 C 7.019531 -81.171875 6.984375 -81.191406 6.984375 -81.234375 C 6.984375 -81.273438 6.941406 -81.296875 6.859375 -81.296875 C 6.546875 -81.296875 6.3125 -81.0625 6.15625 -80.59375 C 6.007812 -80.28125 5.9375 -80.046875 5.9375 -79.890625 C 5.9375 -78.648438 5.914062 -77.390625 5.875 -76.109375 C 5.832031 -74.835938 5.8125 -73.539062 5.8125 -72.21875 C 5.8125 -70.976562 5.847656 -69.738281 5.921875 -68.5 C 6.003906 -67.257812 6.046875 -65.976562 6.046875 -64.65625 C 6.046875 -63.414062 6.023438 -62.15625 5.984375 -60.875 C 5.953125 -59.601562 5.9375 -58.304688 5.9375 -56.984375 L 5.9375 -49.421875 C 5.9375 -48.179688 5.9375 -46.921875 5.9375 -45.640625 C 5.9375 -44.367188 5.9375 -43.109375 5.9375 -41.859375 C 5.9375 -39.921875 5.953125 -37.984375 5.984375 -36.046875 C 6.023438 -34.109375 6.160156 -32.171875 6.390625 -30.234375 L 6.75 -28.609375 C 6.820312 -28.222656 6.878906 -27.832031 6.921875 -27.4375 C 6.960938 -27.050781 7.019531 -26.664062 7.09375 -26.28125 C 7.25 -25.664062 7.441406 -25.046875 7.671875 -24.421875 C 7.910156 -23.796875 8.144531 -23.175781 8.375 -22.5625 C 8.53125 -22.25 8.664062 -21.9375 8.78125 -21.625 C 8.894531 -21.320312 9.03125 -21.015625 9.1875 -20.703125 C 9.257812 -20.390625 9.332031 -20.097656 9.40625 -19.828125 C 9.488281 -19.554688 9.570312 -19.304688 9.65625 -19.078125 C 9.726562 -18.921875 9.859375 -18.742188 10.046875 -18.546875 C 10.242188 -18.359375 10.382812 -18.1875 10.46875 -18.03125 C 10.625 -17.71875 10.738281 -17.425781 10.8125 -17.15625 C 10.894531 -16.882812 11.015625 -16.59375 11.171875 -16.28125 C 11.242188 -16.125 11.335938 -15.988281 11.453125 -15.875 C 11.566406 -15.757812 11.664062 -15.625 11.75 -15.46875 C 11.90625 -15.15625 12.117188 -14.878906 12.390625 -14.640625 C 12.660156 -14.410156 12.875 -14.144531 13.03125 -13.84375 C 13.1875 -13.53125 13.359375 -13.21875 13.546875 -12.90625 C 13.742188 -12.59375 13.957031 -12.320312 14.1875 -12.09375 C 14.34375 -11.863281 14.5 -11.671875 14.65625 -11.515625 C 14.8125 -11.359375 14.96875 -11.203125 15.125 -11.046875 C 15.269531 -10.890625 15.441406 -10.753906 15.640625 -10.640625 C 15.835938 -10.523438 15.972656 -10.390625 16.046875 -10.234375 L 16.390625 -9.890625 C 16.472656 -9.890625 16.515625 -9.847656 16.515625 -9.765625 C 16.515625 -9.691406 16.550781 -9.613281 16.625 -9.53125 C 16.863281 -9.300781 17.117188 -9.109375 17.390625 -8.953125 C 17.660156 -8.796875 17.910156 -8.601562 18.140625 -8.375 C 18.367188 -8.21875 18.597656 -8.003906 18.828125 -7.734375 C 19.066406 -7.460938 19.34375 -7.25 19.65625 -7.09375 C 20.039062 -6.78125 20.40625 -6.507812 20.75 -6.28125 C 21.101562 -6.050781 21.4375 -5.816406 21.75 -5.578125 C 22.207031 -5.265625 22.671875 -4.972656 23.140625 -4.703125 C 23.609375 -4.429688 24.070312 -4.179688 24.53125 -3.953125 C 24.925781 -3.796875 25.296875 -3.660156 25.640625 -3.546875 C 25.992188 -3.429688 26.320312 -3.296875 26.625 -3.140625 C 26.78125 -3.066406 26.957031 -2.96875 27.15625 -2.84375 C 27.351562 -2.726562 27.566406 -2.632812 27.796875 -2.5625 C 28.023438 -2.476562 28.273438 -2.394531 28.546875 -2.3125 C 28.816406 -2.238281 29.109375 -2.128906 29.421875 -1.984375 C 29.804688 -1.898438 30.15625 -1.800781 30.46875 -1.6875 C 30.78125 -1.570312 31.09375 -1.472656 31.40625 -1.390625 L 32.90625 -1.046875 C 33.144531 -0.972656 33.378906 -0.9375 33.609375 -0.9375 C 33.835938 -0.9375 34.070312 -0.894531 34.3125 -0.8125 C 34.46875 -0.738281 34.660156 -0.660156 34.890625 -0.578125 C 35.117188 -0.503906 35.3125 -0.46875 35.46875 -0.46875 C 35.851562 -0.382812 36.203125 -0.34375 36.515625 -0.34375 C 36.828125 -0.34375 37.140625 -0.34375 37.453125 -0.34375 C 37.679688 -0.269531 38.109375 -0.234375 38.734375 -0.234375 C 39.890625 -0.148438 40.582031 -0.0859375 40.8125 -0.046875 C 41.050781 -0.015625 41.1875 -0.015625 41.21875 -0.046875 C 41.257812 -0.0859375 41.550781 -0.109375 42.09375 -0.109375 L 42.796875 -0.109375 C 42.953125 -0.191406 43.265625 -0.234375 43.734375 -0.234375 C 45.203125 -0.234375 46.632812 -0.191406 48.03125 -0.109375 C 49.425781 -0.0351562 50.820312 0 52.21875 0 L 52.5625 -0.234375 C 52.71875 -0.148438 52.851562 -0.128906 52.96875 -0.171875 C 53.082031 -0.210938 53.179688 -0.234375 53.265625 -0.234375 C 53.734375 -0.234375 53.96875 -0.46875 53.96875 -0.9375 C 53.96875 -1.082031 54.003906 -1.210938 54.078125 -1.328125 C 54.148438 -1.453125 54.1875 -1.59375 54.1875 -1.75 C 54.1875 -3.0625 54.164062 -4.359375 54.125 -5.640625 C 54.09375 -6.921875 54.078125 -8.21875 54.078125 -9.53125 L 54.078125 -17.328125 C 54.078125 -18.648438 54.054688 -19.96875 54.015625 -21.28125 C 53.984375 -22.601562 53.96875 -23.882812 53.96875 -25.125 L 53.96875 -32.90625 C 53.96875 -34.226562 53.96875 -35.546875 53.96875 -36.859375 C 53.96875 -38.179688 53.96875 -39.460938 53.96875 -40.703125 Z M 53.96875 -40.703125 "/></g></g></g><g fill="#f5baaa" fill-opacity="1"><g transform="translate(114.464225, 288.739871)"><g><path d="M 2.90625 -42.21875 C 2.90625 -41.59375 2.90625 -40.96875 2.90625 -40.34375 C 2.90625 -39.726562 2.945312 -39.113281 3.03125 -38.5 C 3.03125 -38.03125 3.03125 -37.582031 3.03125 -37.15625 C 3.03125 -36.726562 3.066406 -36.28125 3.140625 -35.8125 C 3.210938 -35.507812 3.25 -35.179688 3.25 -34.828125 C 3.25 -34.484375 3.289062 -34.113281 3.375 -33.71875 C 3.445312 -33.488281 3.539062 -33.273438 3.65625 -33.078125 C 3.78125 -32.890625 3.878906 -32.679688 3.953125 -32.453125 C 3.953125 -31.898438 3.992188 -31.472656 4.078125 -31.171875 C 4.148438 -31.015625 4.164062 -30.835938 4.125 -30.640625 C 4.09375 -30.453125 4.113281 -30.28125 4.1875 -30.125 L 4.53125 -28.953125 C 4.6875 -28.253906 4.921875 -27.554688 5.234375 -26.859375 C 5.546875 -26.160156 5.816406 -25.425781 6.046875 -24.65625 C 6.273438 -24.113281 6.582031 -23.53125 6.96875 -22.90625 C 7.363281 -22.289062 7.71875 -21.671875 8.03125 -21.046875 L 8.140625 -20.578125 C 8.296875 -20.429688 8.429688 -20.28125 8.546875 -20.125 C 8.660156 -19.96875 8.757812 -19.8125 8.84375 -19.65625 C 9.070312 -19.269531 9.265625 -18.878906 9.421875 -18.484375 C 9.578125 -18.097656 9.769531 -17.710938 10 -17.328125 L 10.9375 -16.046875 C 11.632812 -15.191406 12.390625 -14.300781 13.203125 -13.375 C 14.015625 -12.445312 14.804688 -11.632812 15.578125 -10.9375 C 16.046875 -10.539062 16.492188 -10.109375 16.921875 -9.640625 C 17.347656 -9.179688 17.796875 -8.757812 18.265625 -8.375 C 18.492188 -8.21875 18.722656 -8.039062 18.953125 -7.84375 C 19.191406 -7.65625 19.382812 -7.484375 19.53125 -7.328125 C 19.769531 -7.171875 20.003906 -7.050781 20.234375 -6.96875 C 20.460938 -6.894531 20.695312 -6.78125 20.9375 -6.625 C 21.09375 -6.550781 21.5 -6.242188 22.15625 -5.703125 C 22.8125 -5.160156 23.488281 -4.691406 24.1875 -4.296875 C 24.882812 -3.910156 25.347656 -3.796875 25.578125 -3.953125 C 25.347656 -3.722656 25.425781 -3.53125 25.8125 -3.375 C 26.28125 -3.144531 26.765625 -2.953125 27.265625 -2.796875 C 27.773438 -2.640625 28.300781 -2.484375 28.84375 -2.328125 C 29.457031 -2.171875 30.054688 -1.957031 30.640625 -1.6875 C 31.222656 -1.414062 31.785156 -1.164062 32.328125 -0.9375 C 33.023438 -0.625 33.644531 -0.425781 34.1875 -0.34375 C 34.34375 -0.269531 34.515625 -0.269531 34.703125 -0.34375 C 34.898438 -0.425781 35.039062 -0.425781 35.125 -0.34375 C 35.351562 -0.269531 35.5625 -0.175781 35.75 -0.0625 C 35.945312 0.0507812 36.164062 0.109375 36.40625 0.109375 C 36.476562 0.191406 36.550781 0.210938 36.625 0.171875 C 36.707031 0.128906 36.785156 0.109375 36.859375 0.109375 C 37.171875 0.191406 37.5 0.269531 37.84375 0.34375 C 38.195312 0.425781 38.53125 0.503906 38.84375 0.578125 C 39.070312 0.578125 39.300781 0.554688 39.53125 0.515625 C 39.769531 0.484375 40.003906 0.503906 40.234375 0.578125 C 40.472656 0.734375 40.898438 0.8125 41.515625 0.8125 C 42.140625 0.8125 42.757812 0.65625 43.375 0.34375 C 43.613281 0.34375 43.804688 0.265625 43.953125 0.109375 L 44.3125 -0.109375 C 44.382812 -0.265625 44.457031 -0.398438 44.53125 -0.515625 C 44.613281 -0.640625 44.65625 -0.738281 44.65625 -0.8125 C 44.8125 -1.125 44.867188 -1.507812 44.828125 -1.96875 C 44.796875 -2.4375 44.78125 -2.828125 44.78125 -3.140625 C 44.851562 -3.609375 44.890625 -4.070312 44.890625 -4.53125 C 44.890625 -5 44.890625 -5.46875 44.890625 -5.9375 C 44.960938 -6.476562 45 -6.976562 45 -7.4375 C 45 -7.90625 45 -8.410156 45 -8.953125 C 45 -9.421875 45 -9.882812 45 -10.34375 C 45 -10.8125 44.960938 -11.28125 44.890625 -11.75 L 44.890625 -12.21875 C 44.890625 -12.363281 44.890625 -12.492188 44.890625 -12.609375 C 44.890625 -12.734375 44.890625 -12.832031 44.890625 -12.90625 C 44.890625 -13.0625 44.867188 -13.234375 44.828125 -13.421875 C 44.796875 -13.617188 44.703125 -13.875 44.546875 -14.1875 C 44.460938 -14.34375 44.378906 -14.457031 44.296875 -14.53125 C 44.222656 -14.613281 44.109375 -14.691406 43.953125 -14.765625 C 43.566406 -15.148438 43.257812 -15.382812 43.03125 -15.46875 C 42.5625 -15.625 42.019531 -15.78125 41.40625 -15.9375 C 41.25 -16.007812 41.050781 -16.046875 40.8125 -16.046875 C 40.582031 -16.046875 40.351562 -16.085938 40.125 -16.171875 C 39.65625 -16.171875 39.34375 -16.207031 39.1875 -16.28125 C 38.101562 -16.507812 37.019531 -16.835938 35.9375 -17.265625 C 34.851562 -17.691406 33.804688 -18.175781 32.796875 -18.71875 C 32.097656 -19.113281 31.359375 -19.519531 30.578125 -19.9375 C 29.804688 -20.363281 29.113281 -20.8125 28.5 -21.28125 C 28.257812 -21.507812 28.0625 -21.757812 27.90625 -22.03125 C 27.75 -22.300781 27.554688 -22.515625 27.328125 -22.671875 C 26.785156 -23.210938 26.28125 -23.71875 25.8125 -24.1875 C 25.351562 -24.65625 24.925781 -25.160156 24.53125 -25.703125 C 24.300781 -26.085938 24.03125 -26.4375 23.71875 -26.75 C 23.414062 -27.0625 23.1875 -27.367188 23.03125 -27.671875 L 22.21875 -29.078125 C 22.21875 -29.148438 22.21875 -29.207031 22.21875 -29.25 C 22.21875 -29.289062 22.21875 -29.347656 22.21875 -29.421875 C 22.132812 -29.578125 22.035156 -29.734375 21.921875 -29.890625 C 21.804688 -30.046875 21.75 -30.203125 21.75 -30.359375 C 21.664062 -30.515625 21.644531 -30.648438 21.6875 -30.765625 C 21.726562 -30.878906 21.75 -30.972656 21.75 -31.046875 C 21.75 -31.285156 21.863281 -31.519531 22.09375 -31.75 C 22.25 -32.0625 22.484375 -32.253906 22.796875 -32.328125 C 23.023438 -32.484375 23.273438 -32.5625 23.546875 -32.5625 C 23.816406 -32.5625 24.070312 -32.5625 24.3125 -32.5625 C 25.394531 -32.5625 26.5 -32.539062 27.625 -32.5 C 28.75 -32.46875 29.890625 -32.453125 31.046875 -32.453125 C 32.128906 -32.453125 33.234375 -32.488281 34.359375 -32.5625 C 35.484375 -32.632812 36.550781 -32.632812 37.5625 -32.5625 C 37.945312 -32.488281 38.296875 -32.453125 38.609375 -32.453125 C 38.921875 -32.453125 39.234375 -32.453125 39.546875 -32.453125 C 40.085938 -32.453125 40.585938 -32.507812 41.046875 -32.625 C 41.515625 -32.738281 41.984375 -32.953125 42.453125 -33.265625 C 43.066406 -33.722656 43.410156 -34.398438 43.484375 -35.296875 C 43.566406 -36.191406 43.609375 -36.945312 43.609375 -37.5625 C 43.609375 -37.71875 43.566406 -37.8125 43.484375 -37.84375 C 43.410156 -37.882812 43.375 -37.945312 43.375 -38.03125 C 43.375 -38.03125 43.394531 -38.046875 43.4375 -38.078125 C 43.476562 -38.117188 43.5 -38.179688 43.5 -38.265625 L 43.5 -42.5625 C 43.5 -42.945312 43.5 -43.375 43.5 -43.84375 C 43.5 -44.3125 43.5 -44.738281 43.5 -45.125 C 43.5 -45.351562 43.5 -45.601562 43.5 -45.875 C 43.5 -46.144531 43.457031 -46.398438 43.375 -46.640625 C 43.21875 -47.492188 42.789062 -48.148438 42.09375 -48.609375 C 42.019531 -48.609375 41.941406 -48.648438 41.859375 -48.734375 C 41.554688 -48.890625 41.132812 -48.96875 40.59375 -48.96875 C 40.050781 -48.96875 39.582031 -48.96875 39.1875 -48.96875 L 38.953125 -48.96875 C 38.492188 -48.96875 38.03125 -49.003906 37.5625 -49.078125 C 37.09375 -49.148438 36.628906 -49.1875 36.171875 -49.1875 C 35.628906 -49.113281 35.101562 -49.078125 34.59375 -49.078125 C 34.09375 -49.078125 33.53125 -49.078125 32.90625 -49.078125 C 31.820312 -49.003906 30.71875 -48.96875 29.59375 -48.96875 C 28.46875 -48.96875 27.363281 -48.96875 26.28125 -48.96875 C 26.207031 -48.96875 26.148438 -49.003906 26.109375 -49.078125 C 26.066406 -49.148438 26.007812 -49.148438 25.9375 -49.078125 L 25.578125 -49.078125 C 25.578125 -49.078125 25.539062 -49.078125 25.46875 -49.078125 C 25.238281 -49.078125 24.988281 -49.09375 24.71875 -49.125 C 24.445312 -49.164062 24.191406 -49.1875 23.953125 -49.1875 C 23.722656 -49.1875 23.507812 -49.164062 23.3125 -49.125 C 23.125 -49.09375 22.910156 -49.113281 22.671875 -49.1875 C 22.441406 -49.34375 22.25 -49.539062 22.09375 -49.78125 C 22.019531 -49.925781 21.984375 -50.054688 21.984375 -50.171875 C 21.984375 -50.296875 21.984375 -50.394531 21.984375 -50.46875 C 21.984375 -50.550781 21.941406 -50.628906 21.859375 -50.703125 C 21.785156 -50.785156 21.75 -50.863281 21.75 -50.9375 L 22.21875 -51.75 C 22.363281 -51.976562 22.457031 -52.207031 22.5 -52.4375 C 22.539062 -52.675781 22.597656 -52.910156 22.671875 -53.140625 C 24.378906 -56.171875 26.707031 -58.75 29.65625 -60.875 C 32.601562 -63.007812 35.742188 -64.46875 39.078125 -65.25 L 40.703125 -65.59375 C 40.859375 -65.59375 40.992188 -65.570312 41.109375 -65.53125 C 41.222656 -65.488281 41.320312 -65.507812 41.40625 -65.59375 L 41.859375 -65.59375 C 43.179688 -65.75 44.015625 -66.289062 44.359375 -67.21875 C 44.710938 -68.144531 44.925781 -69.15625 45 -70.25 C 45.082031 -70.789062 45.125 -71.347656 45.125 -71.921875 C 45.125 -72.503906 45.125 -73.066406 45.125 -73.609375 C 45.125 -75.628906 45.007812 -77.609375 44.78125 -79.546875 C 44.695312 -79.703125 44.65625 -79.894531 44.65625 -80.125 C 44.65625 -80.363281 44.578125 -80.554688 44.421875 -80.703125 C 44.109375 -81.328125 43.640625 -81.734375 43.015625 -81.921875 C 42.398438 -82.117188 41.785156 -82.179688 41.171875 -82.109375 C 40.859375 -82.023438 40.582031 -82.003906 40.34375 -82.046875 C 40.113281 -82.085938 39.847656 -82.066406 39.546875 -81.984375 C 39.390625 -81.984375 39.210938 -81.941406 39.015625 -81.859375 C 38.828125 -81.785156 38.65625 -81.75 38.5 -81.75 C 38.1875 -81.675781 37.894531 -81.640625 37.625 -81.640625 C 37.351562 -81.640625 37.097656 -81.640625 36.859375 -81.640625 L 34.546875 -81.0625 C 34.234375 -81.0625 34 -81.019531 33.84375 -80.9375 C 33.757812 -80.863281 33.660156 -80.785156 33.546875 -80.703125 C 33.429688 -80.628906 33.296875 -80.59375 33.140625 -80.59375 C 33.066406 -80.519531 32.96875 -80.484375 32.84375 -80.484375 C 32.726562 -80.484375 32.597656 -80.441406 32.453125 -80.359375 C 32.367188 -80.359375 32.285156 -80.378906 32.203125 -80.421875 C 32.128906 -80.460938 32.054688 -80.441406 31.984375 -80.359375 C 31.671875 -80.359375 31.476562 -80.320312 31.40625 -80.25 C 31.320312 -80.25 31.238281 -80.1875 31.15625 -80.0625 C 31.082031 -79.945312 30.96875 -79.890625 30.8125 -79.890625 C 30.582031 -79.816406 30.332031 -79.738281 30.0625 -79.65625 C 29.789062 -79.582031 29.539062 -79.507812 29.3125 -79.4375 C 29.070312 -79.351562 28.816406 -79.269531 28.546875 -79.1875 C 28.273438 -79.113281 27.984375 -79 27.671875 -78.84375 C 27.597656 -78.84375 27.539062 -78.800781 27.5 -78.71875 C 27.46875 -78.644531 27.375 -78.609375 27.21875 -78.609375 C 27.132812 -78.535156 27.015625 -78.476562 26.859375 -78.4375 C 26.703125 -78.40625 26.550781 -78.3125 26.40625 -78.15625 C 26.09375 -78.070312 25.78125 -77.875 25.46875 -77.5625 C 25.3125 -77.5625 25.234375 -77.5625 25.234375 -77.5625 C 25.160156 -77.5625 25.125 -77.523438 25.125 -77.453125 C 25.125 -77.378906 25.082031 -77.300781 25 -77.21875 C 24.84375 -77.144531 24.664062 -77.066406 24.46875 -76.984375 C 24.28125 -76.910156 24.109375 -76.832031 23.953125 -76.75 C 23.878906 -76.675781 23.742188 -76.617188 23.546875 -76.578125 C 23.359375 -76.535156 23.1875 -76.476562 23.03125 -76.40625 L 19.421875 -73.96875 C 19.347656 -73.882812 19.269531 -73.800781 19.1875 -73.71875 C 19.113281 -73.644531 19.035156 -73.570312 18.953125 -73.5 C 18.492188 -73.1875 18.144531 -72.914062 17.90625 -72.6875 C 16.664062 -71.675781 15.441406 -70.507812 14.234375 -69.1875 C 13.035156 -67.875 11.9375 -66.5625 10.9375 -65.25 C 10.46875 -64.695312 10.019531 -64.070312 9.59375 -63.375 C 9.164062 -62.675781 8.757812 -62.019531 8.375 -61.40625 C 7.519531 -59.78125 6.722656 -58.070312 5.984375 -56.28125 C 5.253906 -54.5 4.691406 -52.679688 4.296875 -50.828125 C 4.222656 -50.585938 4.066406 -49.960938 3.828125 -48.953125 C 3.597656 -47.953125 3.40625 -47.003906 3.25 -46.109375 C 3.101562 -45.222656 3.101562 -44.738281 3.25 -44.65625 C 3.019531 -43.882812 2.90625 -43.070312 2.90625 -42.21875 Z M 2.90625 -42.21875 "/></g></g></g><g fill="#f5baaa" fill-opacity="1"><g transform="translate(165.391565, 288.739871)"><g><path d="M 21.046875 -0.109375 L 21.046875 0.109375 C 21.203125 0.109375 21.394531 0.109375 21.625 0.109375 C 21.863281 0.109375 22.0625 0.0703125 22.21875 0 C 22.519531 0 22.75 -0.191406 22.90625 -0.578125 C 22.988281 -0.660156 22.988281 -0.757812 22.90625 -0.875 C 22.832031 -0.988281 22.796875 -1.082031 22.796875 -1.15625 L 22.796875 -10.125 C 22.796875 -11.4375 22.832031 -12.769531 22.90625 -14.125 C 22.988281 -15.488281 23.03125 -16.789062 23.03125 -18.03125 L 23.03125 -26.046875 C 23.03125 -27.367188 23.03125 -28.707031 23.03125 -30.0625 C 23.03125 -31.414062 23.03125 -32.710938 23.03125 -33.953125 C 23.03125 -35.273438 23.007812 -36.613281 22.96875 -37.96875 C 22.925781 -39.320312 22.90625 -40.660156 22.90625 -41.984375 C 22.90625 -43.296875 22.925781 -44.628906 22.96875 -45.984375 C 23.007812 -47.347656 23.03125 -48.648438 23.03125 -49.890625 C 23.03125 -51.210938 23.007812 -52.550781 22.96875 -53.90625 C 22.925781 -55.257812 22.90625 -56.597656 22.90625 -57.921875 L 22.90625 -58.375 C 22.90625 -58.84375 22.925781 -59.289062 22.96875 -59.71875 C 23.007812 -60.144531 23.03125 -60.550781 23.03125 -60.9375 C 23.101562 -61.09375 23.097656 -61.25 23.015625 -61.40625 C 22.941406 -61.5625 22.945312 -61.675781 23.03125 -61.75 C 23.101562 -61.988281 23.410156 -62.109375 23.953125 -62.109375 L 23.953125 -62.21875 C 24.335938 -62.21875 24.570312 -62.179688 24.65625 -62.109375 C 24.726562 -62.109375 24.765625 -62.085938 24.765625 -62.046875 C 24.765625 -62.003906 24.804688 -61.984375 24.890625 -61.984375 C 25.347656 -61.671875 25.695312 -61.476562 25.9375 -61.40625 C 26.320312 -61.09375 26.6875 -60.816406 27.03125 -60.578125 C 27.382812 -60.347656 27.71875 -60.082031 28.03125 -59.78125 C 28.414062 -59.46875 28.722656 -59.175781 28.953125 -58.90625 C 29.191406 -58.632812 29.425781 -58.378906 29.65625 -58.140625 L 30 -57.796875 C 30.15625 -57.722656 30.289062 -57.664062 30.40625 -57.625 C 30.53125 -57.582031 30.628906 -57.484375 30.703125 -57.328125 C 31.085938 -56.941406 31.453125 -56.476562 31.796875 -55.9375 C 32.148438 -55.394531 32.484375 -54.929688 32.796875 -54.546875 L 33.03125 -54.3125 C 33.101562 -54.226562 33.160156 -54.1875 33.203125 -54.1875 C 33.242188 -54.1875 33.265625 -54.1875 33.265625 -54.1875 C 33.421875 -54.039062 33.5 -53.925781 33.5 -53.84375 L 34.546875 -52.09375 C 34.691406 -51.863281 34.820312 -51.628906 34.9375 -51.390625 C 35.0625 -51.160156 35.160156 -50.929688 35.234375 -50.703125 C 35.316406 -50.628906 35.359375 -50.515625 35.359375 -50.359375 C 35.816406 -49.429688 36.28125 -48.5 36.75 -47.5625 C 37.21875 -46.632812 37.601562 -45.664062 37.90625 -44.65625 C 37.988281 -44.5 38.007812 -44.304688 37.96875 -44.078125 C 37.925781 -43.847656 37.945312 -43.578125 38.03125 -43.265625 C 38.101562 -43.179688 38.175781 -43.117188 38.25 -43.078125 C 38.332031 -43.046875 38.375 -42.953125 38.375 -42.796875 C 38.53125 -42.484375 38.6875 -42.132812 38.84375 -41.75 C 39 -41.363281 39.113281 -40.976562 39.1875 -40.59375 C 39.34375 -39.8125 39.5 -39.03125 39.65625 -38.25 C 39.8125 -37.476562 39.925781 -36.707031 40 -35.9375 L 40 -35.8125 C 40.15625 -34.726562 40.367188 -33.644531 40.640625 -32.5625 C 40.910156 -31.476562 41.085938 -30.394531 41.171875 -29.3125 C 41.242188 -29.226562 41.257812 -29.109375 41.21875 -28.953125 C 41.1875 -28.796875 41.171875 -28.644531 41.171875 -28.5 C 41.554688 -25.238281 41.804688 -21.976562 41.921875 -18.71875 C 42.035156 -15.46875 42.132812 -12.210938 42.21875 -8.953125 C 42.21875 -8.722656 42.140625 -8.453125 41.984375 -8.140625 L 42.09375 -8.140625 C 42.09375 -8.140625 42.113281 -8.117188 42.15625 -8.078125 C 42.195312 -8.046875 42.21875 -8.03125 42.21875 -8.03125 L 42.09375 -7.90625 C 42.09375 -7.832031 42.09375 -7.773438 42.09375 -7.734375 C 42.09375 -7.691406 42.09375 -7.59375 42.09375 -7.4375 C 42.09375 -7.207031 42.128906 -6.957031 42.203125 -6.6875 C 42.285156 -6.414062 42.328125 -6.125 42.328125 -5.8125 L 42.328125 -4.421875 C 42.328125 -4.335938 42.285156 -4.238281 42.203125 -4.125 C 42.128906 -4.007812 42.09375 -3.875 42.09375 -3.71875 C 42.09375 -3.257812 42.128906 -2.816406 42.203125 -2.390625 C 42.285156 -1.960938 42.367188 -1.515625 42.453125 -1.046875 C 42.453125 -0.972656 42.410156 -0.894531 42.328125 -0.8125 C 42.253906 -0.738281 42.21875 -0.660156 42.21875 -0.578125 C 42.289062 -0.265625 42.5625 -0.109375 43.03125 -0.109375 C 43.1875 -0.109375 43.320312 -0.0859375 43.4375 -0.046875 C 43.550781 -0.015625 43.648438 0 43.734375 0 C 44.972656 0 46.191406 -0.015625 47.390625 -0.046875 C 48.585938 -0.0859375 49.769531 -0.109375 50.9375 -0.109375 C 51.789062 -0.109375 52.625 -0.0859375 53.4375 -0.046875 C 54.25 -0.015625 55.046875 0 55.828125 0 L 56.640625 0.109375 C 57.097656 -0.0351562 57.40625 -0.34375 57.5625 -0.8125 C 57.5625 -0.894531 57.539062 -1.007812 57.5 -1.15625 C 57.46875 -1.3125 57.453125 -1.429688 57.453125 -1.515625 C 57.453125 -2.984375 57.46875 -4.4375 57.5 -5.875 C 57.539062 -7.3125 57.5625 -8.765625 57.5625 -10.234375 C 57.5625 -11.703125 57.519531 -13.171875 57.4375 -14.640625 C 57.363281 -16.117188 57.328125 -17.597656 57.328125 -19.078125 C 57.328125 -20.546875 57.347656 -21.992188 57.390625 -23.421875 C 57.429688 -24.859375 57.453125 -26.316406 57.453125 -27.796875 C 57.453125 -31.285156 57.46875 -34.773438 57.5 -38.265625 C 57.539062 -41.753906 57.5625 -45.242188 57.5625 -48.734375 C 57.5625 -50.046875 57.539062 -51.007812 57.5 -51.625 C 57.46875 -52.25 57.429688 -52.890625 57.390625 -53.546875 C 57.347656 -54.210938 57.328125 -55.203125 57.328125 -56.515625 C 57.328125 -57.835938 57.347656 -58.804688 57.390625 -59.421875 C 57.429688 -60.046875 57.453125 -60.6875 57.453125 -61.34375 C 57.453125 -62 57.453125 -62.953125 57.453125 -64.203125 L 57.453125 -71.875 C 57.453125 -73.1875 57.46875 -74.148438 57.5 -74.765625 C 57.539062 -75.390625 57.5625 -76.03125 57.5625 -76.6875 C 57.5625 -77.351562 57.5625 -78.304688 57.5625 -79.546875 C 57.5625 -79.703125 57.519531 -79.835938 57.4375 -79.953125 C 57.363281 -80.066406 57.328125 -80.164062 57.328125 -80.25 C 57.328125 -80.550781 57.289062 -80.78125 57.21875 -80.9375 C 57.21875 -80.9375 57.140625 -81.015625 56.984375 -81.171875 C 56.910156 -81.253906 56.8125 -81.332031 56.6875 -81.40625 C 56.570312 -81.488281 56.4375 -81.53125 56.28125 -81.53125 L 49.546875 -81.53125 C 48.535156 -81.53125 47.503906 -81.507812 46.453125 -81.46875 C 45.410156 -81.425781 44.382812 -81.40625 43.375 -81.40625 C 43.300781 -81.40625 43.222656 -81.425781 43.140625 -81.46875 C 43.066406 -81.507812 42.953125 -81.53125 42.796875 -81.53125 C 42.484375 -81.375 42.328125 -81.140625 42.328125 -80.828125 C 42.253906 -80.742188 42.234375 -80.644531 42.265625 -80.53125 C 42.304688 -80.414062 42.328125 -80.320312 42.328125 -80.25 L 42.328125 -79.890625 C 42.328125 -79.890625 42.347656 -79.890625 42.390625 -79.890625 C 42.429688 -79.890625 42.453125 -79.890625 42.453125 -79.890625 L 42.453125 -79.78125 C 42.453125 -79.695312 42.429688 -79.632812 42.390625 -79.59375 C 42.347656 -79.5625 42.328125 -79.507812 42.328125 -79.4375 C 42.328125 -78.96875 42.304688 -78.519531 42.265625 -78.09375 C 42.234375 -77.664062 42.21875 -77.21875 42.21875 -76.75 C 42.21875 -75.976562 42.21875 -75.1875 42.21875 -74.375 C 42.21875 -73.5625 42.175781 -72.726562 42.09375 -71.875 C 42.09375 -71.789062 42.113281 -71.691406 42.15625 -71.578125 C 42.195312 -71.460938 42.21875 -71.367188 42.21875 -71.296875 C 42.0625 -70.742188 41.789062 -70.46875 41.40625 -70.46875 C 41.09375 -70.46875 40.859375 -70.546875 40.703125 -70.703125 C 40.628906 -70.785156 40.570312 -70.863281 40.53125 -70.9375 C 40.488281 -71.019531 40.390625 -71.097656 40.234375 -71.171875 C 39.691406 -71.867188 39.113281 -72.453125 38.5 -72.921875 L 38.140625 -73.265625 C 37.984375 -73.421875 37.828125 -73.554688 37.671875 -73.671875 C 37.523438 -73.785156 37.375 -73.882812 37.21875 -73.96875 L 35.125 -75.484375 C 34.8125 -75.710938 34.441406 -75.976562 34.015625 -76.28125 C 33.585938 -76.59375 33.179688 -76.789062 32.796875 -76.875 C 32.484375 -76.875 32.289062 -76.910156 32.21875 -76.984375 L 31.859375 -77.34375 C 31.785156 -77.488281 31.691406 -77.582031 31.578125 -77.625 C 31.460938 -77.664062 31.328125 -77.722656 31.171875 -77.796875 C 29.304688 -78.578125 27.367188 -79.195312 25.359375 -79.65625 C 24.109375 -80.050781 22.921875 -80.34375 21.796875 -80.53125 C 20.679688 -80.726562 19.503906 -80.863281 18.265625 -80.9375 C 18.179688 -80.9375 18.082031 -80.972656 17.96875 -81.046875 C 17.851562 -81.128906 17.71875 -81.210938 17.5625 -81.296875 C 16.550781 -81.367188 15.460938 -81.382812 14.296875 -81.34375 C 13.140625 -81.3125 12.019531 -81.296875 10.9375 -81.296875 C 10.695312 -81.296875 10.441406 -81.332031 10.171875 -81.40625 C 9.898438 -81.488281 9.648438 -81.53125 9.421875 -81.53125 L 8.71875 -81.53125 C 8.644531 -81.53125 8.585938 -81.507812 8.546875 -81.46875 C 8.503906 -81.425781 8.40625 -81.40625 8.25 -81.40625 C 8.019531 -81.25 7.828125 -81.054688 7.671875 -80.828125 C 7.671875 -80.742188 7.691406 -80.644531 7.734375 -80.53125 C 7.773438 -80.414062 7.796875 -80.28125 7.796875 -80.125 C 7.796875 -80.125 7.753906 -80.101562 7.671875 -80.0625 C 7.597656 -80.03125 7.5625 -79.972656 7.5625 -79.890625 C 7.5625 -79.816406 7.578125 -79.757812 7.609375 -79.71875 C 7.648438 -79.675781 7.671875 -79.617188 7.671875 -79.546875 C 7.671875 -79.546875 7.671875 -79.429688 7.671875 -79.203125 L 7.671875 -70.59375 C 7.671875 -69.195312 7.671875 -67.78125 7.671875 -66.34375 C 7.671875 -64.914062 7.671875 -63.503906 7.671875 -62.109375 C 7.671875 -60.628906 7.648438 -59.191406 7.609375 -57.796875 C 7.578125 -56.398438 7.5625 -54.96875 7.5625 -53.5 L 7.5625 -45 C 7.5625 -43.53125 7.597656 -42.097656 7.671875 -40.703125 C 7.753906 -39.304688 7.796875 -37.875 7.796875 -36.40625 L 7.796875 -27.90625 C 7.796875 -26.4375 7.796875 -25.003906 7.796875 -23.609375 C 7.796875 -22.210938 7.796875 -20.78125 7.796875 -19.3125 C 7.796875 -17.914062 7.773438 -16.5 7.734375 -15.0625 C 7.691406 -13.625 7.671875 -12.207031 7.671875 -10.8125 C 7.671875 -9.34375 7.648438 -7.910156 7.609375 -6.515625 C 7.578125 -5.117188 7.5625 -3.679688 7.5625 -2.203125 L 7.671875 -1.75 C 7.671875 -1.75 7.671875 -1.726562 7.671875 -1.6875 C 7.671875 -1.644531 7.671875 -1.585938 7.671875 -1.515625 L 7.5625 -1.390625 C 7.5625 -1.390625 7.597656 -1.390625 7.671875 -1.390625 C 7.753906 -1.390625 7.796875 -1.351562 7.796875 -1.28125 C 7.796875 -1.28125 7.773438 -1.257812 7.734375 -1.21875 C 7.691406 -1.175781 7.671875 -1.117188 7.671875 -1.046875 L 7.5625 -0.9375 C 7.632812 -0.851562 7.671875 -0.734375 7.671875 -0.578125 C 7.753906 -0.347656 7.988281 -0.234375 8.375 -0.234375 C 8.53125 -0.148438 8.6875 -0.0703125 8.84375 0 C 9 0.0703125 9.113281 0.109375 9.1875 0.109375 C 10.425781 0.109375 11.625 0.0859375 12.78125 0.046875 C 13.945312 0.015625 15.148438 0 16.390625 0 C 17.242188 0 18.039062 -0.015625 18.78125 -0.046875 C 19.519531 -0.0859375 20.273438 -0.109375 21.046875 -0.109375 Z M 21.046875 -0.109375 "/></g></g></g><g fill="#f5baaa" fill-opacity="1"><g transform="translate(230.504153, 288.739871)"><g><path d="M 34.890625 -33.03125 C 34.890625 -37.601562 34.867188 -42.175781 34.828125 -46.75 C 34.785156 -51.320312 34.765625 -55.859375 34.765625 -60.359375 C 34.765625 -61.210938 34.84375 -62.066406 35 -62.921875 C 35.15625 -63.773438 35.625 -64.351562 36.40625 -64.65625 C 36.789062 -64.8125 37.15625 -64.890625 37.5 -64.890625 C 37.851562 -64.890625 38.222656 -64.890625 38.609375 -64.890625 C 40.472656 -64.734375 42.410156 -64.734375 44.421875 -64.890625 C 44.804688 -64.972656 45.191406 -65.050781 45.578125 -65.125 C 45.972656 -65.207031 46.328125 -65.398438 46.640625 -65.703125 C 46.941406 -66.015625 47.113281 -66.34375 47.15625 -66.6875 C 47.195312 -67.039062 47.253906 -67.410156 47.328125 -67.796875 C 47.484375 -69.503906 47.539062 -71.191406 47.5 -72.859375 C 47.46875 -74.523438 47.375 -76.210938 47.21875 -77.921875 C 47.132812 -78.378906 47.054688 -78.84375 46.984375 -79.3125 C 46.910156 -79.78125 46.675781 -80.171875 46.28125 -80.484375 C 45.976562 -80.785156 45.59375 -80.957031 45.125 -81 C 44.65625 -81.039062 44.226562 -81.0625 43.84375 -81.0625 C 38.1875 -81.289062 32.546875 -81.40625 26.921875 -81.40625 C 21.296875 -81.40625 15.65625 -81.328125 10 -81.171875 C 9.53125 -81.171875 9.082031 -81.128906 8.65625 -81.046875 C 8.238281 -80.972656 7.832031 -80.820312 7.4375 -80.59375 C 6.738281 -80.207031 6.3125 -79.601562 6.15625 -78.78125 C 6.007812 -77.96875 5.9375 -77.140625 5.9375 -76.296875 C 5.851562 -75.203125 5.8125 -74.070312 5.8125 -72.90625 C 5.8125 -71.75 5.8125 -70.628906 5.8125 -69.546875 C 5.8125 -69.003906 5.847656 -68.421875 5.921875 -67.796875 C 6.003906 -67.179688 6.203125 -66.640625 6.515625 -66.171875 C 7.054688 -65.554688 7.753906 -65.171875 8.609375 -65.015625 C 9.460938 -64.859375 10.273438 -64.78125 11.046875 -64.78125 L 15.125 -64.78125 C 16.28125 -64.9375 17.171875 -64.742188 17.796875 -64.203125 C 18.109375 -63.890625 18.300781 -63.476562 18.375 -62.96875 C 18.445312 -62.46875 18.484375 -61.984375 18.484375 -61.515625 L 18.484375 -37.21875 C 18.484375 -33.957031 18.484375 -30.71875 18.484375 -27.5 C 18.484375 -24.28125 18.484375 -21.046875 18.484375 -17.796875 L 18.484375 -8.140625 C 18.484375 -7.441406 18.503906 -6.722656 18.546875 -5.984375 C 18.585938 -5.253906 18.566406 -4.539062 18.484375 -3.84375 C 18.410156 -3.300781 18.410156 -2.773438 18.484375 -2.265625 C 18.566406 -1.765625 18.878906 -1.320312 19.421875 -0.9375 C 19.890625 -0.625 20.394531 -0.425781 20.9375 -0.34375 C 21.476562 -0.269531 22.019531 -0.234375 22.5625 -0.234375 C 23.957031 -0.148438 25.351562 -0.0859375 26.75 -0.046875 C 28.144531 -0.015625 29.578125 -0.0351562 31.046875 -0.109375 C 31.515625 -0.109375 32 -0.164062 32.5 -0.28125 C 33.007812 -0.40625 33.414062 -0.625 33.71875 -0.9375 C 34.1875 -1.320312 34.457031 -1.820312 34.53125 -2.4375 C 34.613281 -3.0625 34.65625 -3.644531 34.65625 -4.1875 C 34.726562 -8.988281 34.785156 -13.8125 34.828125 -18.65625 C 34.867188 -23.507812 34.890625 -28.300781 34.890625 -33.03125 Z M 34.890625 -33.03125 "/></g></g></g><g fill="#f5baaa" fill-opacity="1"><g transform="translate(283.756962, 288.739871)"><g><path d="M 44.65625 0.8125 C 44.96875 0.8125 45.257812 0.847656 45.53125 0.921875 C 45.800781 1.003906 46.09375 1.007812 46.40625 0.9375 C 46.5625 0.9375 46.753906 0.953125 46.984375 0.984375 C 47.210938 1.023438 47.40625 1.007812 47.5625 0.9375 C 47.71875 0.9375 47.890625 0.894531 48.078125 0.8125 C 48.273438 0.738281 48.453125 0.703125 48.609375 0.703125 L 50.359375 0.34375 C 50.742188 0.269531 51.128906 0.234375 51.515625 0.234375 C 51.898438 0.234375 52.289062 0.191406 52.6875 0.109375 C 53.226562 -0.0351562 53.769531 -0.1875 54.3125 -0.34375 C 54.851562 -0.5 55.394531 -0.65625 55.9375 -0.8125 C 56.632812 -0.96875 57.3125 -1.160156 57.96875 -1.390625 C 58.632812 -1.628906 59.273438 -1.863281 59.890625 -2.09375 C 60.117188 -2.25 60.367188 -2.328125 60.640625 -2.328125 C 60.921875 -2.328125 61.175781 -2.363281 61.40625 -2.4375 C 61.71875 -2.59375 62.023438 -2.75 62.328125 -2.90625 C 62.640625 -3.0625 62.953125 -3.175781 63.265625 -3.25 C 63.492188 -3.40625 63.6875 -3.582031 63.84375 -3.78125 C 64 -3.976562 64.191406 -4.148438 64.421875 -4.296875 C 64.734375 -4.296875 64.96875 -4.335938 65.125 -4.421875 C 65.4375 -4.578125 65.707031 -4.769531 65.9375 -5 C 66.175781 -5.226562 66.445312 -5.421875 66.75 -5.578125 C 67.132812 -5.816406 67.539062 -6.050781 67.96875 -6.28125 C 68.394531 -6.507812 68.804688 -6.78125 69.203125 -7.09375 L 70.9375 -8.484375 C 71.09375 -8.640625 71.265625 -8.773438 71.453125 -8.890625 C 71.648438 -9.015625 71.828125 -9.113281 71.984375 -9.1875 C 72.066406 -9.257812 72.144531 -9.375 72.21875 -9.53125 C 72.300781 -9.6875 72.378906 -9.804688 72.453125 -9.890625 C 72.609375 -10.046875 72.800781 -10.160156 73.03125 -10.234375 C 73.269531 -10.304688 73.425781 -10.421875 73.5 -10.578125 C 73.8125 -10.816406 74.082031 -11.085938 74.3125 -11.390625 C 74.539062 -11.703125 74.8125 -12.015625 75.125 -12.328125 C 75.28125 -12.484375 75.4375 -12.597656 75.59375 -12.671875 C 75.75 -12.753906 75.863281 -12.832031 75.9375 -12.90625 C 76.25 -13.375 76.519531 -13.722656 76.75 -13.953125 C 76.90625 -14.179688 77.0625 -14.429688 77.21875 -14.703125 C 77.375 -14.984375 77.53125 -15.238281 77.6875 -15.46875 C 77.84375 -15.78125 78.035156 -16.03125 78.265625 -16.21875 C 78.492188 -16.414062 78.726562 -16.671875 78.96875 -16.984375 C 79.195312 -17.367188 79.40625 -17.753906 79.59375 -18.140625 C 79.789062 -18.523438 80.007812 -18.875 80.25 -19.1875 C 80.476562 -19.570312 80.707031 -19.957031 80.9375 -20.34375 C 81.175781 -20.738281 81.410156 -21.09375 81.640625 -21.40625 C 81.953125 -21.945312 82.203125 -22.46875 82.390625 -22.96875 C 82.585938 -23.46875 82.800781 -23.953125 83.03125 -24.421875 L 83.734375 -25.9375 C 83.804688 -26.164062 83.863281 -26.375 83.90625 -26.5625 C 83.945312 -26.757812 84.003906 -26.976562 84.078125 -27.21875 C 84.234375 -27.601562 84.390625 -27.988281 84.546875 -28.375 C 84.703125 -28.757812 84.816406 -29.148438 84.890625 -29.546875 C 85.046875 -29.929688 85.160156 -30.351562 85.234375 -30.8125 C 85.316406 -31.28125 85.398438 -31.75 85.484375 -32.21875 C 85.554688 -32.519531 85.628906 -32.785156 85.703125 -33.015625 C 85.785156 -33.253906 85.863281 -33.488281 85.9375 -33.71875 L 85.9375 -35 C 86.09375 -35.46875 86.171875 -35.816406 86.171875 -36.046875 L 86.171875 -36.859375 C 86.253906 -37.015625 86.3125 -37.171875 86.34375 -37.328125 C 86.382812 -37.484375 86.40625 -37.640625 86.40625 -37.796875 C 86.488281 -38.023438 86.53125 -38.273438 86.53125 -38.546875 C 86.53125 -38.816406 86.53125 -39.070312 86.53125 -39.3125 C 86.53125 -39.625 86.488281 -39.894531 86.40625 -40.125 C 86.332031 -40.351562 86.296875 -40.582031 86.296875 -40.8125 C 86.296875 -41.050781 86.351562 -41.265625 86.46875 -41.453125 C 86.582031 -41.648438 86.601562 -41.828125 86.53125 -41.984375 C 86.53125 -42.296875 86.507812 -42.585938 86.46875 -42.859375 C 86.425781 -43.128906 86.40625 -43.378906 86.40625 -43.609375 L 86.40625 -43.734375 C 86.40625 -43.878906 86.382812 -44.066406 86.34375 -44.296875 C 86.3125 -44.535156 86.296875 -44.734375 86.296875 -44.890625 C 86.296875 -45.046875 86.21875 -45.28125 86.0625 -45.59375 C 86.0625 -45.894531 86.039062 -46.179688 86 -46.453125 C 85.957031 -46.734375 85.9375 -46.988281 85.9375 -47.21875 C 85.863281 -47.53125 85.828125 -47.820312 85.828125 -48.09375 C 85.828125 -48.363281 85.785156 -48.65625 85.703125 -48.96875 C 85.628906 -49.351562 85.570312 -49.757812 85.53125 -50.1875 C 85.5 -50.613281 85.40625 -51.019531 85.25 -51.40625 C 85.164062 -51.789062 85.046875 -52.195312 84.890625 -52.625 C 84.734375 -53.050781 84.582031 -53.5 84.4375 -53.96875 C 84.28125 -54.351562 84.125 -54.773438 83.96875 -55.234375 C 83.8125 -55.703125 83.65625 -56.128906 83.5 -56.515625 C 83.425781 -56.910156 83.3125 -57.257812 83.15625 -57.5625 C 83 -57.875 82.84375 -58.1875 82.6875 -58.5 C 82.613281 -58.8125 82.476562 -59.101562 82.28125 -59.375 C 82.082031 -59.644531 81.90625 -59.929688 81.75 -60.234375 C 81.675781 -60.546875 81.5625 -60.835938 81.40625 -61.109375 C 81.25 -61.378906 81.09375 -61.632812 80.9375 -61.875 L 79.890625 -63.265625 C 79.734375 -63.648438 79.539062 -63.957031 79.3125 -64.1875 C 79.082031 -64.425781 78.847656 -64.703125 78.609375 -65.015625 L 77.5625 -66.40625 C 77.414062 -66.5625 77.300781 -66.753906 77.21875 -66.984375 C 77.144531 -67.210938 77.03125 -67.40625 76.875 -67.5625 C 76.5625 -68.03125 76.328125 -68.34375 76.171875 -68.5 C 76.015625 -68.65625 75.835938 -68.8125 75.640625 -68.96875 C 75.453125 -69.125 75.28125 -69.238281 75.125 -69.3125 C 75.050781 -69.46875 74.992188 -69.601562 74.953125 -69.71875 C 74.910156 -69.832031 74.8125 -69.929688 74.65625 -70.015625 L 73.84375 -70.703125 C 73.539062 -70.941406 73.113281 -71.332031 72.5625 -71.875 C 72.332031 -72.03125 71.984375 -72.335938 71.515625 -72.796875 L 70.25 -73.84375 C 69.9375 -74.15625 69.625 -74.445312 69.3125 -74.71875 C 69 -74.988281 68.6875 -75.242188 68.375 -75.484375 C 68.070312 -75.628906 67.765625 -75.78125 67.453125 -75.9375 C 67.140625 -76.09375 66.867188 -76.25 66.640625 -76.40625 C 66.253906 -76.71875 65.828125 -76.96875 65.359375 -77.15625 C 64.890625 -77.351562 64.460938 -77.566406 64.078125 -77.796875 C 63.765625 -77.953125 63.429688 -78.164062 63.078125 -78.4375 C 62.734375 -78.707031 62.367188 -78.921875 61.984375 -79.078125 L 60.125 -79.78125 C 59.894531 -79.851562 59.660156 -79.945312 59.421875 -80.0625 C 59.191406 -80.1875 58.921875 -80.285156 58.609375 -80.359375 C 57.609375 -80.828125 56.484375 -81.175781 55.234375 -81.40625 C 55.003906 -81.488281 54.769531 -81.53125 54.53125 -81.53125 C 54.300781 -81.53125 54.113281 -81.566406 53.96875 -81.640625 C 53.5 -81.796875 53.050781 -81.890625 52.625 -81.921875 C 52.195312 -81.960938 51.75 -82.023438 51.28125 -82.109375 C 51.050781 -82.109375 50.816406 -82.164062 50.578125 -82.28125 C 50.347656 -82.394531 50.117188 -82.453125 49.890625 -82.453125 C 49.660156 -82.535156 49.425781 -82.554688 49.1875 -82.515625 C 48.957031 -82.472656 48.765625 -82.492188 48.609375 -82.578125 L 47.796875 -82.578125 C 47.484375 -82.578125 47.191406 -82.59375 46.921875 -82.625 C 46.648438 -82.664062 46.359375 -82.6875 46.046875 -82.6875 C 45.898438 -82.757812 45.707031 -82.773438 45.46875 -82.734375 C 45.238281 -82.703125 45.046875 -82.6875 44.890625 -82.6875 L 44.65625 -82.6875 C 44.425781 -82.6875 44.191406 -82.6875 43.953125 -82.6875 C 43.722656 -82.6875 43.492188 -82.6875 43.265625 -82.6875 C 43.179688 -82.6875 43.117188 -82.644531 43.078125 -82.5625 C 43.046875 -82.488281 42.988281 -82.453125 42.90625 -82.453125 L 41.515625 -82.453125 C 41.359375 -82.378906 41.203125 -82.359375 41.046875 -82.390625 C 40.890625 -82.429688 40.738281 -82.414062 40.59375 -82.34375 C 40.4375 -82.34375 40.238281 -82.359375 40 -82.390625 C 39.769531 -82.429688 39.578125 -82.414062 39.421875 -82.34375 C 39.109375 -82.34375 38.835938 -82.300781 38.609375 -82.21875 C 38.378906 -82.144531 38.144531 -82.066406 37.90625 -81.984375 C 37.675781 -81.984375 37.441406 -81.941406 37.203125 -81.859375 C 36.972656 -81.785156 36.785156 -81.710938 36.640625 -81.640625 C 35.003906 -81.410156 33.375 -81.0625 31.75 -80.59375 C 31.4375 -80.519531 31.144531 -80.441406 30.875 -80.359375 C 30.601562 -80.285156 30.3125 -80.171875 30 -80.015625 C 29.769531 -79.929688 29.535156 -79.8125 29.296875 -79.65625 C 29.066406 -79.507812 28.835938 -79.359375 28.609375 -79.203125 C 28.066406 -79.046875 27.539062 -78.867188 27.03125 -78.671875 C 26.53125 -78.484375 26.046875 -78.269531 25.578125 -78.03125 L 23.140625 -76.640625 C 22.753906 -76.410156 22.367188 -76.140625 21.984375 -75.828125 C 21.597656 -75.515625 21.207031 -75.203125 20.8125 -74.890625 C 20.507812 -74.660156 20.203125 -74.425781 19.890625 -74.1875 C 19.578125 -73.957031 19.265625 -73.726562 18.953125 -73.5 L 18.03125 -73.15625 C 17.875 -73.070312 17.734375 -72.953125 17.609375 -72.796875 C 17.492188 -72.640625 17.363281 -72.488281 17.21875 -72.34375 C 16.90625 -72.101562 16.628906 -71.847656 16.390625 -71.578125 C 16.160156 -71.304688 15.929688 -71.054688 15.703125 -70.828125 C 15.390625 -70.585938 15.078125 -70.332031 14.765625 -70.0625 C 14.453125 -69.789062 14.144531 -69.503906 13.84375 -69.203125 C 13.84375 -69.203125 13.859375 -69.179688 13.890625 -69.140625 C 13.929688 -69.097656 13.953125 -69.039062 13.953125 -68.96875 C 13.796875 -68.8125 13.640625 -68.613281 13.484375 -68.375 C 13.335938 -68.144531 13.1875 -67.953125 13.03125 -67.796875 C 12.789062 -67.484375 12.515625 -67.226562 12.203125 -67.03125 C 11.898438 -66.84375 11.628906 -66.597656 11.390625 -66.296875 C 11.085938 -65.828125 10.78125 -65.359375 10.46875 -64.890625 C 10.15625 -64.429688 9.84375 -63.96875 9.53125 -63.5 C 9.226562 -62.957031 8.957031 -62.414062 8.71875 -61.875 C 8.488281 -61.332031 8.21875 -60.785156 7.90625 -60.234375 C 7.75 -59.929688 7.570312 -59.660156 7.375 -59.421875 C 7.1875 -59.191406 7.015625 -58.921875 6.859375 -58.609375 C 6.703125 -58.296875 6.566406 -57.925781 6.453125 -57.5 C 6.335938 -57.082031 6.203125 -56.675781 6.046875 -56.28125 C 5.972656 -55.976562 5.816406 -55.648438 5.578125 -55.296875 C 5.347656 -54.953125 5.15625 -54.582031 5 -54.1875 C 4.925781 -53.800781 4.867188 -53.414062 4.828125 -53.03125 C 4.785156 -52.644531 4.6875 -52.257812 4.53125 -51.875 C 4.457031 -51.5625 4.34375 -51.25 4.1875 -50.9375 C 4.03125 -50.625 3.914062 -50.273438 3.84375 -49.890625 C 3.757812 -49.660156 3.71875 -49.425781 3.71875 -49.1875 C 3.71875 -48.957031 3.679688 -48.765625 3.609375 -48.609375 C 3.609375 -48.453125 3.566406 -48.296875 3.484375 -48.140625 C 3.410156 -47.992188 3.375 -47.84375 3.375 -47.6875 C 3.289062 -47.375 3.269531 -47.0625 3.3125 -46.75 C 3.351562 -46.4375 3.332031 -46.128906 3.25 -45.828125 C 3.25 -45.515625 3.191406 -45.203125 3.078125 -44.890625 C 2.960938 -44.578125 2.90625 -44.226562 2.90625 -43.84375 L 2.90625 -42.328125 C 2.90625 -42.253906 2.90625 -42.15625 2.90625 -42.03125 C 2.90625 -41.914062 2.90625 -41.785156 2.90625 -41.640625 L 2.90625 -41.40625 C 2.90625 -41.25 2.925781 -41.070312 2.96875 -40.875 C 3.007812 -40.6875 3.03125 -40.515625 3.03125 -40.359375 L 3.03125 -40.125 C 3.03125 -40.039062 3.046875 -39.960938 3.078125 -39.890625 C 3.117188 -39.816406 3.140625 -39.738281 3.140625 -39.65625 C 3.140625 -39.582031 3.097656 -39.445312 3.015625 -39.25 C 2.941406 -39.050781 2.90625 -38.878906 2.90625 -38.734375 C 2.988281 -38.578125 3.007812 -38.398438 2.96875 -38.203125 C 2.925781 -38.003906 2.90625 -37.789062 2.90625 -37.5625 L 3.25 -36.171875 C 3.25 -36.085938 3.269531 -35.988281 3.3125 -35.875 C 3.351562 -35.757812 3.375 -35.625 3.375 -35.46875 C 3.445312 -35.394531 3.441406 -35.28125 3.359375 -35.125 C 3.285156 -34.96875 3.289062 -34.8125 3.375 -34.65625 C 3.375 -34.425781 3.410156 -34.191406 3.484375 -33.953125 C 3.566406 -33.722656 3.644531 -33.53125 3.71875 -33.375 C 3.800781 -33.0625 3.84375 -32.726562 3.84375 -32.375 C 3.84375 -32.03125 3.878906 -31.707031 3.953125 -31.40625 C 4.109375 -30.78125 4.28125 -30.15625 4.46875 -29.53125 C 4.664062 -28.914062 4.878906 -28.296875 5.109375 -27.671875 L 6.15625 -25.125 C 6.3125 -24.8125 6.425781 -24.519531 6.5 -24.25 C 6.582031 -23.976562 6.664062 -23.722656 6.75 -23.484375 C 7.050781 -22.941406 7.316406 -22.398438 7.546875 -21.859375 C 7.785156 -21.316406 8.0625 -20.773438 8.375 -20.234375 L 9.65625 -17.90625 C 9.8125 -17.59375 10.003906 -17.300781 10.234375 -17.03125 C 10.460938 -16.757812 10.695312 -16.472656 10.9375 -16.171875 L 12.21875 -14.421875 C 12.363281 -14.191406 12.570312 -14 12.84375 -13.84375 C 13.125 -13.6875 13.335938 -13.492188 13.484375 -13.265625 C 13.722656 -13.023438 13.914062 -12.789062 14.0625 -12.5625 C 14.21875 -12.332031 14.375 -12.097656 14.53125 -11.859375 C 14.6875 -11.785156 14.820312 -11.726562 14.9375 -11.6875 C 15.0625 -11.644531 15.160156 -11.585938 15.234375 -11.515625 C 15.304688 -11.429688 15.304688 -11.351562 15.234375 -11.28125 C 15.160156 -11.207031 15.160156 -11.171875 15.234375 -11.171875 C 15.304688 -11.085938 15.363281 -11.066406 15.40625 -11.109375 C 15.445312 -11.148438 15.503906 -11.128906 15.578125 -11.046875 C 15.734375 -10.972656 15.890625 -10.835938 16.046875 -10.640625 C 16.203125 -10.441406 16.359375 -10.269531 16.515625 -10.125 C 16.984375 -9.65625 17.332031 -9.34375 17.5625 -9.1875 L 19.3125 -7.90625 C 19.851562 -7.519531 20.394531 -7.148438 20.9375 -6.796875 C 21.476562 -6.453125 22.019531 -6.085938 22.5625 -5.703125 C 23.175781 -5.390625 23.773438 -5.054688 24.359375 -4.703125 C 24.941406 -4.359375 25.503906 -4.03125 26.046875 -3.71875 C 26.671875 -3.332031 27.410156 -2.984375 28.265625 -2.671875 C 28.722656 -2.441406 29.1875 -2.226562 29.65625 -2.03125 C 30.125 -1.84375 30.585938 -1.671875 31.046875 -1.515625 C 31.285156 -1.429688 31.519531 -1.347656 31.75 -1.265625 C 31.976562 -1.191406 32.210938 -1.117188 32.453125 -1.046875 C 32.835938 -0.890625 33.257812 -0.753906 33.71875 -0.640625 C 34.1875 -0.523438 34.613281 -0.390625 35 -0.234375 L 37.5625 0.109375 C 37.875 0.191406 38.144531 0.25 38.375 0.28125 C 38.613281 0.320312 38.882812 0.382812 39.1875 0.46875 C 39.425781 0.46875 39.660156 0.503906 39.890625 0.578125 C 40.117188 0.660156 40.351562 0.703125 40.59375 0.703125 C 40.894531 0.773438 41.179688 0.832031 41.453125 0.875 C 41.722656 0.914062 42.015625 0.9375 42.328125 0.9375 C 42.710938 0.9375 43.078125 0.894531 43.421875 0.8125 C 43.773438 0.738281 44.109375 0.703125 44.421875 0.703125 C 44.503906 0.703125 44.5625 0.71875 44.59375 0.75 C 44.632812 0.789062 44.65625 0.8125 44.65625 0.8125 Z M 46.171875 -15.234375 C 44.847656 -15.234375 43.625 -15.328125 42.5 -15.515625 C 41.375 -15.710938 40.269531 -15.890625 39.1875 -16.046875 C 37.945312 -16.359375 36.800781 -16.707031 35.75 -17.09375 C 34.707031 -17.476562 33.644531 -17.941406 32.5625 -18.484375 C 30.550781 -19.578125 28.691406 -20.9375 26.984375 -22.5625 C 26.203125 -23.414062 25.421875 -24.285156 24.640625 -25.171875 C 23.867188 -26.066406 23.175781 -27.019531 22.5625 -28.03125 C 22.019531 -29.039062 21.550781 -30.066406 21.15625 -31.109375 C 20.769531 -32.148438 20.425781 -33.21875 20.125 -34.3125 C 19.8125 -35.394531 19.535156 -36.476562 19.296875 -37.5625 C 19.066406 -38.644531 18.953125 -39.769531 18.953125 -40.9375 C 18.953125 -42.019531 19.085938 -43.125 19.359375 -44.25 C 19.628906 -45.375 19.921875 -46.476562 20.234375 -47.5625 C 20.460938 -48.570312 20.734375 -49.539062 21.046875 -50.46875 C 21.359375 -51.40625 21.75 -52.296875 22.21875 -53.140625 C 22.832031 -54.234375 23.523438 -55.28125 24.296875 -56.28125 C 25.078125 -57.289062 25.894531 -58.222656 26.75 -59.078125 C 27.519531 -59.847656 28.3125 -60.546875 29.125 -61.171875 C 29.945312 -61.796875 30.820312 -62.378906 31.75 -62.921875 C 32.675781 -63.460938 33.601562 -63.960938 34.53125 -64.421875 C 35.46875 -64.890625 36.441406 -65.28125 37.453125 -65.59375 C 39.929688 -66.289062 42.375 -66.640625 44.78125 -66.640625 C 45.625 -66.640625 46.472656 -66.582031 47.328125 -66.46875 C 48.179688 -66.351562 49.035156 -66.21875 49.890625 -66.0625 C 51.671875 -65.75 53.453125 -65.164062 55.234375 -64.3125 C 56.171875 -63.925781 57.101562 -63.460938 58.03125 -62.921875 C 58.957031 -62.378906 59.8125 -61.796875 60.59375 -61.171875 C 61.132812 -60.785156 61.632812 -60.335938 62.09375 -59.828125 C 62.5625 -59.328125 63.03125 -58.804688 63.5 -58.265625 C 65.28125 -56.328125 66.753906 -54.15625 67.921875 -51.75 C 68.773438 -49.96875 69.429688 -48.265625 69.890625 -46.640625 C 70.046875 -45.628906 70.179688 -44.617188 70.296875 -43.609375 C 70.410156 -42.597656 70.429688 -41.59375 70.359375 -40.59375 C 70.285156 -37.175781 69.585938 -33.992188 68.265625 -31.046875 C 67.722656 -29.578125 66.984375 -28.179688 66.046875 -26.859375 C 65.117188 -25.546875 64.078125 -24.269531 62.921875 -23.03125 C 61.679688 -21.863281 60.4375 -20.773438 59.1875 -19.765625 C 57.945312 -18.765625 56.671875 -17.953125 55.359375 -17.328125 C 53.878906 -16.628906 52.363281 -16.125 50.8125 -15.8125 C 49.269531 -15.5 47.722656 -15.304688 46.171875 -15.234375 Z M 46.171875 -15.234375 "/></g></g></g></svg>