<svg xmlns="http://www.w3.org/2000/svg" xmlns:xlink="http://www.w3.org/1999/xlink" width="500" zoomAndPan="magnify" viewBox="0 0 375 374.999991" height="500" preserveAspectRatio="xMidYMid meet" version="1.0"><defs><clipPath id="0a13e9988b"><path d="M 140 7.402344 L 239 7.402344 L 239 74 L 140 74 Z M 140 7.402344 " clip-rule="nonzero"/></clipPath><clipPath id="5de8b21f87"><path d="M 247 105 L 345.789062 105 L 345.789062 173 L 247 173 Z M 247 105 " clip-rule="nonzero"/></clipPath><clipPath id="65a9ef3e4c"><path d="M 271 154 L 345.789062 154 L 345.789062 191 L 271 191 Z M 271 154 " clip-rule="nonzero"/></clipPath><clipPath id="9c5ac7de99"><path d="M 247 183 L 345.789062 183 L 345.789062 250 L 247 250 Z M 247 183 " clip-rule="nonzero"/></clipPath><clipPath id="085c116146"><path d="M 271 232 L 345.789062 232 L 345.789062 269 L 271 269 Z M 271 232 " clip-rule="nonzero"/></clipPath><clipPath id="c0852dad73"><path d="M 247 260 L 345.789062 260 L 345.789062 328 L 247 328 Z M 247 260 " clip-rule="nonzero"/></clipPath><clipPath id="9b0a3d85c2"><path d="M 247 317 L 345.789062 317 L 345.789062 367.402344 L 247 367.402344 Z M 247 317 " clip-rule="nonzero"/></clipPath><clipPath id="7417badc9c"><path d="M 29.289062 64 L 128 64 L 128 132 L 29.289062 132 Z M 29.289062 64 " clip-rule="nonzero"/></clipPath><clipPath id="dbc0eb3b6b"><path d="M 29.289062 123 L 87 123 L 87 153 L 29.289062 153 Z M 29.289062 123 " clip-rule="nonzero"/></clipPath><clipPath id="9259822780"><path d="M 29.289062 142 L 128 142 L 128 209 L 29.289062 209 Z M 29.289062 142 " clip-rule="nonzero"/></clipPath><clipPath id="328ef323f6"><path d="M 29.289062 201 L 87 201 L 87 230 L 29.289062 230 Z M 29.289062 201 " clip-rule="nonzero"/></clipPath><clipPath id="cf06c79719"><path d="M 29.289062 219 L 128 219 L 128 287 L 29.289062 287 Z M 29.289062 219 " clip-rule="nonzero"/></clipPath><clipPath id="af7baaa8c8"><path d="M 29.289062 276 L 128 276 L 128 327 L 29.289062 327 Z M 29.289062 276 " clip-rule="nonzero"/></clipPath></defs><g clip-path="url(#0a13e9988b)"><path fill="#8cd7bd" d="M 142.378906 34.734375 C 172.414062 47.636719 202.453125 60.539062 232.5 73.441406 C 234.988281 74.511719 238.085938 73.3125 238.085938 70.238281 L 238.085938 49.699219 C 238.085938 48.515625 237.402344 46.992188 236.25 46.496094 C 206.207031 33.59375 176.167969 20.691406 146.128906 7.789062 C 143.632812 6.714844 140.542969 7.917969 140.542969 10.992188 L 140.542969 31.53125 C 140.542969 36.320312 147.972656 36.320312 147.972656 31.53125 L 147.972656 10.992188 C 146.105469 12.0625 144.242188 13.132812 142.378906 14.199219 C 172.414062 27.101562 202.453125 40.003906 232.5 52.902344 C 231.882812 51.835938 231.273438 50.765625 230.65625 49.699219 L 230.65625 70.238281 C 232.523438 69.167969 234.386719 68.101562 236.25 67.03125 C 206.207031 54.128906 176.167969 41.226562 146.128906 28.328125 C 141.777344 26.457031 137.984375 32.851562 142.378906 34.734375 " fill-opacity="1" fill-rule="nonzero"/></g><path fill="#8cd7bd" d="M 146.128906 91.550781 C 168.171875 82.078125 190.21875 72.613281 212.261719 63.144531 C 216.652344 61.257812 212.863281 54.863281 208.515625 56.730469 C 186.472656 66.199219 164.421875 75.667969 142.378906 85.136719 C 137.984375 87.023438 141.777344 93.414062 146.128906 91.550781 " fill-opacity="1" fill-rule="nonzero"/><path fill="#8cd7bd" d="M 232.5 66.96875 C 216.117188 74.003906 199.734375 81.039062 183.359375 88.078125 C 178.96875 89.960938 182.757812 96.355469 187.105469 94.484375 C 203.488281 87.445312 219.867188 80.414062 236.25 73.378906 C 240.640625 71.492188 236.847656 65.101562 232.5 66.96875 " fill-opacity="1" fill-rule="nonzero"/><path fill="#8cd7bd" d="M 142.378906 112.085938 C 172.414062 124.988281 202.453125 137.890625 232.5 150.792969 C 234.988281 151.863281 238.085938 150.660156 238.085938 147.585938 L 238.085938 127.042969 C 238.085938 125.863281 237.402344 124.34375 236.25 123.84375 C 206.207031 110.941406 176.167969 98.039062 146.128906 85.136719 C 143.632812 84.066406 140.542969 85.269531 140.542969 88.34375 L 140.542969 108.878906 C 140.542969 113.667969 147.972656 113.667969 147.972656 108.878906 L 147.972656 88.34375 L 142.378906 91.550781 C 172.414062 104.453125 202.453125 117.355469 232.5 130.25 C 231.882812 129.183594 231.273438 128.121094 230.65625 127.042969 L 230.65625 147.585938 L 236.25 144.378906 C 206.207031 131.476562 176.167969 118.574219 146.128906 105.679688 C 141.777344 103.808594 137.984375 110.199219 142.378906 112.085938 " fill-opacity="1" fill-rule="nonzero"/><path fill="#8cd7bd" d="M 146.128906 169.382812 C 168.171875 159.910156 190.21875 150.445312 212.261719 140.980469 C 216.652344 139.09375 212.863281 132.695312 208.515625 134.566406 C 186.472656 144.039062 164.421875 153.503906 142.378906 162.96875 C 137.984375 164.855469 141.777344 171.253906 146.128906 169.382812 " fill-opacity="1" fill-rule="nonzero"/><path fill="#8cd7bd" d="M 232.5 144.800781 C 216.117188 151.839844 199.734375 158.871094 183.359375 165.910156 C 178.96875 167.792969 182.757812 174.1875 187.105469 172.316406 C 203.488281 165.285156 219.867188 158.246094 236.25 151.210938 C 240.640625 149.332031 236.847656 142.929688 232.5 144.800781 " fill-opacity="1" fill-rule="nonzero"/><path fill="#8cd7bd" d="M 142.378906 189.917969 C 172.414062 202.820312 202.453125 215.722656 232.5 228.625 C 234.988281 229.695312 238.085938 228.5 238.085938 225.417969 L 238.085938 204.882812 C 238.085938 203.695312 237.402344 202.175781 236.25 201.675781 C 206.207031 188.773438 176.167969 175.871094 146.128906 162.96875 C 143.632812 161.898438 140.542969 163.101562 140.542969 166.175781 L 140.542969 186.71875 C 140.542969 191.5 147.972656 191.5 147.972656 186.71875 L 147.972656 166.175781 L 142.378906 169.382812 C 172.414062 182.285156 202.453125 195.1875 232.5 208.082031 C 231.882812 207.023438 231.273438 205.953125 230.65625 204.882812 L 230.65625 225.417969 C 232.523438 224.347656 234.386719 223.289062 236.25 222.21875 C 206.207031 209.316406 176.167969 196.414062 146.128906 183.511719 C 141.777344 181.640625 137.984375 188.03125 142.378906 189.917969 " fill-opacity="1" fill-rule="nonzero"/><path fill="#8cd7bd" d="M 232.5 223.519531 C 202.453125 236.414062 172.414062 249.316406 142.378906 262.21875 L 147.972656 265.425781 L 147.972656 244.890625 C 147.355469 245.960938 146.738281 247.023438 146.128906 248.089844 C 163.6875 240.554688 181.242188 233.011719 198.796875 225.46875 C 203.1875 223.585938 199.398438 217.191406 195.054688 219.0625 C 177.488281 226.605469 159.933594 234.140625 142.378906 241.683594 C 141.21875 242.183594 140.542969 243.703125 140.542969 244.890625 L 140.542969 265.425781 C 140.542969 268.5 143.632812 269.703125 146.128906 268.632812 C 176.167969 255.730469 206.207031 242.828125 236.25 229.925781 C 240.640625 228.039062 236.847656 221.648438 232.5 223.519531 " fill-opacity="1" fill-rule="nonzero"/><g clip-path="url(#5de8b21f87)"><path fill="#ed52b1" d="M 339.820312 126.710938 C 309.777344 139.613281 279.738281 152.515625 249.699219 165.417969 C 251.554688 166.488281 253.421875 167.554688 255.285156 168.617188 L 255.285156 148.082031 C 254.675781 149.152344 254.058594 150.222656 253.445312 151.289062 C 283.488281 138.386719 313.527344 125.484375 343.566406 112.582031 C 341.707031 111.511719 339.84375 110.445312 337.980469 109.375 L 337.980469 129.917969 C 337.980469 134.707031 345.410156 134.707031 345.410156 129.917969 L 345.410156 109.375 C 345.410156 106.300781 342.308594 105.105469 339.820312 106.175781 C 309.777344 119.078125 279.738281 131.972656 249.699219 144.875 C 248.539062 145.382812 247.855469 146.902344 247.855469 148.082031 L 247.855469 168.617188 C 247.855469 171.699219 250.953125 172.902344 253.445312 171.824219 C 283.488281 158.921875 313.527344 146.019531 343.566406 133.117188 C 347.957031 131.230469 344.167969 124.839844 339.820312 126.710938 " fill-opacity="1" fill-rule="nonzero"/></g><g clip-path="url(#65a9ef3e4c)"><path fill="#ed52b1" d="M 343.566406 183.519531 C 321.523438 174.050781 299.476562 164.585938 277.425781 155.113281 C 273.082031 153.25 269.292969 159.644531 273.683594 161.527344 C 295.726562 170.992188 317.769531 180.464844 339.820312 189.933594 C 344.167969 191.804688 347.957031 185.410156 343.566406 183.519531 " fill-opacity="1" fill-rule="nonzero"/></g><path fill="#ed52b1" d="M 249.699219 171.765625 C 266.074219 178.796875 282.457031 185.835938 298.839844 192.863281 C 303.1875 194.734375 306.976562 188.34375 302.582031 186.457031 C 286.207031 179.421875 269.828125 172.390625 253.445312 165.351562 C 249.097656 163.488281 245.308594 169.878906 249.699219 171.765625 " fill-opacity="1" fill-rule="nonzero"/><g clip-path="url(#9c5ac7de99)"><path fill="#ed52b1" d="M 339.820312 204.058594 C 309.777344 216.960938 279.738281 229.867188 249.699219 242.769531 C 251.554688 243.835938 253.421875 244.898438 255.285156 245.976562 L 255.285156 225.433594 C 254.675781 226.503906 254.058594 227.570312 253.445312 228.640625 C 283.488281 215.738281 313.527344 202.835938 343.566406 189.933594 C 341.707031 188.863281 339.84375 187.792969 337.980469 186.726562 L 337.980469 207.265625 C 337.980469 212.046875 345.410156 212.046875 345.410156 207.265625 L 345.410156 186.726562 C 345.410156 183.652344 342.308594 182.449219 339.820312 183.519531 C 309.777344 196.421875 279.738281 209.324219 249.699219 222.226562 C 248.539062 222.722656 247.855469 224.253906 247.855469 225.433594 L 247.855469 245.976562 C 247.855469 249.046875 250.953125 250.242188 253.445312 249.175781 C 283.488281 236.273438 313.527344 223.371094 343.566406 210.472656 C 347.957031 208.582031 344.167969 202.1875 339.820312 204.058594 " fill-opacity="1" fill-rule="nonzero"/></g><g clip-path="url(#085c116146)"><path fill="#ed52b1" d="M 343.566406 261.359375 C 321.523438 251.882812 299.476562 242.417969 277.425781 232.953125 C 273.082031 231.082031 269.292969 237.476562 273.683594 239.359375 C 295.726562 248.824219 317.769531 258.300781 339.820312 267.765625 C 344.167969 269.636719 347.957031 263.242188 343.566406 261.359375 " fill-opacity="1" fill-rule="nonzero"/></g><path fill="#ed52b1" d="M 249.699219 249.597656 C 266.074219 256.628906 282.457031 263.667969 298.839844 270.703125 C 303.1875 272.574219 306.976562 266.175781 302.582031 264.289062 C 286.207031 257.257812 269.828125 250.222656 253.445312 243.191406 C 249.097656 241.320312 245.308594 247.710938 249.699219 249.597656 " fill-opacity="1" fill-rule="nonzero"/><g clip-path="url(#c0852dad73)"><path fill="#ed52b1" d="M 339.820312 281.890625 C 309.777344 294.792969 279.738281 307.699219 249.699219 320.601562 C 251.554688 321.667969 253.421875 322.738281 255.285156 323.808594 L 255.285156 303.265625 C 254.675781 304.335938 254.058594 305.402344 253.445312 306.472656 C 283.488281 293.570312 313.527344 280.667969 343.566406 267.765625 C 341.707031 266.695312 339.84375 265.632812 337.980469 264.558594 L 337.980469 285.097656 C 337.980469 289.886719 345.410156 289.886719 345.410156 285.097656 L 345.410156 264.558594 C 345.410156 261.484375 342.308594 260.289062 339.820312 261.359375 C 309.777344 274.261719 279.738281 287.164062 249.699219 300.058594 C 248.539062 300.5625 247.855469 302.085938 247.855469 303.265625 L 247.855469 323.808594 C 247.855469 326.882812 250.953125 328.082031 253.445312 327.015625 C 283.488281 314.113281 313.527344 301.210938 343.566406 288.304688 C 347.957031 286.421875 344.167969 280.027344 339.820312 281.890625 " fill-opacity="1" fill-rule="nonzero"/></g><g clip-path="url(#9b0a3d85c2)"><path fill="#ed52b1" d="M 249.699219 328.3125 C 279.738281 341.210938 309.777344 354.113281 339.820312 367.015625 C 342.308594 368.082031 345.410156 366.886719 345.410156 363.816406 L 345.410156 343.273438 C 345.410156 342.09375 344.726562 340.5625 343.566406 340.074219 L 290.898438 317.445312 C 286.542969 315.574219 282.753906 321.972656 287.144531 323.859375 C 304.703125 331.402344 322.257812 338.9375 339.820312 346.480469 C 339.203125 345.410156 338.59375 344.34375 337.980469 343.273438 L 337.980469 363.816406 C 339.84375 362.738281 341.707031 361.675781 343.566406 360.609375 C 313.527344 347.703125 283.488281 334.800781 253.445312 321.898438 C 249.097656 320.027344 245.308594 326.429688 249.699219 328.3125 " fill-opacity="1" fill-rule="nonzero"/></g><path fill="#ed52b1" d="M 166.300781 313.078125 L 166.300781 328.226562 C 166.300781 333.011719 173.730469 333.011719 173.730469 328.226562 L 173.730469 313.078125 C 173.730469 308.292969 166.300781 308.292969 166.300781 313.078125 " fill-opacity="1" fill-rule="nonzero"/><path fill="#ed52b1" d="M 177.320312 316.941406 L 162.15625 316.941406 C 157.363281 316.941406 157.363281 324.363281 162.15625 324.363281 L 177.320312 324.363281 C 182.109375 324.363281 182.109375 316.941406 177.320312 316.941406 " fill-opacity="1" fill-rule="nonzero"/><path fill="#ed52b1" d="M 61.515625 44.785156 L 61.515625 59.9375 C 61.515625 64.722656 68.945312 64.722656 68.945312 59.9375 L 68.945312 44.785156 C 68.945312 40 61.515625 40 61.515625 44.785156 " fill-opacity="1" fill-rule="nonzero"/><path fill="#ed52b1" d="M 72.53125 48.648438 L 57.371094 48.648438 C 52.578125 48.648438 52.578125 56.074219 57.371094 56.074219 L 72.53125 56.074219 C 77.320312 56.074219 77.320312 48.648438 72.53125 48.648438 " fill-opacity="1" fill-rule="nonzero"/><g clip-path="url(#7417badc9c)"><path fill="#f5a30d" d="M 121.632812 85.632812 C 91.589844 98.535156 61.546875 111.4375 31.511719 124.34375 C 33.375 125.410156 35.238281 126.480469 37.101562 127.550781 L 37.101562 107.007812 C 36.484375 108.078125 35.871094 109.144531 35.261719 110.214844 C 65.296875 97.3125 95.339844 84.410156 125.375 71.507812 C 123.511719 70.441406 121.652344 69.371094 119.789062 68.300781 L 119.789062 88.839844 C 119.789062 93.628906 127.21875 93.628906 127.21875 88.839844 L 127.21875 68.300781 C 127.21875 65.226562 124.121094 64.023438 121.628906 65.097656 C 91.585938 78 61.546875 90.90625 31.507812 103.808594 C 30.347656 104.296875 29.667969 105.828125 29.667969 107.007812 C 29.667969 113.851562 29.667969 120.695312 29.667969 127.550781 C 29.667969 130.621094 32.765625 131.816406 35.257812 130.75 C 65.292969 117.847656 95.335938 104.945312 125.371094 92.046875 C 129.761719 90.164062 125.972656 83.761719 121.628906 85.632812 " fill-opacity="1" fill-rule="nonzero"/></g><path fill="#f5a30d" d="M 125.378906 142.449219 C 103.335938 132.976562 81.289062 123.511719 59.242188 114.039062 C 54.890625 112.175781 51.101562 118.566406 55.496094 120.453125 C 77.539062 129.917969 99.585938 139.390625 121.632812 148.855469 C 125.980469 150.726562 129.769531 144.335938 125.378906 142.449219 " fill-opacity="1" fill-rule="nonzero"/><g clip-path="url(#dbc0eb3b6b)"><path fill="#f5a30d" d="M 31.511719 130.691406 C 47.890625 137.71875 64.269531 144.757812 80.652344 151.796875 C 85 153.667969 88.789062 147.265625 84.398438 145.382812 C 68.019531 138.351562 51.640625 131.3125 35.261719 124.273438 C 30.90625 122.40625 27.121094 128.804688 31.511719 130.691406 " fill-opacity="1" fill-rule="nonzero"/></g><g clip-path="url(#9259822780)"><path fill="#f5a30d" d="M 121.632812 162.984375 C 91.589844 175.886719 61.546875 188.789062 31.511719 201.691406 C 33.375 202.753906 35.238281 203.828125 37.101562 204.890625 L 37.101562 184.355469 C 36.484375 185.425781 35.871094 186.496094 35.261719 187.5625 C 65.296875 174.660156 95.339844 161.757812 125.375 148.855469 C 123.511719 147.785156 121.652344 146.71875 119.789062 145.648438 L 119.789062 166.191406 C 119.789062 170.980469 127.21875 170.980469 127.21875 166.191406 L 127.21875 145.648438 C 127.21875 142.574219 124.121094 141.371094 121.628906 142.449219 C 91.585938 155.351562 61.546875 168.246094 31.507812 181.148438 C 30.347656 181.648438 29.667969 183.175781 29.667969 184.355469 C 29.667969 191.203125 29.667969 198.046875 29.667969 204.890625 C 29.667969 207.964844 32.765625 209.167969 35.257812 208.097656 C 65.292969 195.195312 95.335938 182.300781 125.371094 169.390625 C 129.761719 167.503906 125.972656 161.113281 121.628906 162.984375 " fill-opacity="1" fill-rule="nonzero"/></g><path fill="#f5a30d" d="M 125.378906 220.28125 C 103.335938 210.816406 81.289062 201.34375 59.242188 191.878906 C 54.890625 190.007812 51.101562 196.398438 55.496094 198.285156 C 77.539062 207.757812 99.585938 217.222656 121.632812 226.6875 C 125.980469 228.558594 129.769531 222.167969 125.378906 220.28125 " fill-opacity="1" fill-rule="nonzero"/><g clip-path="url(#328ef323f6)"><path fill="#f5a30d" d="M 31.511719 208.523438 C 47.890625 215.558594 64.269531 222.589844 80.652344 229.628906 C 85 231.5 88.789062 225.097656 84.398438 223.214844 C 68.019531 216.183594 51.640625 209.144531 35.261719 202.113281 C 30.90625 200.242188 27.121094 206.636719 31.511719 208.523438 " fill-opacity="1" fill-rule="nonzero"/></g><g clip-path="url(#cf06c79719)"><path fill="#f5a30d" d="M 121.632812 240.816406 C 91.589844 253.71875 61.546875 266.621094 31.511719 279.523438 C 33.375 280.59375 35.238281 281.660156 37.101562 282.730469 L 37.101562 262.1875 C 36.484375 263.257812 35.871094 264.328125 35.261719 265.394531 C 65.296875 252.492188 95.339844 239.589844 125.375 226.6875 C 123.511719 225.625 121.652344 224.558594 119.789062 223.488281 L 119.789062 244.023438 C 119.789062 248.8125 127.21875 248.8125 127.21875 244.023438 L 127.21875 223.488281 C 127.21875 220.414062 124.121094 219.210938 121.628906 220.28125 C 91.585938 233.183594 61.546875 246.085938 31.507812 258.988281 C 30.347656 259.488281 29.667969 261.007812 29.667969 262.1875 C 29.667969 269.042969 29.667969 275.878906 29.667969 282.730469 C 29.667969 285.804688 32.765625 287.007812 35.257812 285.929688 C 65.292969 273.027344 95.335938 260.132812 125.371094 247.230469 C 129.761719 245.34375 125.972656 238.945312 121.628906 240.816406 " fill-opacity="1" fill-rule="nonzero"/></g><g clip-path="url(#af7baaa8c8)"><path fill="#f5a30d" d="M 31.511719 287.238281 C 61.546875 300.140625 91.589844 313.042969 121.632812 325.9375 C 124.121094 327.015625 127.21875 325.8125 127.21875 322.738281 L 127.21875 302.195312 C 127.21875 301.015625 126.542969 299.496094 125.378906 298.988281 C 107.820312 291.453125 90.265625 283.910156 72.707031 276.367188 C 68.355469 274.503906 64.566406 280.898438 68.957031 282.78125 C 86.515625 290.316406 104.070312 297.859375 121.632812 305.402344 C 121.015625 304.335938 120.398438 303.265625 119.789062 302.195312 L 119.789062 322.738281 C 121.65625 321.667969 123.511719 320.601562 125.378906 319.53125 C 95.339844 306.628906 65.296875 293.726562 35.261719 280.824219 C 30.90625 278.953125 27.117188 285.34375 31.507812 287.238281 " fill-opacity="1" fill-rule="nonzero"/></g><path fill="#f5a30d" d="M 276.089844 73.152344 L 276.089844 88.300781 C 276.089844 93.085938 283.519531 93.085938 283.519531 88.300781 L 283.519531 73.152344 C 283.519531 68.363281 276.089844 68.363281 276.089844 73.152344 " fill-opacity="1" fill-rule="nonzero"/><path fill="#f5a30d" d="M 287.101562 77.015625 L 271.9375 77.015625 C 267.152344 77.015625 267.152344 84.4375 271.9375 84.4375 L 287.101562 84.4375 C 291.890625 84.4375 291.890625 77.015625 287.101562 77.015625 " fill-opacity="1" fill-rule="nonzero"/><path fill="#f5a30d" d="M 198.785156 275.152344 L 198.785156 290.304688 C 198.785156 295.09375 206.214844 295.09375 206.214844 290.304688 L 206.214844 275.152344 C 206.214844 270.363281 198.785156 270.363281 198.785156 275.152344 " fill-opacity="1" fill-rule="nonzero"/><path fill="#f5a30d" d="M 209.800781 279.019531 L 194.644531 279.019531 C 189.851562 279.019531 189.851562 286.441406 194.644531 286.441406 L 209.800781 286.441406 C 214.59375 286.441406 214.59375 279.019531 209.800781 279.019531 " fill-opacity="1" fill-rule="nonzero"/></svg>